/* XPM */
static char *oie_peR8crfDERAO1677602818[] = {
/* columns rows colors chars-per-pixel */
"64 64 241 2 ",
"   c #090E38",
".  c #0A1138",
"X  c #0D123B",
"o  c #13163C",
"O  c #19173A",
"+  c #271E39",
"@  c #301D35",
"#  c #272139",
"$  c #3C273A",
"%  c #3F323C",
"&  c #4A2535",
"*  c #442B3A",
"=  c #47343B",
"-  c #5B3337",
";  c #6B3434",
":  c #763635",
">  c #2F5B1E",
",  c #2D6E1B",
"<  c #2C6D25",
"1  c #336E26",
"2  c #2A772A",
"3  c #347326",
"4  c #3A7324",
"5  c #307826",
"6  c #3E7927",
"7  c #34752C",
"8  c #3B752B",
"9  c #347A2C",
"0  c #3C7A2D",
"q  c #2C7A36",
"w  c #337632",
"e  c #3A7631",
"r  c #357B33",
"t  c #3C7C33",
"y  c #317638",
"u  c #347D3A",
"i  c #3A7E3A",
"p  c #75523D",
"a  c #467928",
"s  c #437C2D",
"d  c #427D33",
"f  c #497933",
"g  c #437D39",
"h  c #4B7E3B",
"j  c #537D3B",
"k  c #151A41",
"l  c #1A1E44",
"z  c #1D2245",
"x  c #2B2F4B",
"c  c #343756",
"v  c #483849",
"b  c #33424F",
"n  c #374454",
"m  c #397D42",
"M  c #4A5656",
"N  c #705250",
"B  c #5A7B42",
"V  c #4B6859",
"C  c #507454",
"Z  c #6E644D",
"A  c #454866",
"S  c #575669",
"D  c #565A76",
"F  c #566F67",
"G  c #556968",
"H  c #67736F",
"J  c #953B2E",
"K  c #9E3C2B",
"L  c #8A3A31",
"P  c #A23E2B",
"I  c #984B39",
"U  c #A7442C",
"Y  c #B04E2F",
"T  c #BB5632",
"R  c #97623D",
"E  c #C45B36",
"W  c #C86336",
"Q  c #D56B3A",
"!  c #CF7239",
"~  c #DB723C",
"^  c #E5753E",
"/  c #E9763E",
"(  c #E6793D",
")  c #EA7A3D",
"_  c #8B5242",
"`  c #925141",
"'  c #A45A41",
"]  c #956646",
"[  c #B66845",
"{  c #C56B44",
"}  c #CA7945",
"|  c #DB7442",
" . c #E67740",
".. c #EB7A41",
"X. c #2C812E",
"o. c #37812F",
"O. c #2D8635",
"+. c #348435",
"@. c #3C8235",
"#. c #35833B",
"$. c #3C833B",
"%. c #348A39",
"&. c #3C8B3C",
"*. c #3B903D",
"=. c #48832E",
"-. c #55852B",
";. c #438235",
":. c #4B8334",
">. c #408937",
",. c #4D8936",
"<. c #44843B",
"1. c #4A853B",
"2. c #448A3C",
"3. c #4B8A3D",
"4. c #578A34",
"5. c #52843C",
"6. c #528B3D",
"7. c #5B8D3B",
"8. c #4A903D",
"9. c #569239",
"0. c #5C923D",
"q. c #638B39",
"w. c #62943C",
"e. c #368647",
"r. c #3B8442",
"t. c #3D8B42",
"y. c #3E9148",
"u. c #448542",
"i. c #4A8541",
"p. c #458B42",
"a. c #4C8C43",
"s. c #468649",
"d. c #438C4B",
"f. c #4C8D4A",
"g. c #538644",
"h. c #5A8543",
"j. c #538D43",
"k. c #5B8B44",
"l. c #538D4A",
"z. c #5C8C49",
"x. c #449143",
"c. c #4C9244",
"v. c #47934A",
"b. c #4C924A",
"n. c #4A9B4C",
"m. c #549245",
"M. c #5B9344",
"N. c #539B45",
"B. c #5E9946",
"V. c #54944B",
"C. c #5B954B",
"Z. c #55994D",
"A. c #5B9A4D",
"S. c #518955",
"D. c #4A9854",
"F. c #539753",
"G. c #5C9651",
"H. c #549B57",
"J. c #5C9C53",
"K. c #5D9D58",
"L. c #668D4B",
"P. c #649748",
"I. c #69954A",
"U. c #639B4C",
"Y. c #749A4B",
"T. c #649552",
"R. c #639C54",
"E. c #619D58",
"W. c #69985A",
"Q. c #769E59",
"!. c #59A14D",
"~. c #5CA155",
"^. c #5AA458",
"/. c #67A14C",
"(. c #64A255",
"). c #6BA354",
"_. c #63A35B",
"`. c #6AA55C",
"'. c #64A95D",
"]. c #6BA95D",
"[. c #74A95A",
"{. c #77AD58",
"}. c #5C8865",
"|. c #68866C",
" X c #699666",
".X c #729A67",
"XX c #6B8673",
"oX c #779878",
"OX c #5EA969",
"+X c #6CA562",
"@X c #65AB67",
"#X c #6CAB62",
"$X c #77A865",
"%X c #73AE68",
"&X c #6BB369",
"*X c #77B368",
"=X c #7AA577",
"-X c #66B174",
";X c #7DB972",
":X c #EC833E",
">X c #EB863F",
",X c #F18A3F",
"<X c #B5864D",
"1X c #83A666",
"2X c #84A16A",
"3X c #87B874",
"4X c #C5864D",
"5X c #D58B46",
"6X c #E88542",
"7X c #ED8B42",
"8X c #F08541",
"9X c #F28C41",
"0X c #EC9748",
"qX c #F49443",
"wX c #F69B44",
"eX c #F99D44",
"rX c #F39E4B",
"tX c #EE9A55",
"yX c #FAA144",
"uX c #F8A34A",
"iX c #F6AA55",
"pX c #F9B35B",
"aX c #ED9F6F",
"sX c #F6B268",
"dX c #87C079",
"fX c #FCC772",
"gX c #FFD17E",
"hX c #6C6D85",
"jX c #747689",
"kX c #789086",
"lX c #7DA287",
"zX c #878B94",
"xX c #8FA993",
"cX c #979AAA",
"vX c #A8A9B4",
"bX c #B5CCB1",
"nX c #FED489",
"mX c #FBCE90",
"MX c #FEDEAF",
"NX c #FFE1BA",
"BX c #D7DDDD",
/* pixels */
"9.[.U.a k.`.t g *Xt J.&.r F.t G.<.7 a.`.m.t a.R.b.@.<.i 1.$.V._.$.w x.3.m.A.0 w :.@.*.+.w K.;X2.,.].).a z.+Xi B &Xg R.$.w J.g V.",
"+.,.].m.;.T.+X<.,.0 `.Z.F.+Xa.j.1.b.2.a.e a.2.a.B.&.;.3.U.1.:.a p.r 0 3 3.J.c.i.).c.*.r s.%XG.0 o.3.].h.g R.+Xi.5.t +XV.V.#Xa.j.",
"$.3.m.3.W.J.`.<.:.U.].a.t ;.d :._.d < Z.;.V.<.;.;.;.m.M.U.d =.=.^.$.2.3.;.;.<.f.4.@.c.5 1.T.8 m.$.p.V.3.`.T.+X;.:.P.%Xa.t ;.6 :.",
"p.2.$.<.%X1.V.d M.[.A.@.0 ;.j.T.J.3 2.*X@.i.Z.0 6 6 j.c.V.t 3.A.K.#.3.(.C.5 1 $.:.=.!.8.1.k.6.;Xx.<.$.<.%X;.l.d P.).C.d ;.0 j.U.",
"&.2 V.c.2.3 `.d P.U.;.;.A.l.j.k.7 m.;XJ.t 8 A.r x.+.r #.d.i d.p.t < 8 M.A.1.$.<.(.,.2.!.j.k._.G.$.2 b.V.<.1 `.d U.C.0 3.J.3.6.M.",
"a.J.].<.u.a.#X<.,.,.;.C.V.d ;.M.0 Z.^.e J.;.<.V.t.t.d.q r.i p.$.7 V.a.:.d ;.a.V.A.9 5 ,.s f A.< a.J.].$.2.c.#Xh 5.:.@.Z.Z.0 =.m.",
"I.*XR.3 A.'.a.a.;.0 a.F.u.g V.*X_.t 7 a.*X3.<.V.0 8.J.t <.2.j.,.l.;XT.1.j.;.$.f.t r x.;.f k.a.y I.$XT.7 J.#Xf.f.:.t a.F.p.$.Z.%X",
"q.f 4.;.0 2.8 i.).t $.t.$.<.g 3.dX7 V.;Xm.t V.<.9.B.P.s 6.I.I.a %X+X3 1.3XJ.t w @.%.^.;.M.+X$.e.q.f 6.;.t p.w f.(.;.<.$.u 3.>.&.",
"4.=.=.U.:.:.3._.0.+.d.0.-.OX-Xa 1.2.g.6.O.n.$XL.,.<.+.s.m.,.i #.d d 8 %XJ.< f.a.f.).,.a $.S.K.7.,.;.6 (.s -.:.[.7.+.e.w.f @X@Xa ",
"4.0.M.P.9.m.,.:.;.:.R.J.d j.R.i.j 3.O.O.R.1XC.6 6.V.r.< ;.m.u.q G.A.t ;.<.f._.7 g j.,.,.u.m 1.6 ,.m.M.C.m.k.5.5.<.6.U.'.@.m.E.f.",
"<.Z.V.;.3.3.3.,.#.-.4.y.w a -.e.n.$X'.+.f a.+.L.[.V.i p.A.3.3.H.`.l.2.1.f.l.F.i.A.6.,.Z.f.r.V.3.<.m.K.0 m.d 5.a.q -.-.y.q a -.e.",
"w <.u.9 m.0 :.(.p.:.a $.r.s 3.H.2 h.1Xa.1.D.&.Q.U.;.i ^.(.6 r @XV.<.J.E.f.g w F.[.,.8.!.1.i.J.J.w <.a.7 V.8 2.R.x.:.a t.#.f ,.H.",
"u $.2.$._.3.,.m.9.v.x.B.M.r.d.$XW.2 &.d a.$Xk.O.a <.2.@.d =.;.t.d l.].2.e f.t $.z.|.oXkXoXoXl.i 9  X}.<.J.f.<.b.A.b.v.M.B.$.d.*X",
"b.b.<.7 V.A.3.8 7.r.r.7.w.d.r.0.3X&.j.h.+.j.j O.4.C.a.5 ;.M.m.w t 1.m.@.V.&Xp.< H X k o . c G.r. Xo   }.a.^.$.9 -.+.r.-.0.e.m 4.",
"A.M.;.0 t 3.<.3.:.@.$.;.;.2.i 8 $.t L.1X~.+.r m.).j.&.a.A.7.3.H.,.0 0 m.$X#X@.2..XO k k o c W.y.oXl o H t a.<.<.,.@.<.t j.<.u.6 ",
",.:.,.(.;.t ;.^.%.0./.y.q =.M.D.j.j 2 v.1Xh.2 c.0.0 g G V V M G F V V V V g 9 (.q.W.lXc X l A S hXW..X_.3.9 ;.~.$.7.).e.#.a I.D.",
"e.q v.j.4 0.[.4.2 t.u.0 A.M.C.t C.M.m.9 &.@.3.<., c.}.  . . X X X X   o . H 1.i.#.O.Z.A . o X . D u v.V.4 M.[.,.y r.u.0 A.M.M.6 ",
"d.y u.m.d d 6.,.d.w t 0 j.j.d V.4 A./.2.t Z.m.g M..XH = = = * = = = = @ @ H f W.=X=XxXS = % O X A  X XE.:.;.6.:.d.y t 0 j.6.d m.",
"y K.'.j.;.3.1.<.2 2.#X,.3 V.s.&XI.a.0 $.5 x z z l l ] uXrX6X| ~ 0XrX5XJ J - l k l l # <XyX<X# o k k k XX:.3.a.;.w 2.].1.8 V.3.@X",
"9 ].(.;.3.J.f.$.3.C.M.;.d *Xf.s.[.3.j.J.F.z X X X o ] yXyX:X^ ) eXuX>XP P - o o X k # 4XyX<X# X k k   XXj.J.f.$.3.V.A.d <.*Xa.s.",
"3.a.8 8 A.G.i u V.a.3 ;.a.G.i q :.1.=X|.H _ _ _ ] ] } ,X>XqX,X,XW W T U K J _ _ _ _ _ N N Z 2XcXkXkX|.|.XX|.S.w N.3., ;.j.G.u q ",
"r 3.a.:.1.3.<.&.7 b.;.;.d i.V.s.A.r n   * ~ ) qXyXuX,X) ( wXuX,XU P K K P E ....../  .& . c bXS.t p.m.|.  X  X$.0 m.;.:.<.i.l.f.",
"t b.#X(.0 1.G.<.u c.a.1 6.%X`.<.3X@.n X * ~ / 8XwXeX>X:X>X,XyX0XT U U U U E ~ ^ ^ / | * X c BXr u V.#XoXx b =X2.w c.p.3 j.%X_.u.",
"F.w m.#Xm.3.C.$.#.#._.d C.P.d t #Xg.b X * | / ) ( :X,XwXyXyXwXyX,X0X7X~  .E P U W / | * X c BXa.F.w V.%XT.C.m.t %.u J.;.C.T.d h ",
"1X~.5 g.f 5 9 5._.$.b.w f.i 2 +XH.> n   * | ^ (  ./ 9XyXyXyXwXwXyXyX,X>X:XE P K W ) | * X c BXR.{.U.8 2.7 5 t i.U.a.x.X.%.&.3 /.",
"6.2.+.h R.+.c.M.j.e g i A.F.t T.S.oXZ ; I 6X>X7X8X7XsXsXfXsXpXpXyXyX,XW W E E T E E E ; & v cXcXW.3.<.$.F.$.f.V.j.0 9 <.K.a.0 3.",
"a x.x.a.+Xt.3.C.:.h 1.E..XJ.:.F X @ [ ..8XeXeXeXeXwXmXMXMXnXgXfXiXyX5XU P T /  .T K K K U L O   V A.t.d.#Xa.j.M.1.g d J.$Xg.:.C.",
"h ~.e.l.f.t.2 k.m.i.g %XJ.a.2.H X z { ..8XeXeXuXuXqXmXMXNXnXgXfXuXyX>XU P E  .) T K K P P L + X G @XB d.F.a.a 6.c.a.B .X.Xh v.K.",
"f D.2 g a.#.2 g.V.@.< b.u.u.;.V X + { / ) :X:XtXmXmXmXnXnXsXiXiX>X:X>X>X>X,X0XwXE U U W Q [ # X V J.y i u.<.8 6.x.&.2 B f.g d.+.",
"5.&.q 8 J.u +.k.+.@.<.$.9 3.p.V o + { / / / / aXNXNXmXgXgXpXyXwX( ( ( yXyXyXyXyXE K J Q / { # X V u.i t K.t d j.+.+.u u.i t 2.+.",
"P.&.+.g.W.r 2.k.2.@.(.a.r <.3.F X # { ..) 8X:XaXMXMXnXfXfXuXqXqX>X>X,XyXyXyXqXqX! T T ^ / { # o C 3.t s.^.i 3.a.3.;.Z.Z.@.e 2.A.",
"I.2.< T.j.+.@.I.[.4 A.l.a.d d G X + { ....eXeXpXnXnXpXyXyX>X( ( eXwXyXyXyX,X( ( ,XwXwX:X/ { # o F 4.1 V.f.2.$.V.Y.s m.b.$.;.:.I.",
"k.d j.1.< j.$X8 ;.@.c.9 1.i.r.G   + { / ..wXeXpXgXgXpXyXyX,X) ) wXeXeXyXyX,X) ) ,XyXyX8X) { + X C d 1.:.8 m.R.t 3.9 3.5 2.c.a.c.",
"i 2.V.p.1.G.~.3.p.j.J.;.a.a.i G o + I T W 8X8X0XtXtXrXyXyX,X,XqXeXeXwX,X,X,XqX9X7X:X7X9XqX} # . C ,.a.<.2.A.J.2.8.,.(.2.2.<.<.2.",
"$.~.b.2.b.2.2 t m.3.a.e V.K.a.S   + L K Y ^ ( / ( ( 9XyXyXyXyXeXyXwXqX) / 9XeXyX,X/ ) eXyX5X#   C ^.Z.&.p.c.@.9 c.2.N.t c.Z.a.$.",
"t 2.@.r p.2.r c.t <.3.3 i.G.V.H x c : L I  .) ) :X( 9XyXyXyXqXeXeXeXqX) ) 9XqXeX7X( >X5X5X<XA b C ;.;.@.;.2.2.p.;.;.2.3 3.J.G.<.",
"3.8 e 1.1.l.G.J.3 j.J.d <.u p.s.F.xXc O - 0XwXwXwXwXyXyXeX,X) ) ) ) :XwXwX,X:X) ,XeX0X- + A W.d ,.5 6 a.:.i.T.A.3 c.A.;.<.@.V.$.",
"].1.g.G.3.g.C.h :.A.C.<.F.u.c.7 v.W.c   v 0XyXyXyXyXyXyXeX,X/ / / / :XyXyX9X) ) qXyXrX=   c 1.,.].o.3.).g.:.j.:.@.N.A.c.c.<.a.9 ",
"m.;.3.V.<.3.l.d j.m.t 0  X XXX|.kXzXZ p R 7X9X:X! ! >X7X,X,X8X8X9X9X,X,X9X:X/ ) ,X,X5X= . c 6.C.j.<.3.V.i.3.a.3.3.c.2.;.V.i.V.w ",
"$.@.$.<.@.@.$.$.3.z.;.8 }.  o X . + 5XyXqX( ( W K P E ( / eXeXeXyXeXqX) / / ../ / ) ~ * . c m.a.9 3.2.9 +.@.@.@.8.m.@.9 ;.5 a.2.",
"9.U.1.m.3.;./.7.&.7 a.V.C z z z z x 5X0X7X . .E J J E  . .9XeXeXwXwX9X( .. .| ^ | | { v l A h q ,.Y.X.F.9.X.1X9.y $.d.3.;.s ;.,.",
"M.,.d <.2.3.C.9.V.$.a.J.V.3.J.=XQ..XM x - Y Y : @ @ : Y Y | / ^ T Y T ( ..' $ x & $ * vX.X@Xi $.P.7.&.B <.2.4.,.b.$.p.J.p.3.N.A.",
").j.C.g g V.s 1.a.d t V.J.<.t a.L.T.c   @ J P - k X - P P |  .| U J Y ) ..` . .   k l 2XQ.^.+.`.U.o.R.t i R.9 7.V.5 d K.V.@.2.2.",
"i.;.#X<.<.#X;.A.M.1.4 d b.$.< S..X XD D S ; ; N D D - ; : I ' ' : ; I ' ' N D D D D D  XC.$.< j.6.+.1Xr.$.1XX.z.C.;.8 <.c.i 2 u ",
"i <.%X1.l.;Xg a.].).;.3 a.s.i G X x a.J.2Xl k hXs.E.jXo O O O o o o O O o jXs.V.s.z.z.r 2 A.U.i ;.y.[.a.F.1X&.1.`.%X@.3 V.p.r Z.",
"i.f.J.;.C.#Xt 1 A.(.a.r V.V.<.G X x t 9 2Xl k hXV.3.jXX k o o o o O o o X jXc.p.2 j P.&.+.$X3Xc.0 b.g.i._.$Xp.w V.#X2.7 ~.Z.w b.",
"$.i.0 ;.R.m.u.b.$.i.<.2.G.a.t j..X=Xt < oXl   hXk.j.BXvXvXvXvXvXxXoXoXoXoXG.V.2.C.C.j.V.f.m.C.3.&.j.i :.(.c.<.p.<.p.$.3.J.c.8 2.",
"p.Z.8 9.B.< 3.&XF.p.u 3.m.3.,.C.8 m.a f xXl   hXa 3.J.;.w <.$._.,.@.(.3.1.8 A.8 g.A.+.8 5.2.&.j t.h.+.6.M.2 f &XH.u $.V.3.;.3.0.",
"0.{.).6 3.W.@.<.*Xe E.t i b.<.A.2.9 c.].=XA c zXb.9 $.@.3.$.G.J.q $.2.<.J.V.< 3.:.@.$.#.9 C.*X&.7.[.).a j._.t <.%Xh _.u.2 F.g C.",
"s ,.].3.d J.+Xi.C.d #XV.F.E.1.<.<.c.<.3.0 W.W.C.E.<.<.,.A.1.:.8 v.9 0 0 :.C.a.u.[.a.2.u l.%XM.;.a 6.{.8.t J.+X1.5.d `.F.V.#Xa.3.",
"@.u.m.3._.J.`.1.s M.$X1.;.;.;.6.(.@., Z.@.V.<.d ,.s m.M.U.s ,.:.^.r 2.m.0 <.a.<.1.s 2.5 1.z.4 m.$.u.V.2._.K.+X;.5.U.`.1.t 1.4 ;.",
"p.<.$.2.%X1.V.d I.{.R.d t d 6.P.~.8 u.*X<.i.A.t @.9 a.m.j.t j.G.~.w 3.).m.t i t :.d A.c.1.g.,.*Xp.p.$.<.%X;.V.d I.[.M.d ;.d 6.U.",
"r.7 b.Z.a.< `.t U./.;.i.A.m.6.7.8 l.;XJ.w 0 Z.e v.u #.w &.i v.a.i t 8 6.U.3.t t W.:.2.!.j.7.R.Z.&.2 c.V.3.1 +Xd U.P.d 3.A.3.3.N.",
"p.K.].1.a.a.`.g s ;.t Z.V.3.:.U.w l.K.e J.@.<.b.d.#.t.u u u a.r.< '.j.8 3.<.<.F.C.9 5 ,.a :.V.2 p.G.].<.1.a.+X;.:.:.;.A.V.0 ;.C.",
"B.*XR.3 A.`.a.u.3.@.p.~.$.d 3.%X+Xt e l.*Xu.<.F.0 8.~.;.d ;.m.;.a.*XC.:.M.d <.F.$.@.x.>.d j.a.q P.*XU.3 G.`.a.i.d 0 c.F.u.&.V.*X",
"9.a 4.;.a 1.e a.~.+.2 d.w p.;.j.3X7 l.;Xa.$.V.$.4.M.U.=.7.P.U.a ;XR.1 z.;Xm.i 9 u $.^.@.m.$X#.e.0.=.7.;.d 3.e 2._.;.$.$.$.2.2.;.",
"7.:.;.U.:.s 1.Y.w.u r.7.-.@X-X8 1.&.5.j O.n.1Xz.4.2.$.d.m.3.w q h t w *XJ.1 H.u.a.).4.s m f.J.-.3.=.=.U.:.f :.[.P.7 2.z.5.^.&Xd ",
"6.M.C.A.m.C.1.:.2.3.(.~.<.m.).p.5.3.O.O.P.$Xj.5 m.V.y 5 t M.3.y R.V.#.<.g l.#Xy d 6.=.3.u.m 1.a 3.m.A.A.q.k.5.5.2.3.(.~.;.m.'.c.",
":.C.A.;.3.3.1.j.q a -.e.q a -.e.n.1X#XX.f a.X.L.[.m.u u.A.3.>.H.[.a.<.a.i.l.b.u A.6.,.A.S.g g.,.>.Z.A.;.a.1.3.j.X.f 5.&.2 f 5.&.",
"0 <.u.9 b.w 2._.x.4.=.2.r.d :.H.q h.$Xj.i.H.p.1X/.t r ~.(.6 r @XL.d H.J.i.d e v.{.3.8.~.1.i.K.A.9 2.u.9 l.t ;.J.c.,.:.@.$.d 3.F.",
"e <.<.$.^.a.3.V.B.b.v.P.M.$.d.$XW.2 <.;.h.$XC.%.a ;.3.i ;.:.d t.d 3.'.<.8 C.i.&.w.a t.x.d 5.m.<.r <.a.$._.a.<.V.A.c.c.U.P.$.p.*X",
"l.V.&.7 A.G.i.e -.e.q 4.w.e.r.7.3X%.j.h.+.a.h 2 ,.C.u.5 :.N.j.r :.3.c.@.l.%Xl.< 9.@.t.q 8 k.j.#.V.V.<.7 Z.G.u.e 5.o.X.M.L.O.q z.",
"R.C.g e @.a.a.:.,.@.$.;.3.a.<.0 +.d L.1X^.+.9 j.).m.$.a.U.9.3.F.M.0 +.m.]._.$.r P.,.e.q :.I.m.t.J.A.d t ;.a.1.;.:.@.;.;.3.p.<.8 ",
"5.;.<._.<.r g T.t.w.I.y.q -.M.d.a.j 3 n.1Xg.X.c.0.s 9 V.B.a 8 F.U.3.9 a.A.a t ~.q.2.e.e.U.Y.8 y a.g :.(.1.t ;.(.+.P.W.2.2 h z.x."
};
