/* XPM */
static char *oie_zSEoDTBqYoCJ1678815392[] = {
/* columns rows colors chars-per-pixel */
"64 64 230 2 ",
"   c None",
".  c #0E0F0F",
"X  c #1C1C1D",
"o  c #181615",
"O  c #251D19",
"+  c #271B14",
"@  c #2A211A",
"#  c #39291C",
"$  c #1E1E21",
"%  c #211F22",
"&  c #1F2023",
"*  c #222224",
"=  c #262729",
"-  c #29292C",
";  c #292728",
":  c #362B25",
">  c #3C3128",
",  c #353436",
"<  c #2F2F30",
"1  c #472A1D",
"2  c #5B291D",
"3  c #422D23",
"4  c #4A3325",
"5  c #49382C",
"6  c #563A2B",
"7  c #4A3B33",
"8  c #563E33",
"9  c #643D30",
"0  c #643E2F",
"q  c #2C6D1E",
"w  c #37741F",
"e  c #2A7727",
"r  c #387627",
"t  c #34762A",
"y  c #397B29",
"u  c #367823",
"i  c #2B7835",
"p  c #347E36",
"a  c #397D30",
"s  c #2A6E23",
"d  c #1F7531",
"f  c #534234",
"g  c #5B4738",
"h  c #62412D",
"j  c #68402F",
"k  c #6B4534",
"l  c #67493A",
"z  c #774A37",
"x  c #68513D",
"c  c #76523D",
"v  c #7E523D",
"b  c #427C28",
"n  c #407E32",
"m  c #4A7D34",
"M  c #527E38",
"N  c #527829",
"B  c #3B6042",
"V  c #4B4949",
"C  c #575554",
"Z  c #6A5444",
"A  c #79584B",
"S  c #785544",
"D  c #725349",
"F  c #796459",
"G  c #6E6354",
"H  c #736E6D",
"J  c #5A7C40",
"K  c #844E38",
"L  c #84523B",
"P  c #8C543D",
"I  c #8F583F",
"U  c #91573D",
"Y  c #95593E",
"T  c #985B3E",
"R  c #855A47",
"E  c #8D5941",
"W  c #8B5944",
"Q  c #935B43",
"!  c #9A5D43",
"~  c #935F48",
"^  c #845C54",
"/  c #915E54",
"(  c #89634D",
")  c #9D6146",
"_  c #95624D",
"`  c #9C644B",
"'  c #9A634A",
"]  c #8A6559",
"[  c #956C5A",
"{  c #9A6954",
"}  c #9B705C",
"|  c #A3654B",
" . c #A76A4D",
".. c #A46C53",
"X. c #AA6E54",
"o. c #AA7359",
"O. c #B6785B",
"+. c #B06C51",
"@. c #896963",
"#. c #956C65",
"$. c #9B7667",
"%. c #937C71",
"&. c #A67B69",
"*. c #A87A64",
"=. c #B37D65",
"-. c #AF7673",
";. c #C37D61",
":. c #C07D5C",
">. c #398438",
",. c #398C39",
"<. c #358535",
"1. c #31842E",
"2. c #418332",
"3. c #4A8431",
"4. c #4C8A33",
"5. c #428538",
"6. c #49863B",
"7. c #428B39",
"8. c #4A8B3A",
"9. c #548A38",
"0. c #599338",
"q. c #4D882C",
"w. c #629239",
"e. c #388943",
"r. c #358B44",
"t. c #428641",
"y. c #4B8D41",
"u. c #468D45",
"i. c #528E41",
"p. c #568C45",
"a. c #4A9346",
"s. c #53954A",
"d. c #589748",
"f. c #5A9A52",
"g. c #4A9152",
"h. c #669847",
"j. c #659C4B",
"k. c #649B54",
"l. c #69985A",
"z. c #759359",
"x. c #5CA356",
"c. c #58A24C",
"v. c #67A65A",
"b. c #77AA59",
"n. c #67A24B",
"m. c #6BAA63",
"M. c #77A667",
"N. c #77B368",
"B. c #79B272",
"V. c #679F64",
"C. c #978F72",
"Z. c #B5826C",
"A. c #BA8269",
"S. c #A98574",
"D. c #B88A76",
"F. c #AD9473",
"G. c #8BAD73",
"H. c #B0A478",
"J. c #8C995F",
"K. c #CA8D6B",
"L. c #C48769",
"P. c #CC926E",
"I. c #C7916D",
"U. c #C58B77",
"Y. c #CB8E79",
"T. c #CC9573",
"R. c #CA937C",
"E. c #CB9877",
"W. c #D39B76",
"Q. c #D8977D",
"!. c #D49D7A",
"~. c #D49778",
"^. c #D18F73",
"/. c #D6A17D",
"(. c #DAA27D",
"). c #C8A17D",
"_. c #C3805E",
"`. c #88C17A",
"'. c #777C80",
"]. c #BF7E81",
"[. c #8F8D8F",
"{. c #B0978C",
"}. c #94B78D",
"|. c #B3AF92",
" X c #9EA0A4",
".X c #A6A9AA",
"XX c #ADB2B2",
"oX c #B9BBBA",
"OX c #BCB6A2",
"+X c #CA8E87",
"@X c #CA9787",
"#X c #D49B85",
"$X c #D99A86",
"%X c #D89D92",
"&X c #E19E84",
"*X c #D5A383",
"=X c #DAA483",
"-X c #DAA38B",
";X c #DCAA8B",
":X c #D9A788",
">X c #C5A89A",
",X c #DBA593",
"<X c #D9AC96",
"1X c #DBB399",
"2X c #C9AD8F",
"3X c #E5A48A",
"4X c #E4A995",
"5X c #E5A795",
"6X c #E7B19B",
"7X c #D3B5A7",
"8X c #E1B2AD",
"9X c #A8C19A",
"0X c #BDC2BE",
"qX c #B0C5A4",
"wX c #D6C8B5",
"eX c #E3C7B9",
"rX c #B6BCC2",
"tX c #BDC4C7",
"yX c #C7CAC9",
"uX c #CACDD1",
"iX c #CED1D4",
"pX c #D5D9D9",
"aX c #D8D9D9",
"sX c #D1D0CA",
"dX c #E9D6C9",
"fX c #DADFE0",
"gX c #DDE2E2",
"hX c #E4E6E6",
"jX c #F2EBE7",
"kX c #EBE7DD",
/* pixels */
"9.b.n.b p.v.a n N.y x.,.y f.a f.7.t y.v.d.a y.k.a.>.2.>.8.,.c.v.,.t u.8.s.d.u t 4.1.,.<.e x.B.8.8.v.v.b p.m.a M m.M k.>.t f.>.d.",
"1.4.v.8.b k.m.6.8.y v.f.f.m.y.y.8.a.7.y.t y.7.y.d.,.2.8.        e.<.y u 7.x.a.8.v.8.7.<.u.N.f.a 1.4.b.p.a k.M.y.6.p m.s.s.m.y.p.",
",.7.d.8.v.f.v.3.3.j.m.8.a 2.y 3.v.y s s.5.s.5.5.2.  A H G c x G H     8.2.2.3.a.0.1.7.e 6.h.r i.>.5.s.8.v.k.M.2.m h.M.y.y >.t 3.",
"u.7.>.5.M.6.d.n d.b.d.1.y n i.k.f.u ,.N.>.3.s.y x x x l x x g g g l x Z F   q >.4.q.c.8.6.p.9.N.7.5.,.5.N.>.p.n h.v.j.y 2.y 9.n.",
",.e d.a.7.q v.>.j.j.b >.f.p.i.p.t s.N.x.1.y   x f l g g x f 4 4 f g g x Z Z G   v.4.5.c.p.0.k.f.>.e a.s.5.q v.n j.d.y 6.f.8.9.d.",
"8.f.v.>.t.y.m.>.4.4.2.d.s.n 2.d.a s.x.y x.  f 1 f f # g f f l f f f g g Z x f Z   t e 4.b m f.e i.f.v.<.7.a.m.m 9.3.>.s.d.y 2.d.",
"h.N.k.w f.v.i.y.2.y y.f.t.m d.N.v.t t     # + # # 3 # # f x h f g f f 4 f x Z g x   5.2.m p.y.i j.G.j.u f.m.a.g.3.a 8.f.8.<.s.N.",
"w.m 9.q.y 7.t i.v.y >.e.>.5.n 5.`.t d.  # + + + # 4 1 5 f x x f h g f f 5 3 8 Z g g   n h.v.p e.0.m 6.2.y u.t a.v.2.5.>.<.7.,.,.",
"9.q.2.n.3.3.7.v.w.<.u.0.q.m.B.t 8.,.f # @ + # # 1 1 6 4 x g g f g 5 # > 6 f g g g #   y >.g.k.9.3.5.b v.b N 3.b.9.<.<.w.m m.m.a ",
"9.0.0.h.9.i.4.3.2.3.n.f.n i.k.t.4.  > @ + # # # 1 h 6 f 0 c x f 5 # # f g f 5 4 f # > 4.t.p t.b 8.d.0.d.d.p.9.9.3.8.c.m.>.0.f.a.",
"2.d.d.5.9.8.8.4.<.q.9.e.i b q.e.  > + + f 4 4 h c ( k h h h c h x S c g 6 1 6 # f @ @   a.e.d.8.2.i.f.y 0.a 8.8.i q.q.7.d b q.r.",
"t 5.7.e s.y 3.v.7.3.b <.,.b 8.x.  @ + f x h W ( [ } [ S c c x h x x x f 6 4 f h f # @   8.6.f.f.t 6.u.r f.}.OX|.qXM.N <.<.m 8.f.",
"<.>.7.>.v.7.4.i.0.a.8.d.d.e.u.G.  # # h h h R A.D.D.R.D.Z.$./ z _ ( S c k k h 4 h f >   1.9.s.>.t >.>.5.x.7X8X8X1XG.a.0.h.e.e.N.",
"a.a.5.e d.f.8.r 0.r.<.0.w.e.<.9.8 # f f c [ Z.Y.Q.Q.-X3X5X$XD.[ ( _ _ R R z 8 2 4 # f > u 0.p.<.s.f.y 1.a.@X<X8X%Xz.e.q.0.<.e.9.",
"d.0.5.y a 8.5.7.2.>.7.4.2.a.g.  V 5 5 x { D.Q.Q.Q.3X3X4X5X6X4X$XY.U.Z.=.o._ R c 6 1 3 #   w.h.e.k.f.a n i.E.,X8X%Xz.7.y i.2.2.y ",
"4.2.8.v.2.a 2.x.,.0.n.e.i G.eX8X8XC.x S =.R.Q.Q.Q.Q.Q.3X5X6X6X6X,X-X#XU.-.=._ _ c h 4 >   h.r i 6.a p.M.wX-X;X<X<XJ.z.e.<.m h.g.",
"e.i g.9.e 0.b.9.e r.t.y f.G.,X8X%X%.x ] S.U.Q.R.Q.&X3X3X6X5X5X5X5X&X&X+XU.L.o.&._ A 8 7 : a 9.f.e.p a.m.dX!.;X1X).l.7.y f.d.d.w ",
"u.i 2.s.2.2.9.3.u.t >.y 9.J.,X8X%X$.A ] Z.U.Q.Q.Q.Q.Q.3X3X5X5X5X5XQ.$XY.U.U.A.-.} R f 6 7 y.B.m.u.p t.M.eX/.*X:XF.p y y p.8.b d.",
"i f.m.i.2.8.3.5.e 7.m.4.M.>X-X4X-X&.A [ Z.U.Q.Q.Q.&XQ.%X3X4X5X$X5X&XQ.Q.U.L.=.=.} _ 8 5 7 a i.b p f.m.m.eX(.<X*XF.,.v.8.y s.7.m.",
"t m.v.2.8.f.u.<.8.d.0.2.OX1X=X<X;XS.A [ Z.L.R.Q.Q.Q.3X3X3X5X3X5X&X$XQ.Q.+XU.D.=.} R 8 8 7 6.t 8.i m.m.l.wX;X1X;XF.0.d.2.5.N.y.a.",
"7.i.r u f.d.>.p s.y.e 2.9X1X/.:XI.A S [ A.Y.+X~.#X$X-X,X3X4X5X5X5X&X%X&X$XY.D.=.} S g 5 7 s.p.G.5.y.t p.8X;X1X1XH.8.q >.i.f.p i ",
"<.8.8.3.8.8.3.,.t a.2.2.}.;X;X:XD.g l #.Z.A.D.=.S.$.D.#X,X4X4X6X5X%X,X+XS.$.[ [ [ R h 4 7 6.v.d.y y.y.p.1X;X1X1XH.9.2.4.2.t.p.u.",
"y a.m.v.y 6.f.5.p a.8.q 9X6X1X1XD.g l o.=.S.Z l 7 8 3 8 [ @X,X,X,X+X-.D 5 3 3 4 4 A l : , y.f.a >.s.m.b.2X/.:X:XF.a.u.w y.M.v.5.",
"f.t i.m.s.6.d.>.<.,.v.1.|.1X1X1X{.f Z &.Z.c A #.#.#.] R A &.@X,X@X#.Z 8 S ] ^ S 6 4 S > > ] >.t.f.t s.G.P./.)./.H.<.x.a f.l.n m ",
"G.x.e 4.r t t 9.k.>.a.p H.1X;X1XH.8 F Z.&.[ S.=.] ^ S / [ &.R.4X+X( S l 8 l S / A l ( 5 : R ,.k.G.h.b G.P.E.T.E.H.,.r.1.1.,.e n.",
"6.7.<.6.k.<.a.d.i.t n p J./.:X*XR.8 [ D.S.S...Z 5 O : l R [ R.5XR.W h 8 , ; 3 0 S c ( f 6 2 h.<.4.8.b |.P.P.E.I.H.b y 7.x.a.y 8.",
"b u.,.y.m.,.u.h.3.6.6.v.F.W.E.!.!.g $.D.D.S.[ x A V F / D.D.T.3X~.[ -.#.F F A D c { ] 8 k 9 p.i v.G.z.|.P./.!.I.7XB.n x.M.p.q.d.",
"6.f.r.p.y.<.i 0.p.u.5.G.2XP.T.T.E.Z *.D.@XQ.R.D.R.D.+X{.@XQ.U.$X~.X.{.Z.=.=.*.[ S.S.#.Z D A 8.z.|.#XT.I.P./.*XT.dXgXwX0XM.8.a.f.",
"m s.e a y.<.e 8.s.u.y M.@XT.E.I.<XC.&.D.@X$X$X@X@X@X,X,X#XY.U.$XQ.o.Z.@X+X{.L.D.D.Z.$.S.>XwXqXH.W.W.T.L.W.=X*XE.kXkXdXjX}.m r.>.",
"6.,.i t f.p <.p.7.>X).I.T.!.*XT.7XsX7X>XR.$X$X$X,X4X5X5X$XU.R.3XQ.&.=.+X$X$X#X+XU.Z.>XdX,XeXdXW.W.(.W.L.W.;X#X:XeX;X*X<XwXa.r.<.",
"j.,.<.9.G.}.}.G.G.!.W.K.K./.:XE.eXjXjXjX1X#X%X5X4X5X4X5X$XU.Q.4X$XZ.=.Y.$X%X$XY.=.-.dX<X#X^.E.P./.*XT.K.!.=X/.:X4X(./.*X7X6.7.d.",
"h.>.q B.sX1X8XdX!.W.(.I.K./.:X!.dX4X=X1XeX%X&X3X4X6X6X6XR.Y.Q.,X,XA.D.@X$X3X$XY.+X>X>X#X$X=.L.P./.(.P.K./.;X*XP.W.(.*X*X;Xp.4.j.",
"w.1.9.XX8X$X^.E.P./.(.K.P.=X*X/.;X/./.*X8X@X$X,X6X6X5X,XY.=.=.,X@Xo.&.R.$X$X#X<XdX7X#X,X@XO.K././.W.K.W.!.3X=XP.W././.:X*XH.2XG.",
">.7.}.|.%X-X;._.E././.K.W.=X;XE.W././.:X2X%X@X,X%X%X$X%XL.W / $.R 0 z U.#X#X7X8X1X$X-X,XL.O.W.(./.W.P.P.(.3X*XE.P./././.)./.*X|.",
"t.wXwX#X-X@XO.K././.W.K.W.=X=XE.E././.*X*X*XwX-X+X%X#X#X&.R ^ S k 6 l ] R.R.8X<X!.*X=XW.O.;.!.3X(.W.K.W.(.(.(.W./.(.(.(.E.!.).:X",
"9X7X*X-X-XL.;.W.(.(.W.^.~.(.3XQ.P././.:XR.!.*X1X+X+X=.c R S 9 6 6 x z z R #.>X+XY.~.(.P.+.;.T.;X(.W._.P.(.(.Q.W.(.(.(.:X/././.!.",
"2XE./.*XW.O._.W.;X(.W.K.W.(.(.W.(.(.(.(.E././.:X>X[ l l S R S 9 9 9 k 9 f 6 {.@XA.K.I.O.| +.;.W.(.^.:.K.W.W.W.(.3X;X;X=X/.:X/.!.",
"wXZ.U.W.P. .O.K.(.(.K._.Q.(.W.(.(.(.;X;X/.*X/.E.<Xg 1 1 9 ^ #.-.-./ D 1 1 1 S |.A.K.L.| Y Q ! o.K._.O.:.;.K.P.W./.(./.W.!.:X;XE.",
"G.D.L.K.+.) |  .K.P.K.:.K.^.~.Q.(.=X(.(./.;X=XT.@XF 9 &.-.].+X-.-.].-.@.@.8 x %.{.A.T.o.I I I P +. .) | +.+.O._._._.O.O._.I.E.I.",
"u.|.Z.I.O.U U Y ) O.+. .+.O.O.L.P.I.K.L.L././.A.R.wX&.+X+XD.+X+X].-.&.&.#.h g 8 {.A.U...Q I I L T | U P | ) | +.| |  .| o.o.O._.",
"0.}.R.L.*.) W E L | ! P ! | | X.+.X. . .O.O.A.O.=.7XS.{.D.$.#.] S ^ / @.^ 6 # O Z {.L.X.` ` E L K Q Q P ! | |  .| ` ` ) |  .O...",
"0.h.H.L.o.` ' I K P ! E Q | | |  .| ) )  .X.O...o.] [ &.$.{ x 5 4 9 Z ^ 8 3 ; + 3 >Xo.{ ' ` ) L K P Q E ~ Q W ! | ` ! ' | X.o.| ",
"v.p.|.=...` ' ~ L L I Q Q ! E ! | ' ' ' | o.o.` ..Z 8 -.#.$.S l A #.[ A 5 + O o @   } ~ W Q ~ L K W Q E Q Q E Q ` ' ' | ..o.o...",
"6.2.B.C._ E Q ~ L K L E P Q Q Q ) ' ) | X.o.....#.Z V A ^ ] S.#.$.$.F A : + O O + <.{._ v W Q K z K E Q Q ! ! ! Q ) ` ..X.......",
"p 6.b.G.&.v L ( K z L Q Q ! ! Q ! Q ` ..........*.8 > 8 g G / ^ ^ A 8 7 + O + # 8 y.G.>XA v R z z K W P Q ! ! ! ! Q ` ..X...` { ",
"t.u.f.i.OX] z v K z L U P ! ! ) ) ~ ` ..X. .` { &.8 O : 7 7 8 V V 7 > : O O + 8 A M f.m.C.S z z 9 K K P E ! ! ! ! ~ `  ...' ' ` ",
">.6.u 7.V.G.[ k z 9 z P E Q ! ! ! ~ ' ` ` ) _ _ ..8 $ O % % : : : O @ X o : 8 z F   y.s.}.>XD 9 9 9 z E U ! ! ! ~ Q ' ' ~ Q Q _ ",
"7.f.b 9.d.V.wX( 9 9 k z P U ! Q ! Q ) _ E Q _ { &.F + + + % O + X X o + # g k D {..X  r M.9XC.k 9 9 k K K Q U Q Y Q E Q E Q _ { ",
"0.b.v.b 8.J.f.z.Z k j z K P U P Q P W W E _ _ { $.@.l 8 : O O X O O + 4 g x Z {..X.X*   t d.G.J z k k K K U P P P K L W E Q _ _ ",
"b 8.v.8.a f.m.t.z.c j z z P U P L L L P E ) ~ ] &.#./ ^ ^ D D 9 8 l l l D A  XoXoXXXH $   m.d.9.( z 0 z K P U U K K L W _ _ _ ( ",
">.5.d.8.v.f.v.6.M F.z k K P U T L K W Q _ _ ( &.tX#.@.] @.] #./ / ^ ^ F ^ {.tXtXtXoX.X@ X   u s.|.~ z z K P Q T P K W ~ ` _ / ] ",
"7.5.>.5.N.3.s.n h.OX{ z z K T ! Q P E ` ..{ [ OXfXuX@./ @.@.@.@.^ ] / / [.yXyX0XoXoXXXV o *     M.F.K z K U ! T Y I Q ....{ [ F.",
"e.u a.s.u.q v.a f.b.C.P K P T ! Q Q ' X.X.*.o.sXhXfXiX.X#.#.#.#.#.@.@.[.pXiXuXtXrXoXrXH X X X X O >X_ L L Y ! | Q Q ` X.o.*.*.C.",
"7.f.m.3.y.y.m.n b 7.F.Q P U ! ) | | o.=.=.*.D.aXhXhXhXgXrX].$.%.#.#.{.pXaXaXsXtXwXrXXX X$ $ X X $ %.{ I U Y T | )  .o.=.Z.Z.*.G.",
"f.N.h.w d.v.i.u.8.>.C.U U T T |  .o.=.=.=.o.{.fXfXhXhXhXfXpXXX{. XrXfXfXgXfXyXtXoXtXXXXX, o X X $ F { E Q Y ! | X.o.=.=.=.o.S.9X",
"0.q.4.2.b 6.t y.    &.U U U T !  .X.+.O.*.} |.pXfXhXhXhXgXuX'.XXoXH .XiXhXaXyXyX0XrXtX0XV X X X - %.W E U U T )  .O.o.O.*...$.  ",
"9.>.q.j.3.b     X H &.I I U T | ` o._.A.Z.{ OXiXfXhXhXhXrXC [.XXG H . $ fXgXuXyXoXyXyXyXC % * $ V |.I I I T T )  .X.A.A.A.{ [ < ",
"9.d.d.d.  X X * $ Z o.I U U T T  ._.I.Z...Z.>XiXpXhXjXtXo $ $ = , < $ . . rXuXuXyXyXyXyXC X * = f Z.I I Y T T )  ._.I.A...o.C.- ",
"q.  X X @ & * & & C Z.U T T T T  ._.=.o.Z.A.wXpXpXfXpX. . o * = , $ - C '.'.oXyXyXyXiXyXH $ % * V &.I Y T T T ) o._.A.o.o.Z.$.< ",
"* O $ $ & & * * - V H &.| T T )  .+.' o.A.|.aXpXfXfX[.C $ o = - - $ .XtXrX X[.oXyXsXuXyX X* % * V {...Y Y T Y ) +._.{ o.A.D.|.< ",
"X $ $ $ * * * = * * & , G Z $.o..._ } &.F C iXfXpXyXH  XV . & - - , uXiXtXuXrX XyXyXyXyXrX$ $ = & , G %.o.' ) )  . .' Z.D.{.H - ",
"* * $ * * * = * * = & o . . ; < , < , < * ; iXhXfX[..XtX.Xo * - & C iXaXiXiXiXtX.XuXuXoXuX$ $ $ = = & V , C C.] ] A @.H f V - - ",
"* * = * * = = * = * & $ X X & $ * $ $ X @ * rXfXtXXXiXpXuXV & & $ C aXfXiXpXfXfXpXoXyXoXuX$ = $ $ = $ - - - - & = - - - - - - & ",
"* * = = = - = = * * & & & = ; & & $ $ $ $ & .XpXrXpXiXpXiX'.$ = & C fXfXpXpXpXpXpXiXyXyXuX% = $ $ = = $ = - - & = = - - - - - - "
};
