/* XPM */
static char *enemy21678815392[] = {
/* columns rows colors chars-per-pixel */
"64 64 237 2 ",
"   c None",
".  c #020201",
"X  c #0B0502",
"o  c #0C0C0C",
"O  c #160B02",
"+  c #1B1C1D",
"@  c #171616",
"#  c #151410",
"$  c #230A0D",
"%  c #2B1502",
"&  c #271403",
"*  c #351B05",
"=  c #270B11",
"-  c #271B17",
";  c #33161A",
":  c #2A211A",
">  c #38271B",
",  c #3C220B",
"<  c #1E1E21",
"1  c #231F22",
"2  c #1E2123",
"3  c #1D2825",
"4  c #222324",
"5  c #262729",
"6  c #292A2C",
"7  c #272929",
"8  c #372B25",
"9  c #3A3229",
"0  c #323435",
"q  c #3A3C3C",
"w  c #363938",
"e  c #2A3231",
"r  c #18211E",
"t  c #46260A",
"y  c #5A3314",
"u  c #4F2C16",
"i  c #643A18",
"p  c #432D23",
"a  c #4A3426",
"s  c #49372A",
"d  c #563A2B",
"f  c #473B35",
"g  c #563E33",
"h  c #532F27",
"j  c #683E2C",
"k  c #2C6D1E",
"l  c #2A7727",
"z  c #387627",
"x  c #34762A",
"c  c #397B29",
"v  c #347824",
"b  c #2B7835",
"n  c #347E36",
"m  c #397D30",
"M  c #2A6E23",
"N  c #315937",
"B  c #6F421D",
"V  c #544234",
"C  c #5B4837",
"Z  c #4B4A39",
"A  c #64412C",
"S  c #784A26",
"D  c #674939",
"F  c #68513D",
"G  c #76523C",
"H  c #744C3A",
"J  c #427C28",
"K  c #407E32",
"L  c #4A7D35",
"P  c #516D3A",
"I  c #4A7C1E",
"U  c #3B3F40",
"Y  c #3D4242",
"T  c #3A5C40",
"R  c #367F41",
"E  c #434545",
"W  c #4B4C4C",
"Q  c #474948",
"!  c #4D5152",
"~  c #535555",
"^  c #565A5B",
"/  c #5B5C5C",
"(  c #565857",
")  c #50524A",
"_  c #6A5445",
"`  c #775647",
"'  c #6E534A",
"]  c #577048",
"[  c #706658",
"{  c #5C5F61",
"}  c #5E6262",
"|  c #5E6568",
" . c #636565",
".. c #656A6B",
"X. c #6B6D6C",
"o. c #676767",
"O. c #6D7475",
"+. c #747A7B",
"@. c #757878",
"#. c #747069",
"$. c #8A5A34",
"%. c #8B572F",
"&. c #98643C",
"*. c #8D613A",
"=. c #A3673C",
"-. c #875A46",
";. c #855C54",
":. c #88624C",
">. c #986747",
",. c #896558",
"<. c #956B59",
"1. c #99715C",
"2. c #937253",
"3. c #A66D46",
"4. c #A8744B",
"5. c #AC7B54",
"6. c #A87753",
"7. c #B47D56",
"8. c #B1744E",
"9. c #956C65",
"0. c #997467",
"q. c #8A6F66",
"w. c #B27D68",
"e. c #A87A6B",
"r. c #C17E58",
"t. c #31822B",
"y. c #398332",
"u. c #398438",
"i. c #398C39",
"p. c #358636",
"a. c #358B38",
"s. c #418332",
"d. c #4A8431",
"f. c #428538",
"g. c #49863B",
"h. c #428B39",
"j. c #4A8B3A",
"k. c #4C8A33",
"l. c #588D34",
"z. c #518C3A",
"x. c #518539",
"c. c #49913A",
"v. c #599338",
"b. c #4D8529",
"n. c #629239",
"m. c #388943",
"M. c #388E45",
"N. c #428641",
"B. c #4B8D41",
"V. c #468D46",
"C. c #528E41",
"Z. c #558A44",
"A. c #4B9349",
"S. c #499343",
"D. c #539343",
"F. c #53954A",
"G. c #5B964A",
"H. c #5B9B4C",
"J. c #589846",
"K. c #5C9750",
"L. c #589B53",
"P. c #4F8D53",
"I. c #669847",
"U. c #639C4B",
"Y. c #639B54",
"T. c #66995D",
"R. c #719956",
"E. c #5CA356",
"W. c #58A24C",
"Q. c #67A65A",
"!. c #71A853",
"~. c #73916C",
"^. c #6AAB63",
"/. c #77B368",
"(. c #76AC67",
"). c #5EAB69",
"_. c #B9855B",
"`. c #BA8866",
"'. c #B78977",
"]. c #AD8971",
"[. c #85B06C",
"{. c #81827F",
"}. c #C3885B",
"|. c #C58B65",
" X c #C4936C",
".X c #CB946B",
"XX c #C99367",
"oX c #C68C78",
"OX c #CC9A74",
"+X c #CA9777",
"@X c #D49B77",
"#X c #D4996C",
"$X c #D7A47A",
"%X c #CDA47F",
"&X c #787D80",
"*X c #BF7E81",
"=X c #7C8385",
"-X c #85898A",
";X c #8D9597",
":X c #949A9B",
">X c #898E8F",
",X c #AF978C",
"<X c #969FA1",
"1X c #9DA2A5",
"2X c #9CA6A8",
"3X c #A4AAAB",
"4X c #A9A7A6",
"5X c #ACB3B4",
"6X c #B7BBBB",
"7X c #AFAEAB",
"8X c #B6A097",
"9X c #D79A86",
"0X c #C59788",
"qX c #E19E84",
"wX c #DBAB83",
"eX c #D7A887",
"rX c #D7A896",
"tX c #D2AB8E",
"yX c #E3A989",
"uX c #E4B38A",
"iX c #E4A895",
"pX c #E5B795",
"aX c #E4BBA3",
"sX c #D3B9A6",
"dX c #BDC0BF",
"fX c #EDC09B",
"gX c #F0C7A5",
"hX c #DDC8B6",
"jX c #B6BDC2",
"kX c #BBC4C7",
"lX c #C7C9C9",
"zX c #CACDD1",
"xX c #CED1D4",
"cX c #D6D9D9",
"vX c #D1D1CE",
"bX c #DADFE0",
"nX c #E2E1DF",
/* pixels */
"z.!.!.J Z.^.c K /.m E.i.m F.m L.f.x V.Q.J.m B.Q.A.y.s.u.c.i.F.Q.i.x S.h.D.H.z x k.y.a.p.l Y./.B.j.^.Q.J Z.(.n P ^.g.Y.u.x L.s.F.",
"t.k.Q.j.J Y.(.s.g.c Q.H.L.^.B.C.j.A.h.B.x B.h.c.G.p.s.j.        N.p.z v j.E.S.j.Q.c.i.p.V./.K.c t.j.^.v.m Y.^.Z.x.m ^.F.F.^.B.Z.",
"u.h.J.j.Q.K.Q.f.d.U.(.j.m K m d.Q.J m Q.B.Z.f.y.s.  ` #.[ G F [ X.    j.s.s.f.V.l.y.c.l g.I.x D.u.h.G.j.Q.Y.^.s.k.I.(.B.c f.c d.",
"V.h.u.f.(.g.G.s.G.!.H.t.c m C.Y.E.L N 0 N T.~.] [ _ F F F C D C C F F _ [   k u.s.b.W.c.g.Z.z./.N.f.u.s./.s.Z.K I.Q.G.c s.c z.U.",
"i.l F.A.h.k Q.m U.U.J s.H.Z.C.Z.x P.E + e ! Y 7 8 ' D V F V a s V C C D ' _ [   Q.k.h.W.D.Z.Y.K.u.l F.F.h.k ^.K U.H.c g.L.j.z.J.",
"j.L.Q.s.N.B.^.f.k.k.s.G.F.K s.G.f.) 6 7 e w 6 2 4  .p V V C D V V C C C _ F V _   x l k.J L H.l B.L.Q.u.h.S.^.L x.d.s.F.H.c d.D.",
"I./.Y.v H.Q.S.B.s.c B.L.N.L F./.~.E w Y w 0 5 Y W / p > V F C V V V V a g F _ V D   h.s.L v.V.b I.[.Y.k H.^.A.A.d.m B.L.h.p.F./.",
"n.L l.b.c h.x B.Q.c u.m.u.s.g.F.~.} { } { ! w E  .[ a a V F F s A C V V s a V _ C D   d.Z.^.n m.n.L g.d.m N.x V.Q.y.f.u.u.h.y.i.",
"k.b.b.U.d.d.j.Q.n.m.P.z.l.~.(...| | ^ } O.=X+.| o._ d a F g C V C s > 9 s V C C C >   J u.P.Y.l.k.s.z Q.J b.d.!.l.p.m.n.L ).^.y.",
"l.v.J.I.j.D.k.k.g.] T.E.P.~.| ^ | ^ Y ! O.2X2X=X@._ d V j ` F V s > > V C V s s V 8 9 k.N.n N.J k.J.v.G.G.Z.x.x.f.z.H.^.y.v.Y.S.",
"s.F.F.f.z.j.c.z.] w W O.~.O.O.+.=X&X&X=X2X2X;X=X:X:.D j A A H j F ` G C d u s > V : :   V.m.F.j.f.D.L.c D.c x.B.b b.b.M.l J b.p.",
"x f.h.x D.c k.X.U U 0 { O.O.O.O.=X=X;X2X2X<X=X;X4X6.<.` G G _ j F F F C d a g j s > :   j.g.K.H.x f.B.z G.z h.E.S.s.I h.p.L j.L.",
"p.u.h.u.E.V.L e < 5 2 Y | &XO.&X=X2X5X5X2X=X>X5X6XoXoX'.w.0.:.H >.;.H G D D j h A V 9   t.l.F.u.x f.u.f.L.A.f.A.J.A.S.I.G.m.M./.",
"A.A.s.l L.T.( @ o < @ < U | &X&X<XjXkX2X=X=X3XjX4X9XeXiXiXiXoX<.;.>.<.-.-.H j h a p V p z v.F.p.F.K.m m B.Q.u.x b.p.a.b.n.p.R l.",
"H.v.f.L ] ] Y e U Q W E Y ..=X2XkXxXjX=X&X:X6X3X:XiXyXiXiXiXiX9XoXoX`.w.8.<.-.H d p p 8   n.I.m.Y.G.m m c S.f.f.j.y.h.c C.y.f.c ",
"k.x.P.) 7 r + 3 5 Y { @.+.-X2XkXcXkX<X&X=XjX5X:X-X9XqXyXiXiXaXpXrX9X9XoXw.w.>.;.G A a 8   I.z b g.m D.K.h.x s.E.p.l.R.m.p.L U.P.",
"P.T e @ @ + 3 4 3 5 0 ~ =X<XkXxXkX<X+.=X5XkX<X=X/ 8XyXrXiXiXiXiXiXqXqX9XoX|.6.e.>.` g f 8 K Z.H.m.n A.A.v J.!.j.n m.N.c G.G.J.v ",
"T 3 + 2 3 3 3 e U Y w 6 ( <XlXlX1X+.=X2XkX2X=X{ Z >X,XrXiXiXyXiXqXqX@XoXoXoXw.w.9.-.g d f B./.^.V.n N.F.d.s.l.L V.b c c Z.z.J J.",
"e 2 3 3 2 3 6 6 e U ~ 0 6 ..5X2X=XO.:XkXjX2X~.^ } @.{.>XrXiXiXqXiXqXoX9XoX*Xw.w.1.>.g s f m D.J n Q.^.D.d.j.B.f.x h.^.g.z F.h.^.",
"5 e 5 3 7 q ! } { U Y { 0 0 O.&XO.-X5XkX5X=X| | {./ ' q.,XrXiXiX9X9X@X@X@XoX'.w.9.-.g g f g.x z.b ^.Q.f.D.L.V.u.g.D.G.y.f./.S.V.",
"e 6 5 6 0 w W o.-Xq.Q ~ ~ e E ..=X2XkXkX2X&XT | &XE h $._.].tXtXiX9X9XiX9XoX'.w.1.` C h f Z.Z.[.f.j.z z H.Y.n n J.j.k K C.K.n b ",
"0 0 q w + o o + Q :X>XY { U w ..3XkXkXkX2X&X! !  .8 > S *.&.4.'.iXiXiX*X].0.<.<.<.-.D a f g.Q.H.m B.z.t.j.h.f.u.z z.s.k.s.N.Z.A.",
"q W ) 5 . . . . X Q 5Xo.^ Q w +.kXkXkXkX<X| &X^ E - : t B G &.>.e.0X*XD a s p a a ` A 8 0 B.Y.m u.F.^.Q.z j.H.h.x S.N.v B.(.Q.f.",
"Y o.Q o . . . . . @ -X;X~ Q q +.5XkXjX3X=X&X&XY > ; - & y S *.3.>.e.9.W ` ,.;.` d a ` 9 9 ,.u.N.L.x F.(.D.j.F.c p.p.E.K H.T.m L ",
") X.q . . . . . . o ^ 4X~ Y U +.2X5X=X&X{ &X@.; = ; @ X * y %.>._.6.].0.V F G :.` D :.a p -.m.Y.[.U.z g.x l c Z.U.h.S.t.p.a.l U.",
"~ X.q . . . . . . . W :X^ E U @.<X=XO.Y o.{.) = = ; @ X & y S >.6.`._.].#.7 s A ` H :.C h h I.n k.j.s.u.L.m A.F.D.c x g.E.V.v j.",
"! #.E . . . . . . o ~ -X~ E U +.<X2XO.! ^ Q 8 $ = = o X % y S >._.OX%X%X0X0.` ' ` <.<.C D j Z.b y.D.m.M.^.h.C.J.g.s.K Y.(.x.k.J.",
"Q X./ @ . . . . . + #.X.~ Q Q =X=X=X=X! ! 0 1 $ = ; X X , S %.3.`.eXfXpXpXtXe.1.].e.<._ D ` C.I.f.^.g.P.L.B.z z.S.B.] Q.R.g.F.L.",
"! ~ X.( @ . . . + Q @.! ^ Q Q &X2X2XO.Y Y q 1 = = ; X O u *.4._.OXwXpXpXpXtX'.'.oXw.9.` D 9.^.Y.u.Y.b u.N.f.z z.M.a.l ] A.g.M.n ",
"^ W ( X.X.) Z W } X.{ W { E W &X2X=X^ Q E q ; = = = X & j 6.|.+X$XwXuXuXwXtX9X@XoX'.1.` `   !.n m N.p.m L.m K C.t.a.y.N.n m i.u.",
"O.~ W ~  . . . .{ ( W ~  .Q { ;X<XO.[ <.:._ ; = = o X = %.w.@X@XwXuXwXwXeXpX9XoXw.w.<._ `   l.l D.g.m N.Q.p.h.z.c.s.F.F.y.z h.K.",
"~.} ~ ! ! ~ ) ~ ! W ! / { o.-X<X=XO.6.`.|.5.-.h = X . * $.oX$XwXwXwX$XOXeXaX9XoX`.e.-.D ;.  a.d.I.l.k H.A.h.u.v.R.s.F.A.u.f.d.I.",
"~.X.~ { ^ ^ ^ ^ ~ ^ ~ o...=X1X-X@.]..XXX|.|.r.>.h X X , >.+XyXuXpXuX$X@XtXrX9X0X].0.` a ;.U.j.i.n.K d.d.z J.Y.J j.v k.l i.c.B.S.",
"~.&X{ { ^ { | | { { { X.=X<X:X..#.+X@XOX+XoX|.7.-.; X t 3.@XwXrXpXyXOXtXsX@X0XoXw.:.` a -.j.c S.m h.B.f.h.H.L.h.c.j.Q.h.h.f.h.h.",
"=X-X| { Y ! ^ &XO.{ o.X.>X2X=X! q.+X@XeXrXeXeX X7.h X y 4.+XeXpXiX@XOX0X9X9XoXw.e.,.D p   s.j.H.i.E.F.i.i.S.u.x c.h.J.x B.H.B.u.",
"~.&X{ Y U e Y ^ =X#.O...:X;X/ Q q.'.OX+X%XeXtX@X|.H $ i 7.+XtXaXaX+X0X].;.9.w.w.1._ s   d.g.L.G.y.s.f.u.s.h.h.h.f.y.c.v j.L.K.f.",
"~...! W U 3 3 3  .{.o.{ ;X+.q W {._._.`.oX@XeX+Xw.G $ i _.OXuXaXsXtX,X;.g h <.e.,.V >   z f.z.K k.v z B.k.j.Y.G.l c.H.s.s.u.F.u.",
">X} ! ! 3 3 3 r U &X0 ! -X! 0 } 2.=.3.3.6.`.oX`.8.j % %.}.$XpXfXrXrX].p p p H <.H > -   h.s.d.k.Q.s.j.Q.Z.d.C.d.y.J.H.S.S.h.S.x ",
"~...^ Q o @ @ @ e &XU { O.q Y X.' %.&.&.&.3.8.3.3.%.S $.}.$XpXaXeXrX0Xq.q.d F ` s > -   F.s.g.H.D.f.j.F.f.j.B.j.c.c.p.s.F.Z.F.x ",
"~.o./ ~ r o o @ Y ..! ..~ q !  .Q ` 8.4.=.%.&.3.8.8.8.8.8.}.$XwXtX0Xe.e.9.g C d > - : y.H.s.D.S.x h.h.v u.y.y.y.c.J.y.x y.l j.h.",
"] ) (  .( e 7 Z o.^ ^ O.Q E ~  .X.'.uXwX$XXXXXXX#X}.}.}.=.8.r.XX%X].,.,.;.s > - - @ 6 h.l B.L b b.!.b W.j.t.[.v.n u.V.i.f.b.y.j.",
"P V / o.o.#.X.../ ! O. .W ! ! X.,XpXgXgXfXpXuX$X$X#X}.}.8.=.=.7.].,.F [ g p 8 - - 5   L j.E.p.u.I.l.i.] f.z.b.h.S.u.V.Y.h.g.J.H.",
"[ s V O.&XO... . .@. .9 E ) / q.tXfXgXgXgXgXgXpX$X$X#X#X}.,X].<.,.9.<.` s - - @ -   b g.R.E.y.^.U.t.K.m u.Q.x l.F.x m L.F.y.h.h.",
"R.D * f o.q.-X@.#.Z : # - d 2. XtXtXpXpXgXgXgXfXfXfX$X$X$X`.'.0.0.e.[ ` 9 - - - - u.c k.G.u.M C.v.t.[.u.x [.t.Z.G.s.z f.B.n l p.",
"P.P * * > 8 0 6 9 * O % y *._.XX.X$X%X$XuXuXuXuXpXuX$X$X X,X9.;.,.` V f : - - > g Z.Z.x l H.U.u.J M.(.h.F.[.a.g.Q.(.d.v F.h.p.F.",
"P.] , & & O X X O & % t S _.XXXXXX`.XX.X.XOX%XwXwX$X$X#X|.0X` Q ! f p 8 - - - d ` L G.S.y.(.[.S.m A.C.Z.Q.^.N.x A.Q.h.l E.F.x A.",
"g.P , & % % O X . O & t S _._._._._._._.`..XOX$X#X#X#X}.|.,X) 8 8 - - @ + 8 g H [   Z.F.A.J.G.j.u.C.n d.Q.c.B.M.f.h.u.h.E.B.x i.",
"B.] - & % % O O . . O * B %.=.=.4._._._._.`..XOXXXXXXXXXXX<.0 - @ 1 + - > V D ' ,X3X  c d.h.i.L u.Z.p.z.J.l L ^.L.u.u.F.j.k.j.v.",
"I.P - X O % & O X O O & , i S %.*.&.=.4._._.`.`. XXX#X#XOXC - 1 - @ - p D _ _ ,X3X4X4   z G./.u.v.!.Q.c J.Q.x f./.L Q.N.l L.m H.",
"L Z & . X O & & & % t t u B S $.*.&.3.4._._. XOX%XuXuX$XeX;.' j g j _ H H ` <X6X6X5X@.+   ^.G.d.J z.!.k.m L.^.g.x.m Q.L.F.^.V.g.",
"u.P : . . X O % & t y y B *._._. XOXOX%XtXuXfXfXfXfXfX$XrX9.9.,.,.;.;.;.;.,XkXlX6X6X4X: +   v F.u.N.H.c.Q.K.^.f.x.U.Q.g.m g.c s.",
"h.] 9 O . . X O % , y t B S _.`.$X$XwXuXuXpXpXpXfXuXuX$X,X9.q.q.;.9.,.;.>XzXlXkX6X6X5XW @ 4     V.f.u.f.(.s.F.J I.!.I.m f.J z.I.",
"m.Z.P % O . . O % , , t y %.4.`.OXOXOX%X%X$X$XwXuXuXuXwX].2.9.9.9.q.;.>XxXxXzX6XdXdXdX#.+ + + + -     F.h.k (.c U.I.K j.H.j.j.J.",
"N.G.(.C & O X . O % * * y %.4._._._._.XX XOX%X$XwX$X$XhXdX'.0.q.9.9.,XcXbXcXvXlXdXdX7X1X< + < + + < < 2 4 5   s.d.d.s.F.F.c d.J.",
"G./.U.P V & O O X O % * y S *.4._.4.5._._.XX#X#X#X#XwXnXbXcX5X,X,X6XbXbXbXbXlXlXdXjX7X5X0 @ + < + + + : 4 5 7 5 6     L.N.i.F./.",
"v.b.l.g.P a * * * O O * y B %.&.3.4.4.5._._._._.#X$XgXnXbXzX~.5XjX@.1XbXnXbXlXlXdXjXlXjXW + + < + + + + 4 5 4 4 5 6 7 5 0       ",
"l.s.b.U.n.] , t y u u t y B %.%.S *.&.*.=.4._.}..X9XnXnXjX^ >X5X[ &Xo 4 bXbXzXzXlXdXlXdX/ 1 4 < < @ < < < < 5 5 6 5 6 6 5 6 5 7 ",
"z.D.G.H.  w Z * t y S *.>.6.5.4._._._._._.}.#XXX|.sXnXzX@ < < 5 0 1 @ o @ jXzXzXlXdXvXlX^ - 1 5 < < < < < < 5 5 4 6 5 5 5 5 7 7 ",
"k.  + + - 6 f > % , S >._.XXXX XOX X X XOX$X$XXX+XvXcXo o @ 1 6 0 < 6 { &X&X5XlXlXlXvXvX@.< 1 4 < < < @ o @ 5 6 6 6 6 5 6 6 6 6 ",
"< - < < 1 4 0 f & % B &._.`._.`. XOX X XOX$X$X#XaXcX>X^ < @ 5 6 6 < 3XjXjX1X>XjXlXvXlXzX<X- 1 1 5 5 < < 1 5 6 5 6 5 6 6 6 6 6 7 ",
"< < < < 4 1 5 f 9 % B *.2._.6.4._._.].]. X.X#XrXcXvX@.1XW o 1 6 6 0 zXxXkXzXjX1XdXzXzXdXjX< < 5 < 5 5 5 6 6 6 5 6 6 6 1 7 1 6 6 ",
"4 4 < 4 4 4 5 5 Z > y $.>.4.2.*.&._._._._. XeXhXcX>X4XkX4X@ 1 6 1 ^ xXbXxXxXxXkX4XzXzXdXzX< < < 5 5 5 6 6 6 6 5 6 6 6 0 6 0 6 6 ",
"4 4 5 1 4 6 5 4 7 Z A $.*.*.$.%.*.>.5.`.].2.7XnXjX7XzXcXzXW 1 1 1 ~ bXcXxXcXcXnXcX6XlXjXzX< 5 < < 5 < 6 6 6 6 1 6 6 6 6 6 6 6 6 ",
"4 4 5 5 5 7 5 7 4 6 Z D F F G G :.:.,.[ [ q 3XbXjXcXxXcXxX&X1 1 1 ~ cXbXcXcXbXcXcXxXzXdXzX1 5 < < 5 5 < 6 6 6 1 1 6 6 6 6 6 5 6 "
};
