/* XPM */
static char *isidori_removebg_preview_1_png__1_1677961627[] = {
/* columns rows colors chars-per-pixel */
"64 64 244 2 ",
"   c None",
".  c #151515",
"X  c #1C1C1D",
"o  c #1C1815",
"O  c #0E0F0F",
"+  c #231A16",
"@  c #2A1D14",
"#  c #241D1A",
"$  c #261C18",
"%  c #281812",
"&  c #2D211A",
"*  c #27211A",
"=  c #3B2B1D",
"-  c #35251B",
";  c #1E1E21",
":  c #211F22",
">  c #1F2023",
",  c #222224",
"<  c #262729",
"1  c #29292C",
"2  c #292728",
"3  c #3B2D23",
"4  c #352A25",
"5  c #3D3127",
"6  c #323335",
"7  c #472A1D",
"8  c #5B291D",
"9  c #422D23",
"0  c #4B3324",
"q  c #44342B",
"w  c #4D3A2B",
"e  c #483427",
"r  c #533B2D",
"t  c #573A2A",
"y  c #493A32",
"u  c #563E33",
"i  c #643D30",
"p  c #2C6D1E",
"a  c #37741F",
"s  c #297525",
"d  c #2F772E",
"f  c #277923",
"g  c #317421",
"h  c #387627",
"j  c #34762A",
"k  c #317B28",
"l  c #397B29",
"z  c #3C7A22",
"x  c #2B7835",
"c  c #347E36",
"v  c #397D30",
"b  c #2A6E23",
"n  c #1F7531",
"m  c #554334",
"M  c #5B4434",
"N  c #5C463B",
"B  c #5D4B3A",
"V  c #584638",
"C  c #514133",
"Z  c #634435",
"A  c #644C3C",
"S  c #6B4B3C",
"D  c #694736",
"F  c #734B39",
"G  c #68513D",
"H  c #76523D",
"J  c #62412D",
"K  c #417D29",
"L  c #447925",
"P  c #407E32",
"I  c #4A7F38",
"U  c #4A7C30",
"Y  c #527E38",
"T  c #4A7C1E",
"R  c #367F41",
"E  c #57585A",
"W  c #4D4B4B",
"Q  c #744C42",
"!  c #695445",
"~  c #735343",
"^  c #7B5544",
"/  c #78584B",
"(  c #7B5D53",
")  c #6C4C42",
"_  c #5A7C40",
"`  c #7A6458",
"'  c #6B6353",
"]  c #757678",
"[  c #716966",
"{  c #855A47",
"}  c #845C54",
"|  c #915E54",
" . c #89624D",
".. c #846254",
"X. c #8C635C",
"o. c #8A6757",
"O. c #946C5B",
"+. c #976A58",
"@. c #9A705D",
"#. c #94624E",
"$. c #A96F5A",
"%. c #896863",
"&. c #956C65",
"*. c #9D7463",
"=. c #997568",
"-. c #A77A68",
";. c #B27D68",
":. c #AF7673",
">. c #288332",
",. c #318532",
"<. c #398332",
"1. c #328438",
"2. c #398438",
"3. c #398C39",
"4. c #3C8A35",
"5. c #3D913C",
"6. c #31822B",
"7. c #46842A",
"8. c #548627",
"9. c #418332",
"0. c #4A8431",
"q. c #4C8A33",
"w. c #428538",
"e. c #49863B",
"r. c #428B39",
"t. c #4A8B3A",
"y. c #518539",
"u. c #518C3A",
"i. c #588D34",
"p. c #599338",
"a. c #49913A",
"s. c #629239",
"d. c #2F8441",
"f. c #388943",
"g. c #3B9247",
"h. c #428641",
"j. c #438C40",
"k. c #4B8D41",
"l. c #4B8E49",
"z. c #418D4A",
"x. c #528742",
"c. c #528E41",
"v. c #5B8C43",
"b. c #528E49",
"n. c #5A8641",
"m. c #4B9342",
"M. c #4B9349",
"N. c #439344",
"B. c #539343",
"V. c #5B9442",
"C. c #53954A",
"Z. c #5B964A",
"A. c #549A4C",
"S. c #5B9B4C",
"D. c #599B44",
"F. c #5C9750",
"G. c #529952",
"H. c #5C9D53",
"J. c #529E5B",
"K. c #489252",
"L. c #639C4B",
"P. c #669847",
"I. c #629E55",
"U. c #659853",
"Y. c #759E55",
"T. c #5CA356",
"R. c #58A24C",
"E. c #67A24B",
"W. c #64A354",
"Q. c #63A45B",
"!. c #6AA75C",
"~. c #6BAB5D",
"^. c #69A656",
"/. c #75AA58",
"(. c #78AE57",
"). c #719D61",
"_. c #6CA762",
"`. c #6CAD62",
"'. c #66AD66",
"]. c #77AA64",
"[. c #77B368",
"{. c #74B870",
"}. c #5EAB69",
"|. c #B5826C",
" X c #BA826C",
".X c #AA8373",
"XX c #BB8D7B",
"oX c #B98774",
"OX c #B08572",
"+X c #85B06C",
"@X c #8E956A",
"#X c #CA8E7B",
"$X c #C58B77",
"%X c #C9927C",
"&X c #D3937C",
"*X c #D8977D",
"=X c #C3856E",
"-X c #88C17A",
";X c #777C80",
":X c #BF7E81",
">X c #798286",
",X c #8F8D8F",
"<X c #A79794",
"1X c #B48F82",
"2X c #A6A9AA",
"3X c #BBBDBC",
"4X c #B6B7B7",
"5X c #ADB2B2",
"6X c #9EA0A4",
"7X c #CA9785",
"8X c #D49582",
"9X c #DC9C83",
"0X c #DC9D8A",
"qX c #D59A87",
"wX c #CA8E87",
"eX c #E19E84",
"rX c #DAA18A",
"tX c #DCA493",
"yX c #D9A691",
"uX c #E2A38D",
"iX c #E6A489",
"pX c #E3A492",
"aX c #E4A995",
"sX c #E8AC99",
"dX c #E9B09C",
"fX c #C0B1AF",
"gX c #BDC0BF",
"hX c #B6BCC2",
"jX c #BDC2C2",
"kX c #BCC6CC",
"lX c #C2C4C4",
"zX c #C6CBCC",
"xX c #CBCDCC",
"cX c #C7C9C7",
"vX c #CACDD1",
"bX c #CED1D4",
"nX c #D3D5D5",
"mX c #DADCDC",
"MX c #D5D9D9",
"NX c #CFD1CF",
"BX c #DDE2E2",
"VX c #E2E4E4",
"CX c #E7E9E8",
"ZX c #DADFE0",
/* pixels */
"u.(.E.K v.!.v P [.v H.3.v G.v F.w.j k.!.B.v k.I.M.<.9.2.a.3.A.Q.3.j N.t.B.S.z d 0.<.3.1.s I.{.t.t.~.^.L v._.c _ '.I I.2.d H.P C.",
"6.q.~.u.K U._.w.t.l !.A.G._.k.c.t.M.r.k.j k.r.k.Z.4.9.t.        j.c l g t.T.m.e.^.m.5.c z.[.F.v 6.u.~.v.v I._.x.y.v _.C.C.`.k.b.",
"2.j.B.t.!.F.!.w.0.L.`.k.v 9.v 0.Q.K b A.w.C.w.9.9.  / [ ' H G ` [     t.9.9.w.l.i.<.a.f e.P.h B.2.r.C.t.!.U._.9.0.P.].k.l 9.h 0.",
"j.r.2.w.].e.C.P V.(.S.6.l P c.U.H.g r.[.<.e.A.l G G G G G B B M M G G ! `   p 2.q.7.R.a.e.n.u.[.j.w.2.w.[.9.b.P P.^.S.v 9.l u.E.",
"3.s C.M.r.p !.v L.L.K 9.S.b.c.v.j B.{.H.6.l   G m B B m G C e e C B B B ! ! '   W.q.r.R.c.v.I.F.2.s M.C.w.p !.P L.S.l e.H.t.u.V.",
"k.H.~.w.h.k.`.w.q.q.9.Z.C.P 9.V.l A.T.l T.  C 0 C m = m m M A C C M M B ! A m !   j f q.K U S.s k.H.~.2.r.m.`.I y.0.9.A.A.l 9.B.",
"P.[.U.g S.~.k.k.9.l k.G.h.I C.[.Q.l j     = @ - = 9 = = m G M m m C C 0 C G ! M S   r.9.U v.l.x P.+XU.g F.'.l.l.0.v k.G.j.2.A.[.",
"s.U i.7.l r.j k.^.l 2.f.2.w.P r.-Xd C.  - @ % @ = 0 7 e m G G w J B m m w e C ! V B   9.V._.c f.s.U e.9.v j.j l.W.9.w.2.c r.4.4.",
"i.7.7.L.0.0.t.Q.s.1.z.p.8.'.{.h t.3.C = * % - - 7 7 t 0 G M M m B e - 5 w m V V V =   z 2.K.I.i.q.w.z W.K 8.0./.i.1.d.s.U }.'.K ",
"i.p.V.P.u.B.q.0.9.0.W.H.P c.U.h.q.  5 & @ - = = 7 J t m J H G m e = = m B m w e m = 5 q.h.c h.L q.B.V.Z.B.n.y.y.w.u.S.'.<.p.I.M.",
"9.A.C.9.u.t.t.q.1.8.i.f.x T 8.f.  5 @ @ m 0 0 J H  .D J J J H J G ~ H B t 7 w = C * *   l.f.C.t.w.B.H.l B.v y.k.x 8.8.g.n L 8.d.",
"j w.j.k B.l 0.W.j.0.z 2.f.K t.J.  @ @ C G J {  .O.@.O.^ H H A Z G S S m t 0 C J w = &   t.e.F.S.d w.k.h C.h r.T.N.0.T 3.1.U q.J.",
"c 2.r.2.Q.t.q.B.p.N.a.Z.V.f.z.+X  = = J J J { |.oXXX%XXXOX*. .F #. .H H D D J 0 J C 5   6.i.C.2.j w.2.w.H.l.w.M.D.M.N.V.P.f.g.[.",
"M.M.w.s C.S.t.h p.f.d.i.s.f.1.i.C - C C H +.|.$X*X*XrXiXuXrXoX@. .#.#.{ { F J 8 0 9 C 5 h p.b.1.C.S.v v k.Q.2.j 8.1.f.8.s.1.R i.",
"S.p.w.l v t.w.r.0.2.4.0.9.r.c   5 = w G +.oX*X*X*XiXiXaXaXdXaXqX%X$X X;.$.#.{ F t 7 9 3   s.P.f.U.Z.v v l m.w.w.t.<.r.l c.9.w.l ",
"q.0.t.W.9.v 9.T.3.p.E.g.x 7.Z.  e e G H |.%X*X*X*X*X*XiXpXsXdXdXtXrXqX$X X;.#.#.H J e 3   P.h x e.P c.F.t.k 9.T.1.i.Y.f.1.U P.K.",
"f.x K.u.g p.(.y.s f.h.l Z.V.Z.  m m G o.OX$X*X&X*XeXiXiXsXsXsXsXpX0XeX8X$X=X$.-.#./ u y 4 P x.F.f.c M.M.g V.(.t.c f.h.l Z.V.D.z ",
"z.x w.B.9.P u.0.z.j 2.l c.c.v   A M / o.|.$X*X*X*X*X*XiXuXaXpXpXpXeX8X#X$X=X X;.@.{ m w y k.{.`.z.c h.C.0.9.u.U z.x l l b.u.K B.",
"x H.'.c.9.t.0.w.s r.`.q.g C.h.! B ) / O. X$X&X*X*XeX*XrXuXaXpXeXpXeX&X&X$X=X X;.@.#.u w y v c.L c T.`.B.0.t.k.9.d r.~.e.h C.r.'.",
"j `.W.9.t.H.l.2.t.Z.V.9.9.[.l.! V ~ / O. X=X%X*X*X*XiXuXuXpXpXpX0X0X*X*X&X$XoX;.@.{ u u y e.k u.d `.!.w.c.H.l.2.e.B.Z.9.w.[.l.l.",
"r.k.h h S.S.c c C.k.s 9.k.F.2.W V ! ~ O. X$X%X&X8XrXrXtXpXaXaXaXpX0X0X0X8X%XoX;.@.^ M w y C.b.+Xw.k.h z F.F.c c D.t.p 9.c.F.c x ",
"v t.k.0.e.t.w.3.j M.9.9.P e.B.V 5 m A @.|. XoX|.OX=.XXqXtXaXaXsXsXtXtXwXOX=.O.O.+.{ Z e y e.!.Z.v k.c.<.t.r.w.2.l u.9.q.9.h.b.l.",
"v M.`.W.l e.F.w.c m.k.p u.[.!.  w y S $.|.OXG A y C 9 u O.7XyXtXtX7X:.) q q 9 0 0 / Z 3 6 k.H.v 2.C.`.W.l t.S.r.d m.h.g k.].Q.w.",
"G.j B.`.B.e.S.2.1.2.Q.<.Z.P.P   q 5 G -.|.H / &.&.O.X.{ / -.7XyX7X*.S m / o.} ^ t 0 ~ 5 5 X.2.h.G.j C.].B.t.C.v 1.1.T.P S.U.P I ",
"+XT.f y.h j k y.Q.2.M.c l.c b   5 q ` |.-.O..X|.o...^ | +.-.%XaXwX .^ D u S H  ./ A  .q 9 { f.U.+XL.h t.j f v x.E.r.N.>.,.3.s E.",
"y.r.,.e.U.1.m.V.c.j P c F.G.#X=XM q O.oX.X.X@.S q # 4 Z { O.%XaX%X{ Z u 6 2 q i ^ H  .m t 8 P.c q.t.9.2.G.<.l.C.c.l j w.T.k.z t.",
"L N.j.k._.3.j.P.0.I e.I.).U.$.=X&Xr =.oXXX.X+.S ( W ` X.XXXX%XiX&X+..X&.[ ( / Q H +.O.V Z i v.x <.B.f.z.'.t.c.V.e.P P I.].x.0.Z.",
"I T.d.b.b.3.n v.b.k.P [.U.s.=X$.#XG -.oX7X*X%XXXXXXX7XXX7X&X$X9X&X$.XXOX;.;.-.@..X.XO.) S ^ k.P.w.'.Y K.G.k.h u.m.k._ ).).e.M.H.",
"U G.f v k.1.f y.C.<.b M.w.h.wX#XoX~ -.oX7XrXqX7X7X7XyXyXqX#X$X9X*X$.|.7XwXXXoXXXXX|.@.~ D &.'.U.2.I.x 2.h.w.h u.g.3.s _ l.I g.c ",
"e.3.x j H.c ,.v.6.<.w.2.d r.tXqX=X~ -.OX%X9XeXrXyXaXaXpX9X$X%XiX*X-.;.8X9X0XqX%X$X|.@./ Q   /.c v h.c v H.v P c.,.,.c h.c v 3.1.",
"P.3.,.c.Y.c <.v.r.<.W.k.c w.  0XXXo.-.;.#XqX0XpXaXpXsXaX9X$X&XaXrX|.;.#X0X0X8X#X X;.+.) ^   i.s B.e.v h.Q.2.r.u.t.9.C.A.<.h r.S.",
"P.w.p U.l.1.<.P.(.h S.b.u.v P 8X8XO.&.-.#XqXeXpXsXsXdXdX%X#X*XyXrX XOX7X0XpXqX#X X-. .A }   3.7.P.i.p S.l.r.2.B.Y.K C.M.2.9.0.P.",
"v.K c.t.b c.].h 9.2.m.j e.h.w.7X8X-.o.=.XX7X0XtXsXdXpXtX#X;.;.tX7X$.-.%X0XqXqXwXOX*./ 0 ..W.t.4.V.P 0.0.h B.I.K t.k t.f r.m.k.m.",
"2.r.C.j.w.Z.T.t.r.u.H.w.c.k.c   wXXX) O.:.wXwXtXtXtXqXtX=X{ | *.{ J F $XqX8XwX$X;. .~ 0 { e.l m.v r.k.w.r.S.H.r.a.t.W.r.r.w.w.r.",
"2.T.M.r.M.r.f c B.t.c.l C.H.k.  wX%Xr / -.XXwXqXwXqXqXqX-.{ } ^ D t S #.%X%X$XoX-...A 9   9.t.S.4.T.A.3.5.m.2.j a.r.D.v m.A.k.2.",
"v 4.2.l h.r.v m.v w.e.g h.F.C.r.  XX0 m ...X1X7XwXwX;.H { H i t r A F F { O.|.:.@.~ q   0.e.H.Z.<.9.9.2.9.r.r.r.9.9.r.g t.H.F.w.",
"e.h v e.e.b.S.F.g c.H.P w.c h.w.3.I.4 - ) =.oX7X1XO.S Z H { ^ i i i D i u t +.-.o.m -   h w.u.P t.g h k.q.e.U.S.s m.S.9.9.2.C.2.",
"~.e.x.F.t.x.Z.I 0.S.Z.w.C.h.m.j N.e.4 & r ~ =.XXOXM 7 7 i } &.:.:.| Q 7 7 7 H O.F - @   r.9.0.q.~.9.u.^.x.0.c.0.<.D.S.m.m.w.k.k ",
"B.9.t.C.w.t.b.9.c.B.v l F.m.M.g 1.y.4 @ 7 S / =.*.J i -.:.:XwX:.:X:X:.%.%.r G / w - @   A.9.t.Z.c.w.e.C.h.t.k.t.a.a.4.9.C.x.C.j ",
"2.<.2.w.<.<.2.2.e.v.9.h 2.s j.N.w./.  $ - w A ~ o.! *.wXwX1XwXwX:X:.-.-.&.M m r - @ @ <.A.9.B.m.k r.r.k <.<.<.<.a.B.<.j <.s k.r.",
"p.L.e.B.t.9.L.i.3.j h.C.v l u.e.V.e.<.* $ = w u ) ) .X1XXX=.&...Q ..X.X.} r - & % o 1 r.f x.I x 7.Y.x G.t.6.+Xp.c 2.z.r.w.7.9.t.",
"V.q.K w.r.t.Z.s.C.2.k.H.C.e.B.H.u.w.f   X & 3 3 3 r X.-.*.+.S w 0 i S ` u 9 4 + % <   I t.T.1.2.P.i.3._ w.q.8.t.M.2.j.H.r.e.D.S.",
"^.c.Z.P P C.K e.k.K v C.S.w.v k.V.t.<.m.  o $ 4 @ e u :.&.=./ S / &.O.( q $ $ o #   x e.).R.,._.E.6.F.v 2.I.k i.C.j v H.C.<.r.r.",
"e.9.'.w.w.`.9.S.V.e.g P M.2.b 1.n.<.r.W.  - o # % 4 W ( ..o..X&.=.=.` / 3 $ $ + % 2.v 0.Z.2.b c.p.6.+X2.v +X>.v.Z.9.h w.m.c s c ",
"c w.].e.b.{.I k.~.^.0.g k.j.2.M.u.h f T.  ~ & o + : 9 u N ' X.} ../ C y & # $ - u x.v.k f S.L.2.K g.].r.G.+X3.e.!.].0.g C.r.c A.",
"h.l.H.9.S.`.v b S.W.k.l A.C.w.e.V.p.f k   } } w $ $ $ 4 y C u W W y 5 4 # # & u / Y Z.5.2.].+Xm.v M.x.x.Q._.h.j M.`.r.s T.A.d M.",
"2.e.z 4.U.B.h.M.2.h.w.r.F.k.v w.V.~.<.p   ( | } y o X + # 2 4 4 4 & * o o 4 u F `   c.C.M.B.Z.t.3.c.c 0.I.m.t.N.w.j.2.r.T.m.h 4.",
"j.S.z u.D.p r.{.G.h.c r.B.t.0.Z.h B.l 9.  <X+.| } 0 & + + # # # o X o + - M D Q <X2X  h y.r.3.Y 3.n.1.u.V.f U '.J.c 2.C.t.0.t.p.",
"p.(.^.L t.Y.v w.[.v I.l 2.M.e.S.r.j m.~.6XgX1X&.X.} D u 4 $ $ : # o @ e Z G ! <X2X2X,   j Z.[.4.p./.^.z B.Q.l w.[.I Q.h.s G.P S.",
"K t.~.t.v H.`.h.Z.P `.C.G.I.e.w.9.m.w.  5XcXnXfX&.&.| } } Q Q i u Z S F Q ^ 6X3X4X5X] X   `.Z.0.K u.(.q.v H._.e.y.v !.G.C.`.l.e.",
"2.w.B.t.Q.H.!.e.K v.].e.9.w.<.u.W.<.  1 3XcXMXBXhX=.%.X.%.X.&.X.X.} } ( } <XkXjXgX4X2X* X   g C.2.h.C.r.Q.H._.w.y.L.!.e.v e.z 9.",
"j.w.2.r.[.0.C.P P./.I.P l K u.P.T.h X 6 gXcXnXmXZXvX%.| %.X.%.%.} X.X.| ,XxXzXjX3X3X5XW . ,     j.h.2.w.].9.C.K P./.V.P 9.K u.L.",
"f.g M.A.h.p !.v L.E.w.e.S.B.u.p.h . X , lXzXbXZXVXZXbX2X&.&.&.&.&.%.X.,XbXnXzXjXgX3X3X[ X X X X #     C.r.p `.P L.P.P t.S.t.t.D.",
"j.F.`.0.k.k._.P K w.l A.C.e.0.L.X X X X 3XxXNXmXVXVXVXZXhX:X=.=.=.&.<XnXmXmXNXjXgXgX5X6X; X X X X ; ; > , <   9.0.0.9.A.C.l 9.V.",
"Z.[.L.a S.~.k.h.t.<.h.      : , > ; X ; ] xXNXMXBXCXVXVXZXMX5X<X<X4XmXZXBXZXxXlXgXgX5X5X6 . X X X X X * , 2 2 < 1     G.h.3.C.[.",
"p.7.i.9.L e.j k.    ; , ; ; , , ; ; X > W cXNXMXZXCXCXCXBXvX;X5X3X] 2XMXBXZXxXlXgXhXkXjXW X X X X X X X , 2 , , < 1 2 2 6       ",
"i.9.7.L.0.K     X , , ; ; ; 2 , ; ; X ; , hXxXnXmXVXCXCXhXE ,X5X' ;XO > ZXZXvXcXlXlXcXlXE : , ; ; . ; ; ; > < < 1 < 1 1 < 1 2 1 ",
"u.V.Z.S.  X X , X , , ; ; , < ; ; ; ; X ; lXvXnXnXVXCXzX. ; ; < 6 1 . O . hXNXzXcXlXxXxXE X , < ; ; ; ; ; ; < < , 1 < < < 2 2 2 ",
"q.  X X * ; , ; , , ; ; , < , , ; ; X ; ; ,XvXMXnXmXMXO O . , < 6 ; 1 E ;X;X4XcXcXcXNXxX] ; : , ; > ; O O . < 1 1 1 1 < 1 1 1 1 ",
"; # ; ; ; , , , 2 , , , < , , , ; X ; ; , y nXMXmXmX,XE ; . < 1 1 ; 2XkXhX6X,X3XcXxXxXxX6X# : , < < > > > < 1 < 1 1 1 1 1 1 1 2 ",
"; ; ; ; , , , < , , > ; ; > > > ; X ; X , 6 nXmXmXxX] 6XW O : 1 1 6 vXbXkXvXhX6XlXxXvXlXhX; ; < > < < < 1 < 1 < 1 1 1 1 1 < 1 1 ",
": , ; , , , < , , < ; . O O O X > ; ; ; X 2 NXVXmX,X2XkX2X. , 1 : E bXmXbXbXbXkX2XvXvX3XxX; : ; < < < 1 1 1 1 < 1 1 1 6 1 6 1 1 ",
", , < , , 1 < , < , , ; X X > ; , > ; X * , 3XmXkX5XvXMXzXW : : ; E mXmXnXMXMXZXnX4XcXhXvX: < ; ; < ; 1 1 1 1 > 1 1 1 1 1 1 1 < ",
", , < < < 1 < < , , > ; > < < > > ; ; X ; > 2XMXhXMXbXMXbX;X; , ; E mXZXMXMXmXMXMXnXxXlXxX# < ; ; < < ; < 1 1 > < 1 1 1 1 1 < < "
};
