/* XPM */
static char *oie_rSYptBU62u0Z_removebg_preview_1_png__1_1678028074[] = {
/* columns rows colors chars-per-pixel */
"64 64 238 2 ",
"   c black",
".  c #0B0B0B",
"X  c #0E0F11",
"o  c #0E1011",
"O  c #1C1F20",
"+  c #172829",
"@  c #193434",
"#  c #143A39",
"$  c #232628",
"%  c #24292B",
"&  c #362D2A",
"*  c #292E31",
"=  c #451A02",
"-  c #561D02",
";  c #4E2918",
":  c #742A03",
">  c #762B04",
",  c #7D320C",
"<  c #733014",
"1  c #462C23",
"2  c #4E2F22",
"3  c #563726",
"4  c #6C3B24",
"5  c #2B6D1E",
"6  c #1F7531",
"7  c #2D6D24",
"8  c #297524",
"9  c #267A25",
"0  c #2F772E",
"q  c #317421",
"w  c #387627",
"e  c #3C7A22",
"r  c #34772B",
"t  c #317B28",
"y  c #397B29",
"u  c #2C7734",
"i  c #287C34",
"p  c #347E35",
"a  c #397D30",
"s  c #467A1E",
"d  c #68493A",
"f  c #447926",
"g  c #417D29",
"h  c #407E32",
"j  c #4A7C30",
"k  c #4A7F38",
"l  c #527E38",
"z  c #2E3E42",
"x  c #154C4C",
"c  c #295454",
"v  c #367F41",
"b  c #287272",
"n  c #575855",
"m  c #596E50",
"M  c #6A6359",
"N  c #436667",
"B  c #4B6467",
"V  c #546B6C",
"C  c #477679",
"Z  c #567276",
"A  c #56747B",
"S  c #697171",
"D  c #84350D",
"F  c #873A15",
"G  c #8E3914",
"H  c #8B3C24",
"J  c #8E4217",
"K  c #8D411D",
"L  c #93431C",
"P  c #994419",
"I  c #9D481C",
"U  c #A24A1C",
"Y  c #A84C1E",
"T  c #884528",
"R  c #964926",
"E  c #9D4924",
"W  c #975434",
"Q  c #A24B25",
"!  c #AD4F20",
"~  c #AE5225",
"^  c #A4512A",
"/  c #AE552D",
"(  c #B85827",
")  c #A35331",
"_  c #A95A35",
"`  c #AD5C39",
"'  c #BA5E36",
"]  c #B9623B",
"[  c #B5723F",
"{  c #C25E2B",
"}  c #CB642E",
"|  c #C56538",
" . c #D26B34",
".. c #DC6E35",
"X. c #D26F3D",
"o. c #D6703D",
"O. c #DC723D",
"+. c #EC793D",
"@. c #94634A",
"#. c #A76648",
"$. c #BC6A47",
"%. c #AE7354",
"&. c #B97356",
"*. c #B67B64",
"=. c #C36A42",
"-. c #C86C44",
";. c #D76F41",
":. c #C97147",
">. c #D47243",
",. c #DE7643",
"<. c #C97954",
"1. c #E17540",
"2. c #EC7C42",
"3. c #F47E41",
"4. c #29822A",
"5. c #35822B",
"6. c #2A8732",
"7. c #318532",
"8. c #398332",
"9. c #3B8B35",
"0. c #328438",
"q. c #398438",
"w. c #398C39",
"e. c #3E913C",
"r. c #47832A",
"t. c #548627",
"y. c #418332",
"u. c #4A8431",
"i. c #4C8A33",
"p. c #428538",
"a. c #49863B",
"s. c #428B39",
"d. c #4A8B3A",
"f. c #588C33",
"g. c #518539",
"h. c #518C3A",
"j. c #49913A",
"k. c #599339",
"l. c #628C37",
"z. c #629539",
"x. c #2F8441",
"c. c #378943",
"v. c #3D914C",
"b. c #428640",
"n. c #438C40",
"m. c #4B8D41",
"M. c #418D4A",
"N. c #4B8E49",
"B. c #528742",
"V. c #5A8641",
"C. c #528E41",
"Z. c #5B8C44",
"A. c #528E49",
"S. c #429241",
"D. c #4B9342",
"F. c #47974A",
"G. c #4B9349",
"H. c #539343",
"J. c #5B9442",
"K. c #5A9B44",
"L. c #53954A",
"P. c #5B964A",
"I. c #549A4C",
"U. c #5B9B4C",
"Y. c #499652",
"T. c #5C9750",
"R. c #529952",
"E. c #5C9D53",
"W. c #529E5B",
"Q. c #659747",
"!. c #6F974F",
"~. c #639C4B",
"^. c #679853",
"/. c #629E55",
"(. c #58A24C",
"). c #5CA254",
"_. c #5AA558",
"`. c #66A24B",
"'. c #64A354",
"]. c #63A45B",
"[. c #6AA75C",
"{. c #6AA95A",
"}. c #77AC55",
"|. c #75AB59",
" X c #71926A",
".X c #6CA762",
"XX c #69AD64",
"oX c #77AB65",
"OX c #68B46D",
"+X c #79B467",
"@X c #74B169",
"#X c #7EBC74",
"$X c #84A757",
"%X c #B6846E",
"&X c #84A665",
"*X c #87B76F",
"=X c #DD945A",
"-X c #FD8244",
";X c #FD9653",
":X c #FAA25C",
">X c #ECB26B",
",X c #88C17A",
"<X c #FDC877",
"1X c #FDCC7A",
"2X c #557C82",
"3X c #3E8A8A",
"4X c #2D9292",
"5X c #309C9C",
"6X c #3B9E9F",
"7X c #3B9FA0",
"8X c #38A6A7",
"9X c #35B1B1",
"0X c #578288",
"qX c #4F9396",
"wX c #6C8E8F",
"eX c #6D949C",
"rX c #6C97A0",
"tX c #6A9CA4",
"yX c #4AA7A9",
"uX c #4ABBBD",
"iX c #53B0B2",
"pX c #67A5AC",
"aX c #68A5AC",
"sX c #67A8AF",
"dX c #65ADB3",
"fX c #63B5BA",
"gX c #57BDC0",
"hX c #61BCC1",
"jX c #4DC4C5",
"kX c #5CC5C9",
"lX c #5DCACE",
"zX c #5BCDD1",
"xX c #49D4D4",
"cX c #47DBDB",
"vX c #58D7DA",
"bX c #4EE9E9",
"nX c #4DFBFC",
"mX c #AA9A93",
/* pixels */
"h.}.`.g Z.[.y h +Xa E.w.p R.a T.p.r m.[.H.a m./.G.8.p.p m.q.L.].q.p S.d.H.U.y 0 u.8.e.7.r E.#Xs.i.[.'.f Z..Xp m OXy./.q.0 T.a.L.",
"5.i.{.H.a ^.XXa.i.y [.I.I..Xm.C.d.G.s.m.r m.s.m.K.s.y.d.~.d.u.e b.r y t d.E.D.a.'.D.s.7.M.@X^.a 5.d.[.Z.h E..XB.g.5.XXL.L.XXm.B.",
"q.n.H.d.^.).[.p.u.~.[.m.y y.a u.].y 8 I.p.L.p.y.y.r.H.J.~.y r.j _.0.s.d.y.9.p.N.h.9.D.8 a.Q.w H.q.n.L.d.[.^..Xy.u.Q..Xm.y y.w u.",
"n.s.q.p.oXa.L.h J.oXU.5.y y.C.^.T.q s.@X8.a.I.y y y C.D.L.0X4X4X4X4Xb F ( $.J Q W r.(.j.a.Z.a.+XS.p.q.p.+Xy.A.a Q.}.P.g p.y d.`.",
"w.8 I.G.s.7 [.h Q.~.h y.U.A.C.Z.r H.#XE.a r P.a S.7.# 4Xb 9XbXzXlXkX X..;X=XU X.) T w.(.C.Z.].P.q.8 F.L.p.5 [.h ~.P.y d.E.d.h.J.",
"m.E.{.p.b.d.XXp.i.i.y.P.L.h y.J.y I.).r E.y.a.P.# 5X7XfXfXhXgXdXwXd  .;X:X:.I o./ P ] u.g j P.8 m.E.{.q.s.D.XXk g.u.y.I.I.y r.H.",
"Q.&X'.q U.[.D.m.y.y N.R.b.h L.+X].y 0 m.@Xd.x b uXbXfXrXrXwXyXiXd +.-X>X;X| I O./ ~ >.T j Z.m.u Q.&X~.r T.XXN.N.u.a m.R.n.q.I.@X",
"l.r.f.8.y s.r m.{.y q.c.q.p.h s.,Xt L.*Xh.x nXlXeXeXvXtX0XN . . - -X;X$. .=.I O./ ~ >.F # .Xq.c.l.j h.p.a n.r N.'.y.p.q.q.s.9.9.",
"k.r.r.~.u.u.d.].z.p M.k.t.XXOXw p.w.B.i.c jXvXaXrXrXC v.+ O & & F -X;X$. .-.U O./ ! >.T pXx _.k.i.8.e '.f g.r.|.f.0.c.k.r.OXXXf ",
"f.k.k.Q.k.H.i.u.y.u.'.E.y.C.^.m.l d.6.c yXtXrXlXC z + O % * * ; ..-X;X[  .;.U O./ ! >.F : iXb y i.H.J.P.H.Z.g.g.p.h.~.].8.H.E.N.",
"p.I.L.y.h.d.d.i.0.t.f.c.p f t.c.Y.oXx uXtXrXeXC + + * * * * * ; ..-X>XR  .;.U O./ ! ,.G : eXuXc p.H.E.y H.g g.m.i t.t.v.6 f t.x.",
"r p.b.t H.y u.'.s.a.s q.q.y a.W.6 N.x nXkXrX2Xo * * * * * * 2 ( -X-X>XR  .>.U X.) ! O.L +.d nXb r p.m.r L.w s./.S.u.f w.0.j i.W.",
"p q.w.q.].d.i.H.k.F.j.Q.J.x.M.&X!.2XcXtXkX2X+ * * * * * * * 2 ' -X-X>XR  .>.U X.) ! 1.L -X4 tXzXc s.q.p.E.N.p.F.K.G.M.J.Q.c.v.oX",
"G.G.p.r L.U.d.w f.c.x.f.z.v.0.k.eX7XzXeXrX% % * * * * * * * 2 { -X-X>XR  .;.U X.) ! 1.L -X4 rXhX4XA a y m.].q.t f.0.0.f.z.0.x.f.",
"U.J.y.y a d.p.s.u.8.8.y.y.s.p w qXgXrXeX2X$ * * * * * * * & T O.-X:X=XE  .;.I o./ ! O.L -XT S rXbXc h a y m.p.p.i.8.h y C.p.a.y ",
"i.u.i.'.y.a 8._.w.k.`.v.i j k.wX7XkXkXfXz $ * * * * * * * 1 ~ -X-X1X:.E  .X.I O./ ~ O.P -X_ M lXzXqXC.T.d.t y.).0.f.}.c.0.f Q.Y.",
"c.i F.C.q k.|.f.8 c.b.y P.J.P.N jXsXgXqX+ % * * * * * * * 1 ~ -X-X1X-.E  .=.I O./ ! O.L 3.' M fXpXuXx L.q J.|.i.p x.a.y P.J.Q.e ",
"M.u p.H.h h h.u.v.r 8.y C.C.h N uXpXeXn O * * * * * * * * 1 ~ -X-X1X=.E  .| I O./ ! 1.L 3.' ; Z eXuXx L.u.y.h.u.M.u 8.w C.d.8.H.",
"u E.XXC.y.d.a.p.8 s.XXi.q L.b.N gXpXwXN O * * * * * * * * 1 ~ -X+.>X] T  .=.P X./ ! ,.L -X| = B eXuXc m.u.a.m.p.r s..Xa.w L.s.XX",
"t .X'.8.d.T.N.q.d.P.J.y.y.+X  xXhXdXqXX * * * * * * * * * 1 ~ +.U J J D ( / P X.) ! >.L 3._ = C dXfX8X@ h.E.N.q.d.L.P.y.a.+Xm.M.",
"s.m.w w U.P.p p L.d.q y.m.T.  cXzXkXyXX * * * * * * * * % 1 ~ ! ..1.1.| ~ ! G Q F ! >.K 3.` = 3XkXvX8X@ P.T.q.p K.a.5 p.B.T.p u ",
"a d.m.u.a.d.p.w.r G.p.y.h m.  xXsXeX2XX * * * * * * * * * 1 ~ ( ..$.&.%X:.-. . .~ , F , 3._ = B eXpX6X@ a.s.p.q.y H.g u.8.a.A.N.",
"a G.XX'.y a.T.p.p D.m.7 h.@X  xXsXrXA X * * * * * * * * * 1 / -XG : F $.$.mX&.$.>.-X-XJ : : = N eXaX6X@ y d.U.s.p D.s.q C.+X].b.",
"R.t H.XXH.d.P.q.0.0.].a P.Q.  cXhXdXqXX * * * * * * * * * 1 / -X-XR , : : ) ` %.%X$.&.1.2.O.D S dXhX8X@ H.a.L.a w.i ).8.P.^.a k ",
"*X).q B.f t t g.].q.G.p N.p   cXvXvXiXX * * * * * * * * * 1 ~ -X-X<X] D P > : , R ) %.&.$.*.~ wXzXvX8X@ t q a a.~.d.S.6.6.w.q `.",
"g.p.7.u./.7.D.J.C.r h p T.R.  xXdXtX2XX * * * * * * * * * 1 ~ -X-X1X=.E  .^ F I > > F W R *.Q S rXsX7X@ R.0.G.L.H.y t p.E.m.y d.",
"f S.S.m..Xc.s.Q.u.k a./..XQ.  xXsXeX2XX * * * * * * * * * 1 ~ -X-X1X-.E  .=.I | L L J : : R < V eXpX7X@ XXd.B.J.p.h h /.oXB.u.P.",
"k _.x.A.N.c.9 Z.H.B.h @X].m.  xXdXrX2XX * * * * * * * * * 1 ~ -X-X1X>.R  .| I o.) ! | D ' : = V tXdX7X@ R.m.f h.D.d.m |. Xk F.E.",
"j Y.9 a m.0.8 B.L.q.8 G.p.b.  cXvXvXyXX * * * * * * * * * 1 / -X-X1X:.R  .| I X.) ~ >.K -XR = 3XvXvX8X@ b.p.w h.j.w.9 m L.h M.7.",
"g.w.i r /.p 7.Z.5.a p.q.t s.  xXhXsX2XX * * * * * * * * * 1 / -X-X1X#.4  .$.I O./ ~ X.K -X` = V aXfX8X@ /.a h C.6.5.7.b.p a s.7.",
"Q.w.0.B./.a 9.Z.s.8.'.m.p p.  xXsXeX2XX * * * * * * * * * 1 / 3.-X1Xn S :.$.I ,./ Y >.K -X_ = B eXaX6X@ ].p s.C.d.y.L.I.q.r s.U.",
"Q.s.5 ^.B.0.8.Q.|.q U.A.B.a   xXaXeXA X * * * * * * * * * 1 ~ 3.-X1XV S $.| I o./ ~ >.K -X] = B eXaX7X@ N.s.0.C.|.g H.G.q.p.u.Q.",
"Z.h C.a.5 C.oXw y.q.D.y a.m.  cXvXzXuXo * * * * * * * * * 1 / -X-X1X@.d [ X.I O./ ! 1.L 3.| = 3XvXvX8X# y H./.g d.t d.q w.D.m.D.",
"q.s.L.s.p.P.E.d.s.C.E.y.d.m.  xXfXpX0Xo * * * * * * * * * 1 ( -X-X1X#.3  .>.I O./ ! 1.L 3.' = V pXdX7X# s.U.E.s.j.i.'.s.s.s.p.s.",
"q.).G.s.G.s.9 p H.a.m.r L.E.  xXsXeXA o * * * * * * * * * 1 ~ -X+.1X#.3  .;.U X.) ! O.L -X] = B eXaX7X@ s.D.0.t D.s.K.y D.I.m.p ",
"a 9.q.a n.s.a D.a p.d.7 m.T.  xXsXeXA o * * * * * * * * * 1 ( -X-X1X#.3  .;.U X.) ! 1.R -X` = B eXaX7X@ y.s.s.s.p.y.w.q d.E.T.p.",
"d.r w a.a.C.T.E.q C.E.h p.p   cXcXvXyXo * * * * * * * * * 1 ~ -X-X1X#.3  .;.U o./ ! >.G 3.] = 4XlXvX8X@ u.b.^.P.8 D.U.y.p.8.L.q.",
"[.a.B.^.d.B.P.k u.P.P.p.L.b.  cXlXfXtXo * * * * * * * * * 1 / -X-X1X@.3  .>.U O./ ! >.T 3.| = 2XhXkXyX@ B.u.C.u.8.K.U.j.D.p.m.y ",
"H.8.d.L.p.d.A.h H.H.a y P.D.  xXsXeXZ X * * * * * * * * * 1 ( -X-X1XM M -.X.U O./ ! ;.L 3.| = B eXaX7X@ m.d.m.d.j.D.s.y.L.a.L.0 ",
"q.8.q.p.8.8.q.q.d.Z.y.w q.8   xXsXeXA X * * * * * * * * * 1 ~ -X3.1Xn S :.-.I O./ ! 1.H 3.| = B eXaX7X@ 0.a 8.8.j.H.q.t 8.r m.s.",
"k.~.a.H.d.y.`.f.w.r s.L.a w   cXfXpX0XX * * * * * * * * * 1 ~ -X3.1XM S :.=.P O./ Y 1.L -X| = N aXfX7X@ C.4.$Xk.u q.M.s.p.g y.i.",
"J.i.a a.s.d.P.z.L.q.m.E.L.a.  cXnXnXcXX * * * * * * * * * 1 / -X-X1X@.3  .-.I X.) ~ O.L 3.` = 8XnXnX9X@ p.s.f.d.G.q.n.E.n.d.K.U.",
"'.C.Q.a h L.g a.a.h a L.T.p.  xXsXeXA o * * * * * * * * * 1 ~ -X3.1X=.Q  .| I X.) ! ,.K 3.` = B eXaX6X@ p ^.t k.L.r g E.L.q.w.s.",
"a.y.XXp.p.XXy.U.J.a.e h F.q.  xXsXeXA o * * * * * * * * * 1 ~ -X3.1X-.E  .>.U X.) ~ >.K 3.F - S eXaX6X@ q.&X4.Z.P.y.w p.D.q.8 p ",
"q.p.@Xi.A.*Xp.m.[.{.y.q N.n.  xXaXeXA X * * * * * * * * * 1 ~ -X3.1X:.E  .;.U >.) Y ( > G O.~ 4 wXsX7X@ R.&Xw.p.[.oXy.q L.s.p L.",
"b.N.E.y.P.XXa 7 U.'.m.y I.L.  cXbXbXjXX * * * * * * * * * 2 ~ -X3.1X>.T  .] P ( D D ( 1.2.:.$.F fXbX9X@ ].oXn.0 L.XXs.t ).I.r G.",
"q.a.e y.^.H.b.G.p B.p.s.U.m.  xXfXtX0XX * * * * * * * * * 1 ~ -X-X1X=.K ( U P ( O.,.<.<.$.%XW T wXdX6X@ /.D.d.s.p.s.q.s.).D.w 9.",
"b.I.w h.K.5 s.OXR.n.p s.H.d.  xXsXrXA X * * * * * * * * * 1 ~ -X} $.Q ( ( X.>.<.*.=.&.W R R - S eXpX6X@ J.9 j OXW.p q.L.d.p.a.k.",
"k.+X'.s d.^.8.p.+Xr /.y q.G.  xXsXeXA X * * * * * * * * * 1 ~  .{ { | >.>.%X$.&.#.L L , : : = B eXsX6X@ C.].a p.@Xa.].b.8 R.h P.",
"g i.{.d.h U..Xm.P.h XXL.R./.  cXvXvXyXX * * * * * * * * * 1 ~ ~ ..>.<.*.$.%.R J , > > , } E = 3XzXvX8X@ g E..Xa.g.g [.R.P.XXm.a.",
"8.b.H.d.].E.{.a.g Z.oXa.y.p.  xXhXfXqXX * * * * * * * * * 1 ~ (  .` #.W F F > D , P ' G 3.' - C fXhX8X@ ].E..Xy.g.~.[.b.a a.e p.",
"s.p.q.s.+Xa.L.h Q.oX~.h y h   xXsXrXA X * * * * * * * * * 1 ~ 3.( D , > F , G | Q ~ 1.R 3.' = B eXaX6X@ oXy.L.h Q.|.J.h y.y h.~.",
"c.w G.I.B.5 [.a ~.`.y.m.U.H.  xXsXeXA X * * * * * * * * * 1 ~ -X-XF , >  .| E O./ ! 1.L 3.` = B eXsX6X@ s.5 .Xh ~.Q.y.d.U.d.i.K.",
"b.E.{.a.m.m..Xh g y.a I.L.d.* yX0XA N X % % % % % % % % % 1 / -X-X1X>.R  .;.I O./ ! 1.L 3.` - c Z 2X3Xp.a.d..X8.u.u.y.I.L.y y.P.",
"K.+X~.q U.[.m.b.d.8.b.).q.h d.oX.Xo r A.@Xb.p.R.y s.).y.g 3 / -X3.1X:.E  .;.U X.) ! ,.L 3.H ; i K.+X~.q T.[.m.B.h y D.R.b.q.L.+X",
"k.r.f.y.w d.r m.).7.9 M.u n.y.h.*Xr A.#Xm.q.L.q.f.J.~.r.k.Q.~ -X-X1X:.E  .;.U X.) Q ;.F G @Xq.x.k.r.l.y.h d.r s.].y.q.q.q.n.s.8.",
"k.u.r.~.u.g g.!.z.p c.f.t.OXOX7 m.w.g.l 6.F.&XZ.u.s.q.M.H.d./ -X3.1X:.E X.X.U X.) ! ] f q.N.T.t.h.y.r.~.j j u.|.Q.t e.Z.g._.OXg ",
"h.J.L.U.H.J.d.u.s.i.'.).p.H.[.n.g.d.6.6.Q.oXZ.r H.L.p 8 y.K.~ -X-X1X=.E  .$.P  .) < r.d.b.v a.f d.H.U.U.k.k.g.g.s.d.'.).p.H.[.D.",
"u.P.U.y.d.d.a.C.i f t.c.0 f t.x.F.&X.X6.j m.6.Z.|.H.0.b.U.d.~ -X-X1X=.R  .=.G / E.h.i.U.N.h B.i.9.I.U.y.m.a.d.B.4.j g.w.9 j g.w.",
"r p.b.t G.a s.].S.f.r.w.c.g u.W.9 Z.oXB.b.R.w.&X`.h r ).'.e ~ -X3.1X$.R  .Q T M.|.d.j.).B.b./.T.t s.b.w A.a p./.D.i.u.a q.y d.R.",
"r a.p.q._.m.s.L.Q.F.S.Q.Z.q.M.oX!.9 w.p.B.oXP.w.f 8.s.q.y.u.~ -X-X1X$.R P D B.0.k.r.w.j.h g.H.p.y p.s.q.].m.p.L.U.D.D.~.Q.q.b.+X",
"A.L.w.r I.T.B.r t.x.i l.z.c.x.f.*Xw.C.V.7.m.l 9 f.J.a.8 u.K./ +.+.>X_ H A.@XA.8 l.8.c.i w Z.C.q.L.L.p.r I.T.b.y g.5.4.Z.Z.0.6.Z.",
"^.P.h r 8.m.a.u.i.8.8.y.d.m.p.y 7.a !.&X).7.t h.{.H.q.m.~.k.a.^ E _ H L.[.].q.p z.d.c.i u.Q.L.c.E.P.h a y.m.p.s.r.q.p.p.d.n.p.r ",
"a.p.p.].p.p h /.w.z.Q.M.i f.J.M.m.l 7 F.&XB.4.D.k.y t L.K.f w R.~.s.t D.P.f a E.l.9.v.0.~.!.w i m.h u.'.a.y y.'.5.Q.^.s.9 k Z.S."
};
