/* XPM */
static char *oie_3w2n4AGzvVGA_removebg_preview_1_png1678028074[] = {
/* columns rows colors chars-per-pixel */
"64 64 239 2 ",
"   c #0F1110",
".  c #141717",
"X  c #2F160A",
"o  c #361604",
"O  c #3A1A08",
"+  c #2E251C",
"@  c #3A2314",
"#  c #36281B",
"$  c #0E2C2C",
"%  c #133736",
"&  c #242424",
"*  c #2C2C2C",
"=  c #37362E",
"-  c #4C1D03",
";  c #5D2303",
":  c #59260B",
">  c #432818",
",  c #512611",
"<  c #662704",
"1  c #762C06",
"2  c #792E06",
"3  c #7E330D",
"4  c #692D12",
"5  c #763314",
"6  c #793212",
"7  c #43372B",
"8  c #2A6D1E",
"9  c #37741F",
"0  c #2D6D24",
"q  c #277724",
"w  c #2F772E",
"e  c #357621",
"r  c #387627",
"t  c #34772B",
"y  c #317B28",
"u  c #397B29",
"i  c #2B7935",
"p  c #347E35",
"a  c #397D30",
"s  c #4A7C1E",
"d  c #4B473B",
"f  c #754D39",
"g  c #447926",
"h  c #417D29",
"j  c #407E32",
"k  c #4A7C30",
"l  c #4A7F38",
"z  c #527F39",
"x  c #174B4B",
"c  c #1A5252",
"v  c #2C4F50",
"b  c #3C4E53",
"n  c #375558",
"m  c #276868",
"M  c #34686A",
"N  c #307879",
"B  c #4D5250",
"V  c #655A4F",
"C  c #755544",
"Z  c #5A7C40",
"A  c #75655A",
"S  c #475D62",
"D  c #496368",
"F  c #486468",
"G  c #536669",
"H  c #4A7075",
"J  c #56757A",
"K  c #67736A",
"L  c #71706C",
"P  c #82340D",
"I  c #87390F",
"U  c #823712",
"Y  c #853912",
"T  c #8B3C14",
"R  c #893E1A",
"E  c #913F15",
"W  c #8E421D",
"Q  c #964318",
"!  c #94441C",
"~  c #9C471B",
"^  c #A2491D",
"/  c #AA4E1F",
"(  c #944723",
")  c #974A24",
"_  c #9D4B23",
"`  c #934E2E",
"'  c #9A4C29",
"]  c #914F31",
"[  c #9A5737",
"{  c #A44C22",
"}  c #A6522A",
"|  c #B95A29",
" . c #A35432",
".. c #A95935",
"X. c #AE5D3A",
"o. c #B55B34",
"O. c #B55F3A",
"+. c #A4603C",
"@. c #B6623B",
"#. c #BB613A",
"$. c #C15E2E",
"%. c #C2602D",
"&. c #CA632E",
"*. c #C46231",
"=. c #C76537",
"-. c #D46B34",
";. c #DD6F36",
":. c #D36E3C",
">. c #DD7036",
",. c #DB713C",
"<. c #E0743F",
"1. c #E7783E",
"2. c #8D5C45",
"3. c #92644E",
"4. c #B66442",
"5. c #BB6642",
"6. c #BC6846",
"7. c #B26A4C",
"8. c #AE6C51",
"9. c #B37C65",
"0. c #C36B45",
"q. c #CC6D45",
"w. c #C16C48",
"e. c #D26F45",
"r. c #D37246",
"t. c #DC7443",
"y. c #D7794C",
"u. c #C87855",
"i. c #E37744",
"p. c #E47842",
"a. c #EB7C42",
"s. c #308630",
"d. c #318532",
"f. c #398332",
"g. c #378836",
"h. c #398438",
"j. c #398C39",
"k. c #548727",
"l. c #418332",
"z. c #4A8431",
"x. c #478A32",
"c. c #4C8A33",
"v. c #428538",
"b. c #49863B",
"n. c #428B39",
"m. c #4A8B3A",
"M. c #588C32",
"N. c #518539",
"B. c #518C3A",
"V. c #599339",
"C. c #628C37",
"Z. c #629539",
"A. c #2F8441",
"S. c #388943",
"D. c #3D914C",
"F. c #428641",
"G. c #438C40",
"H. c #4B8D41",
"J. c #468E49",
"K. c #528742",
"L. c #528E41",
"P. c #5B8C44",
"I. c #528E49",
"U. c #439344",
"Y. c #4B9342",
"T. c #4B9349",
"R. c #539343",
"E. c #5B9442",
"W. c #599B44",
"Q. c #53954A",
"!. c #5B964A",
"~. c #549A4C",
"^. c #5B9B4C",
"/. c #489853",
"(. c #5C9750",
"). c #529952",
"_. c #5C9D53",
"`. c #529E5B",
"'. c #669747",
"]. c #639C4B",
"[. c #6F9A4E",
"{. c #679954",
"}. c #629E55",
"|. c #58A24C",
" X c #5CA356",
".X c #67A24B",
"XX c #66A659",
"oX c #6AA75C",
"OX c #77AC55",
"+X c #75AA58",
"@X c #6BA264",
"#X c #6AAB63",
"$X c #73B26B",
"%X c #77B368",
"&X c #BB866F",
"*X c #87AC66",
"=X c #D78157",
"-X c #CF8968",
";X c #88C17A",
":X c #547D83",
">X c #3A8788",
",X c #3B8F91",
"<X c #3A9798",
"1X c #38A4A5",
"2X c #39AAA9",
"3X c #448C8C",
"4X c #4B8F92",
"5X c #6A8786",
"6X c #62938A",
"7X c #688C94",
"8X c #6A949B",
"9X c #6D959D",
"0X c #639EA5",
"qX c #6B9BA2",
"wX c #54AAAD",
"eX c #4AB7B9",
"rX c #58B3B7",
"tX c #5CB9BE",
"yX c #66A5AC",
"uX c #68A3AA",
"iX c #66ACB2",
"pX c #63B3B8",
"aX c #63B4B9",
"sX c #5CBDC2",
"dX c #60BDC2",
"fX c #3FD8D8",
"gX c #5BC5C9",
"hX c #5DC5C9",
"jX c #4ACFD0",
"kX c #58CED1",
"lX c #58D4D7",
"zX c #55DBDD",
"xX c #60C0C4",
"cX c #56DEE0",
"vX c #4CE8E9",
"bX c #54E4E6",
"nX c #52ECED",
"mX c #4FF5F5",
"MX c #50F2F3",
/* pixels */
"B.OX.Xg P.oXu j %Xa _.j.p Q.a (.v.t H.oXR.a H.XXU.f.v.p b.a Q.XXh.p U.m.R.!.u t c.f.j.s.p _.%XH.c.oXXXg P.#Xp Z #Xh.}.h.w _.j Q.",
"s.c.oXB.j {.#Xv.N.u oX^.).#XH.L.b.T.n.H.t H.b.H.!.n.l.c.x % % % % $ % % m._.Y.F.XXm.n.s.F.$X(.f.f.m.oXV.j }.#XZ N.a #XQ.Q.#XH.L.",
"h.G.W.m.{._.oXv.z.].#Xm.u l.j z.XXa 0 ~.l.Q.v.l.l.$ $ $ MXMXMXMXMXMXMXfXm $ % Q.M.f.m.s.b.'.r R.h.G.~.b.oX{.#Xl.z.!.#XH.u v.r z.",
"G.n.h.v.%Xb.Q.j E.+X^.s.u f.L.{.|.e n.$Xf.F.^.$ x vXnXMXbXyX9X9X8XqXiXzXmXMXcXm $ f.|.n.b.P.N.%XU.v.h.v.%Xj I.j '.+X'.j v.u N..X",
"j.q Q.T.n.8 oXa '.].j l.^.I.L.P.t R.%X).y $ m vXzX8X9X9XqXnXuX9XqXyXkXaXqXqXqXkXMXm $ |.L.P.XX^.h.q T.~.v.8 oXa ].!.u b._.m.B.E.",
"H._.oXv.G.m.#Xv.c.c.l.^.Q.j l.E.u ~. Xn >XjXzXzXiX8X9X9X8XjX4XJ :X4XwXiX8X8XqXiXzXzXzXN n k !.q H._.oXh.n.Y.#Xl N.z.v.~.Q.u l.R.",
"'.%X{.e ^.oXY.H.l.u H.).F.j Q.%X Xa <XjXgXyXuXiXkXyXJ J G = + + + + = S :X:X0XgXaXuXuXsXfX<XJ i '.*X].t (.#XT.I.z.u H.).G.g.~.%X",
"C.k M.l.u n.t H.XXu h.S.h.v.j b.;X4XjXkXrX0X8X8X4XeX+ & # : < ; < < : > # = >X4X7X9X9XpXzXjX4XH C.k b.l.a G.t J.XXv.v.h.s.n.x.g.",
"M.k.z.].z.z.b.XXZ.h.J.V.k.#X$Xu ,XwXwXaXsXyX5XH = = < ; < T U U P U P < ; : 7 = D J 0XhXiXyXeX4Xn l.9 XXg N.z.+XM.d.S.V.k.#X#Xu ",
"M.V.V.'.B.R.c.z.l.z.XX^.u L.}.,XwX0XqXqXwX3X= # ; ; P I 2 :.O... ... .T I Y < ; > = ,XyXqX9XuXrX>Xv V.!.R.P.N.N.n.N.^.oXh.R. XJ.",
"h.~.Q.f.B.m.m.c.s.k.M.D.i s M eXpXqX9X7XD d - ; 6 Y ..o.P a.q.6.6.6.X.( | $.! U < ; = G 7XqX9XaXhXm _.u R.u N.H.i k.k.S.i g k.A.",
"t v.G.y R.u z.XXS.z.g h.S.v >XjXhXuX7XG 7 4 Y W ....5.q.3 a.0.6.6.5.X.{ *.t.=.o.W T < # G 7XuXdXjX,Xn t Q.u n.}.U.z.g j.d.k m.`.",
"p h.j.h.XXb.c.R.V.U.U.Z.P.m eXiXdXwXJ 7 ; T &.=.6.6.0.e.P a.0.6.6.6.X._ *.e.q.0.#.o.I ; > G rXaXrXeX>Xf._.J.v.T.!.T.U.E.E.S.J.%X",
"T.T.v.t ~.^.m.r V.S.A.M.Z.N hXqX0X:X7 : 2 ~ p.e.0.4.q.q.P a.q.6.6.6.X._ *.r.0.e.e.e.T I < # 4XqX8XgX<XF H. Xh.y M.s.A.M.Z.A.p M.",
"^.E.l.u u m.v.n.z.f.f.l.m eXyXqX8XS > 5 ( ^ p.e.q.6.e.#.U a.q.w.0.0.X._ *.r.0.e.e.e.T %.E o S 7X8XuXeX<Xa H.v.v.c.g.m.a B.l.F.u ",
"c.z.c.XXv.u h. Xj.Z.'.D.m lXuXqXG = ; R ' { i.q.e.6.e.4.6 a.q.q.e.0.X._ *.r.0.0.e.q.U >.~ < # J 9XuXsX1XB y l.|.g.M.[.A.h.g {./.",
"A.i U.L.e V.+XM.q S.G.x hXsXbXhXF # 5 .. .{ t.q.q.6.e.4.U a.q.q.e.0.X._ *.r.6.q.e.0.U ;.=.Y X S tXbXhXrX<XE.+Xc.i S.F.u !.E.!.u ",
"J.i F.R.j j N.z.J.t g.x zXqXyXH = < R O. .{ t.q.e.e.e.4.P a.q.q.q.0.X._ *.r.6.6.q.w.U ;.q.R < X M uXqXpX1X* B.l J.i u u L.B.l.V.",
"i _.oXL.l.m.b.v.0 n.#Xx zX9X9XF @ 5 X.6. .{ t.0.w.e.w.4.3 a.q.q.e.0.X._ *.e.6.0.q.0.U ;.q.5.R X b 9XqXrX1X* H.v.w n.oXb.r Q.n.#X",
"y #XXXf.m._.T.h.m.!.E.x lX9X9XD @ 5 O.6. .{ ,.0.6.r.6.4.P a.q.q.e.0.X._ *.r.4.0.q.e.U ;.q.6.Y o b 9XqXrX1X= T.h.b.Q.!.l.v.$XH.J.",
"n.H.r r ^.(.p p Q.H.m jXuX8XG = ; W X.6...{ <.0.6.r.6.4.P a.q.q.0.0.O._ *.e.6.6.q.e.Y ;.q.6.R < @ S 9XqXrXwXa i R.c.8 l.L.{.p i ",
"a m.m.z.b.c.v.j.w T.c MXbXnX<X# W =.0.6. .{ ,.0.6.6.6.4.P a.r.q.0.q.O._ *.e.6.6.q.e.Y ;.q.6.O.R O N bXnXvX1X& g.u R.l.l.l.F.L.J.",
"a T.#XXXu m.(.v.p Y.c bXpXpXH # ~ :.w.6. .{ <.0.6.6.6.4.3 a.r.0.0.0.O.{ *.e.6.6.q.e.Y ;.q.6.6.W O n pXpXjX2X& n.p Y.G.e K.#XXXS.",
").w R.#XR.b.!.h.s.g.c zX9X9XD # Q :.=.4. .^ ,.6.4.4.4.O.P 1.r.5.5.0.o.) *.q.4.4.#.0.P -.0.5.4.W o b 9XqXtX2X& u g.p  Xl.'.{.j l ",
"*X Xq L.g w y N.XXh.c cX9X9XA 4 I ~ ~ ! W T / Q ! ~ ! ! P / { ~ ! ! Q T Q ^ ! ! ! _ P ^ ~ ! ! Y 4 V 8X8XtX2X& b.^.m.U.s.s.j.e .X",
"N.n.s.z.}.d.m.E.L.t c cXqX5X2.| $.%.#.=.%.#.%.%.%.#.%.#.%.%.%.%.*.*.*.*.*.%.%.*.*.*.$.$.$.*.$.*.| [ K yXhX2X& Q.R.u t v._.J.u b.",
"g U.U.H.#XS.G.'.z.l c nXkX5X} i.r.y.=X=Xy.r.y.r.u.-X,.y.r.r.r.y.-Xu.r.r.r.e.r.-Xu.y.e.e.r.-Xu.r.y.} K hXlX2X& !.b.l.a {.#XK.z.!.",
"l  XA.I.I.S.q P.R.F.c nXxX6X[ r.5.4.8.8.4.4.@.@.7.&X@.@.4.4.@.7.8.8.4.5.4.4.4.9.7.4.4.4.4.9.8.5.X.` K hXkX2X& B.m.Y.Z @X@Xl U. X",
"k /.q a H.h.q N.~.f.c zX9X5X3.' ) ( ) ( ( ( ( ( ( ( ( ( ( ( ( ( ( ( ( ( ( ( ( ( ( ( ( W ( ( ( ( ( C @XqXtX2X& B.U.j.q Z I.l J.s.",
"z j.i t XXi d.P.u f.c zX9X9XG , < 1 1 1 1 1 2 1 1 1 1 1 1 1 2 2 1 2 1 1 1 1 1 1 1 1 1 1 2 1 2 1 - B 8XqXtX2X& H.d.d.i F.p j h.s.",
"'.j.s.K.{.p j.P.n.h.c cXqXqXD @ I { ' ' W W / { ` ' ' ' 1 | / ' ' ' ) T ~ } ' ' ' ' P { { { ' U X S qXqXsX2X& R.m.v.!.~.f.t n.^.",
"'.b.q ].K.d.f.'.+Xe c nXhXkX3X# ~ :.q.6. .{ 1.r.0.5.6.4.3 =X<.=.4.0.#.{ *.e.6.6.6.0.P e.e.e.0.R o M hXlXlX2X& R.[.h R.T.h.v.z.'.",
"P.j L.v.0 L.+Xu l.f.c nXhXhX>X# E :.0.6. .^ <.e.e.6.6.4.U a.r.q.6.0.O.{ &.r.6.6.4.6.U ;.e.e.q.W o M dXsXlX2X& u m.t m.q l.Y.H.Y.",
"p n.~.m.v.(. Xm.m.R.c lX7X8XF @ ~ e.4.2.' { <.0.e.6.6.4.U a.e.q.0.0.#.{ *.e.6.6.6.6.U ,.i.e.e.! o b qXqXtX2X& j.m.c.XXn.n.n.v.n.",
"h. XT.n.T.v.q p R.m.c zX9X9XF @ ~ @.3.L C { <.0.e.0.6.4.P a.q.q.0.q.#.{ *.r.6.w.6.6.U ;.i.0.q.! X B 9XqXtX2X& y Y.n.W.f.Y.~.H.f.",
"a l.f.p G.n.a Y.a v.c lX9X9XF @ ~ ..L L d ( t.0.0.e.6.4.P i.q.q.q.q.O.{ *.e.6.q.w.6.U ;.i.w.q.! o b 9XqXtX2X& G.l.l.j.e m._.(.v.",
"m.t a b.b.I.!.}.e H.c MXlXkX,X# ~ @.3.A f _ <.0.0.e.q.4.P a.q.w.e.q.O._ *.r.6.q.0.6.U ;.i.0.q.! o M lXlXcX2X& (.e Y.!.l.v.f.Q.h.",
"#Xc.K.(.m.K.!.l z.!.c nXxXxX:X+ ~ :.3.C ] { <.0.6.0.e.6.P a.q.6.q.e.O.{ *.e.6.q.0.6.U ;.i.q.e.! X M dXdXlX2X& z.f.W.^.Y.Y.v.H.y ",
"R.l.m.Q.v.m.I.j L.R.c zXqXqXF @ ~ :.3.C ` { t.0.6.6.e.4.P i.q.6.q.e.O._ *.r.6.q.w.6.U ;.i.e.q.! o b qXqXsX2X& b.m.Y.j.f.Q.b.Q.t ",
"h.f.h.v.f.f.h.h.m.P.c zX9X9XF @ ~ >.3.C ` { t.w.6.0.e.4.P i.q.0.q.e.O._ *.e.6.q.0.6.U ,.e.e.0.W o b 9XqXsX2X& a m.R.f.t f.t H.n.",
"V.].b.R.m.l.].M.j.t c zX9X9XD @ ~ :.3.C ] { <.w.6.6.e.5.P a.0.0.q.q.O._ *.r.0.0.0.5.U ;.q.q.0.W o b 9XqXtX2X& V.p g.J.n.h.u l.c.",
"E.c.a b.n.m.^.V.Q.h.c nXhXhX>X@ ~ :.3.C ] { <.0.6.6.0.q.P a.0.w.e.e.O.{ *.e.0.e.q.w.U ;.q.e.q.( o M dXhXkX2X& c.T.h.G._.H.m.W.^.",
"XXB.!.j l.Q.h b.m.j c nXlXlX,X# ~ =.3.A f ~ <.0.6.6.5.q.P a.0.6.q.e.O._ *.r.q.r.e.0.U ;.q.q.e.! o M zXlXcX2X& V.Q.t u _.Q.h.n.n.",
"b.l.#Xv.v.#Xc.!.'.c.c zX9X9XF # ! +.L L d ( t.0.6.5.5.e.P a.q.0.q.e.O._ *.e.q.e.e.w.U ;.q.e.e.R o b 8XqXtX2X& P.^.f.u v.Y.a q h.",
"a l.$Xb.I.%Xb.H.oXXXc zX9X9XD @ ! X.3.L f ~ p.0.6.6.6.q.6 a.q.w.q.q.O._ *.r.q.q.e.0.U ;.q.e.0.W o b qXqXsX2X& v.oX%Xf.e Q.G.p Q.",
"F.T.^.l.!.#Xu 0 !.XXc zXqX9XD @ ~ :.8.2.[ { p.0.4.6.6.e.P a.q.4.6.6.X._ =.r.q.0.q.w.U ;.q.q.w.W o b qXqXsX2X& w Q.#Xn.y  XQ.t T.",
"h.K.e z.}.R.J.T.h.G.c nXpXpXN # ~ :.0.6. .{ ,.0.6.6.4.e.3 a.0.6.6.6..._ &.i.q.w.q.0.U ;.q.6.6.W o n pXpXhX2X& U.l.G.f.n. XB.t j.",
"G.~.t V.E.0 j.$X).m.c MXbXbX<X# ~ :.0.6. .{ <.0.6.6.6.q.3 a.q.6.6.6.X.' &.i.w.w.q.0.U ;.q.6.6.W o N bXbXvX2X& #X`.p g.Q.m.l.m.V.",
"V.%X.Xg b.oXa l.%Xt c zX9X9XS @ Q :.0.6. ./ <.0.6.6.0.q.P a.q.6.6.6.X._ &.i.0.0.0.e.I i.e.6.6.W o b 8X9XtX2X& v.%Xl XXF.q ).j !.",
"h c.oXm.u _.#XK.!.j c zX9X9XG , Q | .. .( Q | .. . .o. .2 &... . . .' E } *.o... .o.P | o. . .Y - S 9XqXtX2X& b.N.u oX).Q.#XH.b.",
"h.v.R.m.XX^.oXb.h '.c zX9X5XA ( ~ ^ ^ ^ ~ ~ ^ ^ ~ ^ ^ ~ ~ ^ ^ ~ ~ ^ ~ ^ ^ ^ ~ ~ ^ ^ _ ^ ~ ~ ^ ~ Q 2.5XqXtX2X& l.N.].oXb.u b.u l.",
"n.v.h.n.%Xb.Q.j '.+Xc bXpX5X .i.<.i.y.=Xt.t.,.t.t.=Xi.,.t.t.t.y.y.y.t.i.t.i.y.y.y.,.t.t.t.y.y.t.t. .K pXkX2X& j '.+XE.j l.j B.].",
"S.t T.~.b.0 oXa ].].c MXkX6X} i.q.0.u.9.w.0.0.0.0.&X0.0.0.0.0.w.-Xu.w.w.0.0.0.&Xu.0.0.0.0.&Xu.0.6.) K kXzX2X& j ].'.a m.^.m.c.W.",
"G.(.oXb.H.H.#Xj h z.c cXuX5X[ o. . .[ .. .}  .[ ..3. . . . . . .[ [  . . . . ...[  . . . .[ [  .[ ] L yXgX2X& l.z.z.l.~.Q.u l.!.",
"!.%X^.e ^.XXH.F.m.h.c zX9X7XA 5 3 3 3 3 6 3 3 3 6 6 P 3 3 3 3 3 3 3 6 3 3 3 3 3 3 P 3 3 3 3 3 3 4 V 7XqXsX2X& b.a u Y.).G.h.Q.%X",
"V.k.M.f.g m.t H.|.f.c zX9XqXG # 2 T Q W P P Q Y T E T T 1 E T T T T U P I Q T T T I 1 E W Y Y 3 O B 8XqXtX2X& j.XXv.h.h.h.H.n.f.",
"V.z.l.].z.h N.[.Z.p c bXpXpXH # W %.=.#.' ~ -.O.X.=.O.X.3 -.#.@.O.O. .Q | =.O.O.#.O.U &.#.O.O.R X n pXpXkX2X& +X'.t j.P.N. X$Xu ",
"N.E.E.^.R.E.m.z.n.m.c nXkXlX3X# ~ :.e.0. ./ ,.0.6.e.6.4.3 a.q.0.e.e.O._ *.e.0.q.q.0.U ;.q.4.6.W o M lXlXzX2X& N.g.m.XX Xz.R.oXU.",
"z.!.^.v.m.m.v.L.i g c bXyXuXH @ ~ :.q.q.o.{ ,.0.0.q.6.4.3 a.q.q.0.q.O._ *.r.0.q.q.0.U ;.q.6.6.W o n uXiXsX2X& K.s.k N.j.q g N.j.",
"u v.v.t T.p b.XXU.c.c zX9X9XD @ ~ :.q.q.o.^ i.0.q.0.4.4.U a.q.q.0.q.O.{ *.r.6.0.w.6.U ;.q.6.6.W o n 8XqXsX2X& {.m.c.z.f.v.f.m.).",
"a v.v.h. XH.n.Q.E.T.c zX9X8XD @ ~ :.0.0.o.{ t.q.q.6.4.4.3 a.t.q.w.q.*.{ *.r.4.w.4.6.U ;.q.6.6.R o b 9XqXsX2X& Q.~.m.Y.].'.h.G.%X",
"I.Q.h.t ~.(.F.a k.h.m jX7X7XB @ ! =.6.5.) ~ ,.=.5.4.4.4.3 i.r.5.4.4.o.~ | q.4.4.4.4.6 -.q.4.4.R o b 7X7XrX2XS.t N.s.s.P.(.s.i P.",
"}.!.j t f.H.b.z.c.f.f.. . . .   O 4 6 6 , > 4 3 6 6 6 5 X 6 6 6 6 6 4 > : 5 6 6 6 6 X 4 6 6 6 @     . . . = b.v.z.f.l.l.m.G.v.t ",
"N.j h.#Xv.a f.{.S.Z.].D.i k.E.D.K.z q T.*XK.s.Y.V.u y Q.E.g r ).].b.y T.!.g u _.C.g.S.A.].[.h i H.j l.XXm.a f..Xs.'.{.n.q b.P.U."
};
