/* XPM */
static char *oie_wWAs3yMzOFJF_1_png1677876650[] = {
/* columns rows colors chars-per-pixel */
"64 64 248 2 ",
"   c #010101",
".  c #0B0601",
"X  c #090A0A",
"o  c #150B01",
"O  c #0A130A",
"+  c #1B1300",
"@  c #1B1409",
"#  c #171718",
"$  c #2C1505",
"%  c #092501",
"&  c #3A2604",
"*  c #292215",
"=  c #352815",
"-  c #1F2324",
";  c #242626",
":  c #2D2D2B",
">  c #2F312E",
",  c #333637",
"<  c #3A3A3A",
"1  c #4D0B00",
"2  c #721200",
"3  c #462B03",
"4  c #4B3304",
"5  c #513401",
"6  c #593A05",
"7  c #553B17",
"8  c #6D3705",
"9  c #0C4B0F",
"0  c #2E5A18",
"q  c #0F6619",
"w  c #026C1C",
"e  c #18671A",
"r  c #03701E",
"t  c #2C6D1E",
"y  c #0E4F27",
"u  c #146F2D",
"i  c #027422",
"p  c #027926",
"a  c #057C29",
"s  c #2E6B26",
"d  c #297524",
"f  c #277A25",
"g  c #2F772E",
"h  c #317421",
"j  c #387627",
"k  c #3C7A22",
"l  c #34772B",
"z  c #317B28",
"x  c #397B29",
"c  c #2B7635",
"v  c #287C34",
"b  c #347E35",
"n  c #397D30",
"m  c #52470B",
"M  c #6B4607",
"N  c #784B05",
"B  c #665207",
"V  c #775619",
"C  c #48741E",
"Z  c #755927",
"A  c #487825",
"S  c #41762A",
"D  c #417D29",
"F  c #567626",
"G  c #407E32",
"H  c #4A7B30",
"J  c #4A7F38",
"K  c #537D36",
"L  c #6A6920",
"P  c #3C4245",
"I  c #317442",
"U  c #414141",
"Y  c #424946",
"T  c #494949",
"R  c #495254",
"E  c #557843",
"W  c #575F61",
"Q  c #5C6A70",
"!  c #6C7679",
"~  c #851500",
"^  c #9B2F07",
"/  c #AF3C09",
"(  c #895802",
")  c #92550F",
"_  c #B74811",
"`  c #AD5010",
"'  c #93650D",
"]  c #A56907",
"[  c #B1700F",
"{  c #B67919",
"}  c #825E28",
"|  c #8F6B2B",
" . c #B07725",
".. c #C24D15",
"X. c #CA5517",
"o. c #D15C15",
"O. c #C86F16",
"+. c #DA6715",
"@. c #D87619",
"#. c #E27313",
"$. c #CD7323",
"%. c #8F7C56",
"&. c #02832C",
"*. c #08812D",
"=. c #098531",
"-. c #068932",
";. c #0A8C36",
":. c #0C8F38",
">. c #188A36",
",. c #0F913B",
"<. c #11953F",
"1. c #19913C",
"2. c #28822B",
"3. c #278936",
"4. c #318532",
"5. c #398332",
"6. c #368B35",
"7. c #3A8B35",
"8. c #328438",
"9. c #398438",
"0. c #398C39",
"q. c #47832A",
"w. c #548627",
"e. c #418332",
"r. c #4A8431",
"t. c #438D34",
"y. c #4C8A33",
"u. c #428538",
"i. c #49863B",
"p. c #428B39",
"a. c #4A8B3A",
"s. c #588C33",
"d. c #518539",
"f. c #518C3A",
"g. c #49913A",
"h. c #599338",
"j. c #678932",
"k. c #629539",
"l. c #2F8441",
"z. c #368844",
"x. c #3A8C40",
"c. c #3D914C",
"v. c #398051",
"b. c #428641",
"n. c #438C40",
"m. c #4B8D41",
"M. c #418D4A",
"N. c #4B8E49",
"B. c #528742",
"V. c #5A8641",
"C. c #528E41",
"Z. c #5B8C44",
"A. c #528E49",
"S. c #449445",
"D. c #4B9342",
"F. c #4B9349",
"G. c #539343",
"H. c #5B9442",
"J. c #5A9B44",
"K. c #53954A",
"L. c #5B964A",
"P. c #549A4C",
"I. c #5B9B4C",
"U. c #489552",
"Y. c #5C9750",
"T. c #529952",
"R. c #5C9D53",
"E. c #529E5B",
"W. c #669747",
"Q. c #6F974F",
"!. c #639C4B",
"~. c #679853",
"^. c #629E55",
"/. c #58A24C",
"(. c #5CA254",
"). c #5AA558",
"_. c #66A24B",
"`. c #68A657",
"'. c #63A45B",
"]. c #6AA75C",
"[. c #77AC55",
"{. c #75AB59",
"}. c #509361",
"|. c #5E8F76",
" X c #6D9567",
".X c #5EAB69",
"XX c #6CA762",
"oX c #65AD66",
"OX c #6CAD62",
"+X c #78AA65",
"@X c #69B46C",
"#X c #77B368",
"$X c #7EBB73",
"%X c #9F9001",
"&X c #BB8405",
"*X c #BB8328",
"=X c #BC8C39",
"-X c #C88502",
";X c #D08701",
":X c #D58C00",
">X c #D89702",
",X c #E29C01",
"<X c #D9A803",
"1X c #EAA802",
"2X c #E8B803",
"3X c #F4B402",
"4X c #F6BB02",
"5X c #F2B40C",
"6X c #CB8B2C",
"7X c #C99335",
"8X c #F9C702",
"9X c #FBD802",
"0X c #FFE602",
"qX c #AC884A",
"wX c #999763",
"eX c #84A766",
"rX c #89B771",
"tX c #CD9B43",
"yX c #D69947",
"uX c #D7A44A",
"iX c #DBAB54",
"pX c #D4AC5C",
"aX c #E2B35C",
"sX c #DAA865",
"dX c #E5BA68",
"fX c #E6C378",
"gX c #768B8D",
"hX c #8F908E",
"jX c #909090",
"kX c #9AA294",
"lX c #95A7AA",
"zX c #A8B2B1",
"xX c #ECD18C",
"cX c #F1DB9B",
"vX c #F1DDA0",
"bX c #F5E3A8",
"nX c #B2BDC2",
"mX c #BAC7C6",
"MX c #C6CACA",
"NX c #C7CFD1",
"BX c #C7D0D1",
"VX c #CDD5D5",
"CX c #D4DADA",
"ZX c #D8DDE1",
"AX c #DEE1E1",
"SX c #E5E6E6",
"DX c #EAECED",
"FX c #FAFBFB",
/* pixels */
"f.[._.D Z.].x J #Xn (.0.z T.n Y.u.l a.].K.x m.^.F.5.u.b i.9.K.'.9.b n.a.G.I.x l r.5.0.8.l R.$X0.y.]._.S A.XXb E #XG ^.9.g R.J F.",
"5.y.].f.n ~.XXu.y.x ].P.T.XXm.C.i.F.p.m.x m.p.m.L.7.e.a.!.i.r.k n.l x h a.R.D.b.`.D.0.4.M.#XY.n 5.a.].Z.J R.XXb.d.n XXK.K.OXm.C.",
"9.p.G.g.~.^.].u.r.^.].a.n e.n r.'.n t P.e.K.u.e.5.q.H.H.!.e.q.q.).5.p.p.e.e.u.N.s.5.g.f i.W.l h.9.p.P.a.].~.XXe.r.W.OXm.n e.l r.",
"n.p.9.u.#Xi.K.G H.{.I.5.x e.C.~.R.h p.#X5.b.I.x x x C.D.K.n d.I.R.8.a.`.L.z s 9.r.q./.g.i.V.d.$XS.u.9.u.#Xe.A.D W.[.L.G e.x d._.",
"0.g P.F.p.h ].n W.!.G u.I.A.C.Z.z G.$XR.n l I.n S.4.b v M.9.M.n.n s l H.I.i.9.u.`.y.7./.B.Z.'.Y.9.g F.K.u.t ].G !.L.x a.R.a.f.H.",
"m.R.].u.b.a.OXu.y.y.e.L.K.G e.H.l P.).l (.e.u.K.x.0.M.v z.b n.u.l K.m.r.D e.m.K.I.z h y.D H L.d m.I.].9.p.D.OXJ d.r.u.P.P.x q.G.",
"W.#X~.h I.].m.m.e.x m.T.b.n K.#XoXx l m.#Xa.u.K.x g.I.x u.p.C.T   $XW.r.C.e.9.N.x b p.e.H Z.m.c W.+X~.l I.oXN.N.r.n m.T.n.9.P.#X",
"k.A s.5.x p.l m.`.x 9.x.9.u.J p.rXl K.$XG.n K.u.h.L.W.q.f.W.# X 2   s p.rX).n l 6.6.).e.H.XX9.z.k.H d.e.n n.l N.`.e.u.9.b p.7.7.",
"j.q.q.!.r.r.a.'.k.8.c.h.w..X@XA i.0.B.d.3.P.+XZ.y.e.9.b.V.: 2 ^ 2   j OXR.s N.a.N.`.s.j 9.N.^.h.y.e.k `.D y.r.{.s.8.z.k.q.oXoXD ",
"s.h.H.W.f.G.y.r.e.r.`.(.S C.^.b.K a.3.3.!.+XL.v d.K.z.d H $ ~ 4 1     e.b.N.'.g G C.q.y.b.b b.S y.C.H.L.G.V.d.d.p.d.I.oX5.G.'.m.",
"9.P.K.e.f.a.p.y.8.w.s.z.c A w.z.U.{.].8.H m.; | # K.b b.# ~ 1 qX. 2 2   N.A.- Z - f.y.I.N.z.K.f.u.G.R.x G.D d.m.v w.w.z.c A w.l.",
"l u.p.z G.x r.`.p.r.A 9.x.D y.E.f Z.eXm.i.T.6 pX  e.b ^.o ~ M xX) 1 ~ . N.b   pXN X g./.i.i.R.I.g u.m.l K.j p.^.S.r.C 0.8.D y.E.",
"8.9.p.9.'.a.y.G.h.S.g.W.H.9.M.+X~.f 0.G p.: qXdX  p.p.5.o 2 | cX=X$ $ , l N.. pXpX* 0.p.x f.K.b z u.9.u.R.N.u.F.I.F.S.H.H.9.c.#X",
"F.F.e.g K.I.a.j h.z.l.s.k.c.l.h.rX6.C.V.8.7 uX7X$ ; : % . M tXyXuX) o % : # * *XiX} 0.g j h.C.8.K.Y.n n m.).9.z w.8.l.w.k.l.l.s.",
"I.H.e.x n a.u.p.r.5.5.e.5.p.b j 9.n     < 3 6X7X( $   % 2 ` [ *X{ ` ^ %   o 8 7X7XM ; X   Q.Z.z.~.L.G x x D.u.u.y.9.e.n f.u.b.x ",
"y.r.r.`.u.x u.).6.h._.c.c r.W.U.B.J V  .X   M 7XX % % y 0 _ ` pX` _ m y y % o *X' . X ' |   k v m.G C.Y.a.z e.(.9.s.[.z.8.C Q.U.",
"z.v S.C.h k.{.d.g 0.x.x L.H.L.n L.H.M pXdXV o X 9 w i a &.j *XvX7XL a a a w 9 X o 7 uXdX' X B.Y.z.b F.K.h H.{.y.c 9.b.x L.H.L.k ",
"c.c b.G.G D f.r.M.g b x C.C.G L.h I.#  .iX@...s i w w r q L pXbXfX} e i r w r u ..@.yX6X  m.$XOXc.c b.K.r.e.f.J M.b x x C.f.e.G.",
"c R.].G.e.a.i.u.d p.OXy.h L.b.@XW.m.# & @.X.Z ;.i a ;.:.V O.xXbXcX6X) >.;.&.i ;.L _ @.7 X n B.S b ).OXC.r.a.m.e.g p.XXi.l K.p.oX",
"z ].`.5.a.R.N.9.a.L.H.e.e.#XN.b.U   : X X.V 1.-.r <.<.<...@.6XdXtXO.o.3.<.<.a &.1.F ..o < X > d.z OX].e.C.R.N.9.a.K.L.e.u.#XD.b.",
"p.m.j j I.Y.9.b K.a.h e.m.~.b P @ T P 9 r -.<.r -.<.<.<.X.+.{ $.{ o.o.2.<.<.;.w ,.-.p 9 U T * < i.m.j k L.Y.b b J.a.t e.C.~.v c ",
"n a.m.r.r.a.u.0.g F.e.e.n b.> X > T < m F z a w :.<.<.<.V ..+.+.+.o.) 1.<.<.,.i p v C C 7 T < X > m.C.5.a.p.u.9.z G.D r.u.i.A.N.",
"n F.OX`.x u.Y.u.b D.m.s d.#X  M %.sXsXsX@.[ z a p <.<.<.1.F ) / ` S 3.,.<.<.*.p >.` @.yXsXkXwXV   K.OX`.x a.I.p.b D.n.h C.#X'.i.",
"T.g G.OXG.a.L.9.8.9.'.5.L.W.U @ tXxXbXbXcX+.K ,.w ;.<.<.<.,.>.3.3.<.<.<.<.;.p ;.l.o.dXbXbXcXuX* U T K.+XG.a.K.n 6.b (.5.L.~.n J ",
"eX(.f B.S z z d.'.9.F.b N.b R lX7 tXcXbXaX+.F <.a i ;.:.,.,.,.>.:.:.:.:.,.p a ,.3.+.yXcXcXiXV jXQ   j p.j d n b.I.a.S.2.4.0.l _.",
"d.p.9.r.^.8.D.H.C.l G b L.- ! ZXBXZ =XpX6XX.K 1.,.i i i i a a a a a i p i i ;.<.3.X.@.aXtX} zXSXlXX e.9.T.5.F.G.C.x l u.R.m.x p.",
"j S.S.a.XXx.n.W.r.J i.^.< O hXFXDX! V X.X.) 3.<.=.r =.;.:.t.| j.| j.:.;.=.i a <.1.Z ..$.) E ZXFXMXX : M.OXm.C.W.i.G G ~.+XB.r.L.",
"J ).l.A.C.z.f Z.H.b.G T * ( jXFXDX|.q ) ` 1.<.<.r -.<.<.3.O.O.iX{ o.s.,.<.;.p ,.1.1.V / e I ZXFXMX5 m U T.m.S f.D.m.E XX Xi.F.R.",
"H T.f n m.8.f i.K.5.U @ 8X%XjXFXFX|.w ;.<.<.<.&.i <.<.<.#.X.uXcXaX$.@.3.<.<.a p <.<.<.,.w v.AXFXMXB 9X& U u.s f.S.0.f E C.n M.8.",
"d.0.v l ^.b 5.Z.x 5.= ;X0X%XjXFXDX|.i p =.;.,.w ;.<.<.<.@.7XyX{ 7X7X@.l.<.<.;.r ;.;.=.a i v.ZXFXMXB 0X1X& : e.C.4.4.b b.9.n p.8.",
"W.7.4.d.~.b 5.Z.p.; N 3X0X%XhXFXFX|.p w p i i w -.<.<.<.o.{ { { *X[ O.3.<.<.:.r i i p w &.I ZXFXMXB 0X4X] # t.G.p.e.I.P.5.l p.I.",
"W.p.d ~.A.8.5.W.{.& [ 4X8X%XjXFXAX|.p w ,.<.:.&.i <.<.<._ [ ] ' ' [ _ 3.<.<.a a <.,.,.i -.v.BXFXMXB 8X3X;X6 9.G.Q.D G.F.9.e.r.W.",
"Z.D C.i.t C.+Xj 5.5 :X:X3X' jXSXAX|.w v X.X.K 1.r -.<.<.>.` ....X._ G ,.<.;.i ,.9.X.X.g r v.BXSXMXm 3X:X:X( ^.G a.z a.f p.g.m.D.",
"b p.K.n.u.L.(.a.p.5 :X:X:X( ! AXCX|.0 ` @.#.o.3.*.a <.<.<.8.V V V H <.<.,.=.a <.X.@.@.X.0 v.NXSXzX4 :X:X;X( I.p.g.y.`.p.p.u.u.p.",
"9.(.F.p.F.p.f b K.5 >X:X:X( Q VXBX|.B { xX6Xo.| ,.p &.,.<.<.<.<.,.<.<.,.-.p ;.L X.@.dX6X) I mXCXjX5 :X:X;X( 5.z D.p.J.n D.P.m.9.",
"n p.5.n n.p.n D.x 3 O.:X:X( R mXBXkX .xXvXiX@.X.<.=.w *.-.<.<.<.<.<.;.-.r -.<...@.uXxXcX6X%.VXVXQ 5 :X:X;XM p.p.e.e.7.h a.Y.Y.u.",
"a.l n i.i.A.Y.R.d   6 [ ;X( : jXzX[ xXcXaX$.@.X.<.;.p w w w w w w w r r w -.<.` +.6XuXcXbX$.wXlX< 6 -X[ N   ~.I.h D.I.e.u.9.K.9.",
"].a.B.Y.a.B.L.J r.# > . 3 M & gX8 | qX| | ) ` V <.;.i -.,.u F w.F b :.;.i =.<.L ..) ) | qX%.8 hXo N 5 . > ; G.r.5.G.I.D.D.u.a.z ",
"G.e.i.K.u.a.A.G m., Q O       R %.hXhX0 9 j H 1.<.a a <.1. .+.6XO.{ z.1.;.p <.<.A j 0 9 jXhX! W         W R F.a.g.D.p.e.K.i.K.b ",
"9.5.5.u.5.5.9.9.p.X X     , , X gXVXVXlXw ;.,.<.&.p ;.<.` O.6XaX6XO._ >.,.p a <.<.:.r gXVXCXlX# # W     X X 9.5.g.G.5.z 5.l a.p.",
"h.!.i.K.y.e._.s.0.  o     ; R O T zXCXVXu r r w i a <.<./ $.iXbXdX$._ 3.<.-.w w w w u mXVXmXQ O P P     o . eXh.c 9.M.p.e.D e.y.",
"H.y.n u.p.a.W.h.K.= N 5 5 3 4 Z X ! mXVXzXI i a a p ,.<.^ [ dXbXxX{ ` 1.<.&.p &.p u lXBXVXgX# Z 5 3 5 5 N 4 s.r.F.9.n.R.n.a.J.I.",
"`.C.L.G G K.D i.m.< = ] :X;X;X[ 7 - gXNXZXzXI y p p -.;.F `  .xX6X] V ;.-.a i u u lXBXVXjX, & ] ;X-X:X[ & , z h.P.l x (.K.5.p.p.",
"i.e.XXu.u.OXe.I.H.r.U @ $ ] ] ] 8   , ! mXVXmXlXy y a a =.C / _ / V *.&.-.y y gXnXVXCXgXT . 3 ' ] ] 5 o U eX2.Z.L.e.j u.D.b d 9.",
"9.u.#Xa.A.$Xu.N.].`.e.h <       + ] 4 , gXmXZXSXlXI I u u w w w w w i v u I gXZXZXMXgXY $ ] 3       > n.T.eX0.i.].#Xe.h K.n.b P.",
"b.m.R.e.L.OXx s I.`.f.n P.K.u.  -X8X<XB * P jXNXAXDXCXCXzX}.U.}.}.}.lXCXZXSXSXNXlXR * m <X8X<X+ x F.B.b.'.+Xn.g K.OXp.l ).K.g F.",
"9.B.k e.~.G.b.F.b b.u.p.Y.m.5.  8X0X0X9X<X( > P lXmXSXDXSXSXAXAXZXAXSXSXSXNXlXT > N <X8X0X0X8X+ 0.C.b r.^.D.u.n.e.n.9.p.(.D.j 7.",
"n.K.j f.J.d p.oXT.n.5.p.K.a.r.  4X0X0X0X0X9X2X' X > ! lXzXCXCXVXVXCXnXzXgX< # N <X9X0X0X0X0X8X+ 0.V.8.f.H.f H @XE.b 5.K.a.e.a.h.",
"h.#X_.A a.^.n u.#Xx R.n 9.F.u.X ' 0X0X0X0X0X0X8X:XM .   X U U T U U #     4 -X3X0X0X0X0X0X0X&X@ h.[.`.A C.'.n e.#XJ '.b.d T.G L.",
"D y.].a.G I.XXB.L.G OXK.T.^.i.T + 4X0X0X0X0X0X0X3X;X& & & 4 3  .& 5 3 & + O.1X0X0X0X0X0X0X8Xm < D f.{.a.G R.XXi.d.n ].T.K.OXN.a.",
"5.p.G.a.'.R.].i.D H.+Xr.e.e.e.d.o >X9X0X0X0X0X8X3X1X5 ( -X>X&XxX*X-X;X] + >X3X8X0X0X0X0X0X<X3 K.9.b.K.p.'.R.XXe.d.!.].i.n r.j e.",
"n.u.8.p.#Xi.K.G W.+X~.e.n 5.f.T + >X4X0X0X9X4X4X3X>X& ( 1X>XtXbXiX&X3X] + -X3X3X8X8X0X0X4X1X5 < n.p.9.u.#Xe.K.D Q.[.H.n e.e.d.!.",
"z.l D.P.b.t ].n !._.5.B.I.G.f.  ( 9X0X0X0X0X0X8X4X1X5 ( 3X1X[ ] ] >X3X] + 1X3X4X0X0X0X0X0X9X] o 7.g F.K.p.h XXG !.W.n a.I.a.y.J.",
"p.Y.OXi.m.m.].G D u.x T.K.a.r.  -X9X0X0X0X0X0X0X9X1Xm 3 3X,X[ fX[ >X4X6 = >X9X0X0X0X0X0X0X0X<Xo n.L.].u.i.m.XXn r.r.e.P.K.x e.K.",
"!.#X_.h I.].m.b.a.5.b.(.9.G a.: 4 >X9X0X0X0X0X0X8X;X7 . ,X>X7XvXuX[ 1X+ * -X3X0X0X0X0X0X0X1XM : L.#X!.h Y.].m.B.G x D.T.b.9.K.#X",
"h.A s.5.S a.l C.(.4.f M.g n.e.C.< + N >X4X4X4X>X' + : . [ 3X5XyX4X3X-Xo < o N :X4X4X8X>X' + : z.h.w.h.e.G a.l p.'.e.9.9.9.n.p.t.",
"h.r.r.!.r.D f.Q.k.b l.s.w.oX@Xl i.6.#           X T 9.T + 5X9X8X0X3Xm < !.s #           X T ^.w.f.q.q.!.r.H r.{.W.z 7.Z.d.).@XS ",
"f.H.H.I.G.H.i.r.p.y.`.(.i.K.`.x.d.a.3.4.W.+XC.l G.K.b d * ( 2X0X8X[ = 0.J A.OXg e.f.q.a.b.b u.C a.G.I.I.s.Z.d.d.p.a.`.(.e.G.].F.",
"r.L.I.5.a.a.i.C.v C w.z.c C w.z.U.eXOX2.H m.2.Z.{.G.v p.P.= ( 4X[ = , a.b.A.K.v I.f.y.I.N.G B.i.7.P.I.u.C.i.a.B.2.H d.7.f S d.0.",
"l u.b.z F.n p.'.S.s.q.0.9.D r.E.v V.+XC.i.U.S.eX_.G b (.`.j * N + P /.(.i.G l F.{.a.g.R.b.B.^.Y.z p.b.z A.x e.^.D.y.r.5.9.e.a.T.",
"g u.u.9.).m.p.K.L.F.S.W.H.9.M.#XQ.f x.e.B.+XL.0.k e.p.b 5.r.T X T a.].u.j L.b.7.h.q.0.S.G i.G.u.l u.n.9.'.m.u.K.I.D.G.!.W.9.n.#X",
"A.L.0.l P.Y.B.l w.8.3.s.h.z.I h.rX0.C.V.4.m.J f s.L.i.d q.J.G.x y.a.S.5.A.#XA.d s.5.x.v j Z.C.9.K.K.u.l P.Y.b.l d.2.2.Z.Z.6.2.Z.",
"^.L.G l 5.m.b.r.y.5.5.e.a.m.p.x 8.x Q.eX(.4.z C._.K.9.m.!.h.a.T.H.x 5.f.].'.9.n _.y.z.v r.W.G.x.R.L.G n e.m.i.u.r.5.u.e.a.b.i.g ",
"d.G u.'.u.x J ^.0.k.Q.M.v w.H.M.m.K d F.eXB.2.D.h.D z K.J.A j T.!.a.z D.I.S n (.j.0.z.9.!.Q.S v m.n r.`.a.x e._.4.W.^.p.f J Z.S."
};
