/* XPM */
static char *idle_player_1_png1677876650[] = {
/* columns rows colors chars-per-pixel */
"64 64 243 2 ",
"   c None",
".  c #010101",
"X  c #0A0A0A",
"o  c #0A0702",
"O  c #140D01",
"+  c #180A02",
"@  c #1B1301",
"#  c #1C170A",
"$  c #0F1112",
"%  c #1C1C1C",
"&  c #131414",
"*  c #011B04",
"=  c #271A02",
"-  c #371B03",
";  c #2C130F",
":  c #0E2D0F",
">  c #3B2403",
",  c #2F2A13",
"<  c #292929",
"1  c #353838",
"2  c #2D312B",
"3  c #0D3F23",
"4  c #501102",
"5  c #721100",
"6  c #472902",
"7  c #4A3206",
"8  c #553502",
"9  c #473413",
"0  c #513410",
"q  c #663903",
"w  c #753D02",
"e  c #6F350C",
"r  c #443E33",
"t  c #115700",
"y  c #176B0A",
"u  c #2C6D1F",
"i  c #347110",
"p  c #297524",
"a  c #2F772E",
"s  c #267A24",
"d  c #317421",
"f  c #387627",
"g  c #34772B",
"h  c #317B28",
"j  c #397B29",
"k  c #3C7A22",
"l  c #2B7733",
"z  c #287C34",
"x  c #347E35",
"c  c #397D30",
"v  c #2C6D24",
"b  c #196127",
"n  c #564A0F",
"m  c #684505",
"M  c #794803",
"N  c #795102",
"B  c #6C4F0D",
"V  c #49781B",
"C  c #417D29",
"Z  c #447926",
"A  c #407E32",
"S  c #4A7D34",
"D  c #527E38",
"F  c #634A2A",
"G  c #3E4746",
"H  c #367E42",
"J  c #414141",
"K  c #494949",
"L  c #454949",
"P  c #455257",
"I  c #555859",
"U  c #584C44",
"Y  c #597946",
"T  c #575E61",
"R  c #6D7778",
"E  c #5B7178",
"W  c #891400",
"Q  c #9A1800",
"!  c #AA1C00",
"~  c #8C2D01",
"^  c #BA2100",
"/  c #A33302",
"(  c #C82501",
")  c #D62700",
"_  c #D03B08",
"`  c #EA2B00",
"'  c #F52D00",
"]  c #865602",
"[  c #965D05",
"{  c #86540C",
"}  c #996404",
"|  c #956A0F",
" . c #A36807",
".. c #B77601",
"X. c #AF7519",
"o. c #AE6F13",
"O. c #88652A",
"+. c #936728",
"@. c #AD7627",
"#. c #995511",
"$. c #C27809",
"%. c #C25218",
"&. c #A95241",
"*. c #398D05",
"=. c #0F8E39",
"-. c #298833",
";. c #318532",
":. c #398332",
">. c #328438",
",. c #398438",
"<. c #398C39",
"1. c #3A8B35",
"2. c #338730",
"3. c #479505",
"4. c #458902",
"5. c #48AD00",
"6. c #47832A",
"7. c #548627",
"8. c #418332",
"9. c #4A8431",
"0. c #4C8A33",
"q. c #428538",
"w. c #49863B",
"e. c #428B39",
"r. c #4A8B3A",
"t. c #518539",
"y. c #518C3A",
"u. c #588C33",
"i. c #49913A",
"p. c #599338",
"a. c #629238",
"s. c #2F8441",
"d. c #388540",
"f. c #3A8C40",
"g. c #358947",
"h. c #3D8A50",
"j. c #428641",
"k. c #438C40",
"l. c #4B8D41",
"z. c #418D4A",
"x. c #4B8E49",
"c. c #528E41",
"v. c #5B8C44",
"b. c #528E49",
"n. c #548742",
"m. c #4B9342",
"M. c #4B9349",
"N. c #459546",
"B. c #539343",
"V. c #5B9442",
"C. c #53954A",
"Z. c #5B964A",
"A. c #549A4C",
"S. c #5B9B4C",
"D. c #5A9B44",
"F. c #5C9750",
"G. c #529952",
"H. c #5C9D53",
"J. c #529E5B",
"K. c #489452",
"L. c #639C4B",
"P. c #669747",
"I. c #629E55",
"U. c #679853",
"Y. c #6F9650",
"T. c #5CA254",
"R. c #59A557",
"E. c #58A24C",
"W. c #66A24B",
"Q. c #63A45B",
"!. c #6AA75C",
"~. c #67A758",
"^. c #75AB5A",
"/. c #77AC55",
"(. c #519462",
"). c #709C64",
"_. c #6CA762",
"`. c #69AD64",
"'. c #78AB65",
"]. c #77B368",
"[. c #7EBA73",
"{. c #69B46C",
"}. c #5EAB69",
"|. c #BA8328",
" X c #B98934",
".X c #BA8705",
"XX c #C98702",
"oX c #D48B00",
"OX c #D99601",
"+X c #CB9506",
"@X c #E29C01",
"#X c #DCAA03",
"$X c #ECAB02",
"%X c #E7A401",
"&X c #F5B502",
"*X c #F7BB02",
"=X c #E8B50C",
"-X c #CB9537",
";X c #C99033",
":X c #F8C702",
">X c #FCDC02",
",X c #FBD402",
"<X c #EBC202",
"1X c #FFE602",
"2X c #FBE61A",
"3X c #85AF6B",
"4X c #AB8B57",
"5X c #C99A45",
"6X c #CF9B4A",
"7X c #D5A54D",
"8X c #D7AA56",
"9X c #DEB25E",
"0X c #CDA354",
"qX c #E3AF5C",
"wX c #D9B366",
"eX c #E6BE6B",
"rX c #E2B663",
"tX c #E1BE71",
"yX c #E9C576",
"uX c #E8C16E",
"iX c #EFDE51",
"pX c #88C17A",
"aX c #6A7C83",
"sX c #75888E",
"dX c #79A689",
"fX c #899193",
"gX c #919DA3",
"hX c #A9B4BA",
"jX c #AFB2B3",
"kX c #96A5AB",
"lX c #EBCB83",
"zX c #F1D997",
"xX c #EED593",
"cX c #F6E7AD",
"vX c #F4E3A6",
"bX c #E0D3A5",
"nX c #B3BEC3",
"mX c #BDC6C9",
"MX c #D0D3D2",
"NX c #DDE2E2",
"BX c #E6E7E7",
"VX c #FBFBFB",
"CX c #B6B299",
/* pixels */
"y./.W.Z v.!.c A [.j H.<.c G.c F.q.g r.!.B.c l.I.M.:.q.,.w.,.C.Q.,.x i.e.B.S.j a 9.:.<.>.a H.3Xe.r.!.~.Z v._.x Y ].A I.,.a H.A C.",
"2.0.!.y.c U._.q.0.j !.A.G._.l.c.w.M.e.l.g l.e.r.Z.e.8.r.P.w.9.k e.x j d r.H.m.j.~.m.i.;.h.].F.c 2.r.!.v.A I._.j.t.c _.C.C.`.l.c.",
",.k.D.r.U.H.!.q.9.L._.r.c 8.c 9.Q.C u A.q.C.q.q.8.8.B.p.L.A 6.6.R.,.e.r.8.8.q.x.0.:.i.d w.P.f B.,.k.B.r.!.L._.8.w.Z.'.l.c q.f 9.",
"k.e.,.q.].w.Z.A V.^.S.2.j 8.c.U.H.p e.].:.w.A.j j j c.m.C.c y.S.H.x r.Q.Z.g u ,.0.6.E.i.9.v.r.].N.q.,.e.].8.b.A P./.Z.j 8.j y.W.",
"<.p C.M.e.u !.C P.L.A 8.S.b.c.v.a B.[.H.c g Z.c i.;.;.x z.x z.k.c v f V.S.w.,.q.~.0.e.E.c.v.Q.F.,.p M.C.q.v !.A L.Z.j r.F.r.y.V.",
"l.H.!.q.j.l.`.q.0.0.8.Z.C.A 8.V.j A.T.g H.q.q.C.f.f.z.z d.x k.,.g C.l.9.C 8.l.Z.S.h p 0.C S Z.p l.H.!.,.e.m.`.S t.9.8.A.A.j 6.B.",
"P.].L.d S.!.m.l.8.j l.G.j.A C.].Q.c h l.].r.q.C.j i.H.c q.r.c.r.b.[.P.w.c.q.>.x.j z e.8.S v.l.l P.3XP.d F.`.x.x.9.c l.G.k.,.A.].",
"a.S u.8.j e.g j.~.c ,.f.,.q.A e.pXg C.[.B.j Z.q.p.D.P.k y.P.P.K . . p r.3XT.c g :.<.R.8.V.!.,.g.a.S w.8.c k.g x.~.8.q.,.x k.1.1.",
"a.6.6.L.9.9.r.Q.a.x z.p.7.}.{.Z w.<.n.y.-.M.'.v.9.q.>.j.B.t.J + 5 o   ].H.u x.l.x.W.u.j ,.x.H.u.0.8.k ~.Z t.S /.u.;.g.p.6.`.{.Z ",
"u.p.p.P.y.B.0.9.8.9.~.T.C c.U.j.D w.-.-.L.3XV.d y.C.d.p     X W ( ;   :.q.x.R.g A b.0.9.j.H n.f 0.c.V.Z.B.p.w.t.q.y.W.~.:.B.H.x.",
"q.C.C.q.y.r.r.0.>.7.u.g.x Z 7.g.N.'.Q.;.S l.;.Y.^.B.x l.% 4 ; ) ` 5 < X . x.G.n.F.y.0.D.l.d.C.y.q.B.H.j B.C t.l.z 7.7.h.z V 7.s.",
"a q.e.h B.j 6.Q.k.9.Z :.,.C 0.J.s v.3Xl.8.G.<.).P.q.x K + Q ! ' ' 5 . 5 5 . l J.^.0.i.E.w.j.H.S.a q.l.g C.f e.I.z.6.Z <.z S 0.J.",
"x ,.1.,.Q.r.0.B.p.N.N.D.V.d.z.'.U.;.<.A l.'.v.-.C q.e.. W ( ` ' ' ) ! ( X J   x v.Z <.e.j y.C.x h q.,.q.I.x.q.M.Z.M.K.V.Z.<.z.].",
"M.M.q.g Z.S.r.f u.g.>.u.a.h.s.p.3X>.c.v.;.c.      Z.l.. W ) ' ' ' ` ) W ; ; 1     :.f.h f p.l.>.C.F.c c l.R.,.h 7.;.s.7.a.s.H u.",
"S.V.8.j c r.q.e.9.:.:.9.8.e.,.f . . 2   R.  < B % c.<.2 4 ) ' ' ' ` ( W 5 ; % e %   h.>.J . . g.U.Z.c c c l.q.e.0.:.8.j B.q.q.j ",
"0.9.0.~.q.j q.R.<.p.W.h.z 6.D.K.+  X9 . K   8 8X.   % X + ) ) ' ' ( Q W + J o 0XM X K X ; |.9 z r.A c.F.r.h 8.T.,.u./.g.>.Z P.K.",
"s.z N.c.f p.^.u.p f.j.j Z.V.Z.c @ 6X7X#.# 2 O.vXX . : 3 X ! ) ` ` ^ W o 3 . o bX;X% < M 6X8X9 F.g.x M.C.d p.^.0.l d.j.j Z.V.Z.k ",
"z.l k.B.c A y.9.z.g ,.j c.c.A C.% O.eXqX@.6 8XvX@.# : * t ~ W ) ! ~ 7 : * % { zXtXB B 0XeX X,   z.x d.C.9.q.y.9.z.l j j c.y.8.B.",
"l H.!.y.8.r.w.q.p e.`.0.d Z.j.{.  0 6X%.9 r lXcXlX~ ~ ~ *.4.q ^ W m i M ~ ~ 0XcXvXO., o.-XO.%   >.Q.`.c.9.r.l.q.a r._.w.f A.e.`.",
"g `.Q.8.r.H.l.,.r.Z.V.8.8.].x.j.^.7 X.u =.b @.vXrX/ ! ` / *.4.i i 5.{ ` ( Q 6XvXwX: =.s %.B d m.h _.!.8.y.H.x.,.r.C.Z.q.q.].l.j.",
"e.l.f f S.F.x x C.l.p 8.l.U.x l 9.6 n =.=.b n  X%.( ` ' _ 3.5.5.5.3. .' ' ) _ ;XM 3 =.=.b e B.3Xw.l.f k F.F.x x D.r.u 8.c.F.x l ",
"c r.l.9.w.r.q.<.g M.8.8.c j.C.j.Z.= b H (.(.T n e B &.( ) M 3.5.3.N ( ( &.F q 8 T (.(.H y 9 !.Z.j l.c.8.r.e.q.,.j B.j 9.q.w.x.x.",
"c M.`.W.j w.F.q.x m.l.u y.].!.L . 2 dXmXBXjXI * t y.nXCX4 ( n 3.i ( 5 4XMX).y * I fXNXMXdXG . J x C.`.~.j r.S.e.x m.k.d l.].Q.j.",
"G.a B.`.B.r.Z.,.>.>.Q.A Z.P.L X aXMXVXVXNX,  X0Xy *.CXBXO r t y t 2 % MXMX4.y 4X0Xe kXVXVXNXfX& K a C.'.B.r.C.c <.z T.8.Z.U.A S ",
"3XT.d c.Z a h t.Q.,.M.x x.  < gXBXVXVXBX@ 6XzXcX|.i 3.3.i @.rXuXuX;XV 4.3.V | zXvX8X9 mXVXVXVXhX& J f e.g p c w.L.r.i.-.-.<.p W.",
"t.e.;.w.I.;.m.V.c.g A x F.G.P NXVXVXNXfXn lXcXcXyX8XyXlX7XwXzXcXvXwX7XyXlXqXtXvXcXzXF 3XMXVXVXBXaX. q.,.A.,.M.C.c.j f q.H.l.j r.",
"Z N.e.l._.f.k.V.w.D w.I.).F.P hXmXgXI X |.lXcXcXxXcXcXcXxXwXlXcXzX8XxXcXcXcXzXvXcXzX-X+ L fXnXnXaX. f.z.`.r.c.v.w.q.c I.'.n.9.Z.",
"S R.s.b.b.d.s v.B.j.A ].I.l.1 aXI 1 . . |.uXzXyXyXcXcXcXcXcXcXcXcXcXcXcXcXcXlXtXvXuX-XO . < P aXJ . Y z.G.l.Z y.m.r.Y ).).w.M.H.",
"S G.s c l.>.p n.C.:.v M.j.  % 1 X X 6 @ [ 6X9X| uXyXcXcXcXcXvXeXvXvXcXcXcXxXuX| qX8Xo.@ q X $ 1 $ K l ,.j.q.f y.z.<.p D x.A z.;.",
"w.<.z g I.x ;.v.h :.q.>.h   1 o sXT = { 6 { o.4 6XuXyXzXzXyX5XO.-XuXxXxXzXuX7X7  .| 6 { > 1 sX$ 2   x c H.c A c.;.;.x j.x c r.;.",
"P.<.;.t.U.x :.p.e.:.~.r.x   > . G % . = M 8 q q m 5XeXeXeX;X8 . > @.qXuXeX8X{ q M 7 M - . $ 1 X 6 % c j.Q.>.e.c.r.8.A.A.,.g e.H.",
"P.q.p U.b.>.:.Y.^.k S.b.  < N M . . . . + 6 6 M q > R MXU @ . . . O r MXfX- 8 w q = - . . . . 6 ..%   H.x.e.,.D.Y.C B.M.,.A 9.P.",
"v.A c.w.u l.'.f 8.:.m.  1 m $XOXM o . J E > 6 q w 6 o aX. - W W W 4 o aX. - w w o q P P . o 8 oX&X} 2   f B.I.C r.h r.p e.i.m.m.",
"x e.C.e.w.F.H.r.e.B.  2 N >X1X,X$XN - G I m q 6 w 6 & o + W Q Q Q W - . % - w 6 6 [ K P = q OX:X1X>X .2   S.H.e.i.r.~.e.e.q.q.e.",
",.T.M.e.m.e.s x B.r.% 8 >X1X1X1X&XoX..q O [ ..+ ~ ] 6 @ I W ` ` ` ! U - ; ] ] o ....= 8 ..XX$X1X1X1X1XN % m.:.h i.e.D.c m.C.l.c ",
"c e.,.c k.e.c m.:.  % +X1X1X1X1X>X%XoX] O [ oX@ } } w fXMXF 6XqXqX+.gXgXq [ [ + oX..= q oX@X:X1X1X1X1X$XX K e.k.q.8.1.d r.H.H.q.",
"r.g g w.w.b.F.H.    q ,X1X1X1X1X>X&XOX+ . 7 oX@ } -XzXcXcXcXcXcXcXcXcXcXcX0X .O oX] . . oX&X>X1X1X1X1X1X] .   S.p m.S.8.q.,.Z.>.",
"!.r.n.F.r.c.Z.S   % > #X>X1X1X1X1X:X..@ . + } 6 B lXcXcXcXcXcXzXcXcXcXcXcXzX+.- XX= . .  .*X>X1X1X1X1X:X8 &   9.:.D.S.m.m.q.l.h ",
"B.8.r.Z.q.r.c.:.J . . 7 B &X>X1X1X>X] o . > ....@ qXvXcXcXvXtX@.eXxXcXcXcXuX0 } ..o . . 8 ,X1X1X1X<X} 8 . . <   i.m.:.8.C.w.Z.a ",
",.:.,.,.:.:.,.:.$ T T X . @ M OX*X$X8 . + oX@XoX8 F rXtXuX0X0 O ,  XuXyXeXO.6 XX$.> . . @ %X*XOX| @ o . L R %   i.B.:.h q.g l.1.",
"p.L.w.B.r.8.W.u.& hXhX& . . & X . . X . OX&X&X..[ 8 ; & # # +.-X X# ; # = > [ oX&X..= . o . . o $ o . . kXmX1 u.l ,.z.e.q.C q.0.",
"V.0.A q.e.r.Z.a.% G J X . < gXR . . 1 X &X&X&X@X[  .-X5X9XuXeXeXeXeXrX5X6XX. .&X&X$X] o P . . T hXG . . 1 P <   M.,.k.H.e.r.D.S.",
"~.y.Z.A c Z.C w.  @ @ . . < gXR . . 1 X ,X,X:X&X..o.|.|.X.|.|. X|.|.@.|.@.X.XX&X&X&X$X= P . . T hXG . . o = %   Z.g C H.C.:.<.e.",
"w.8.`.q.q.`.8.S.p.7 OXm . . & X . . X . 1X1X1X&XoX[ ;X-X9X9XrX9XrX9X9X-X;X .OX&X>X1X:X@ X . . * & o . 8 OX] -.v.Z.:.f q.m.,.p x ",
",.,.'.w.b.3Xq.m.!.8 <X1X1X.X7 = = @ m = } 1X1X:X$X$. . . .6XqXqX9X7Xo. . ...$X1X1X1X.X= N @ @ = =  .:X1X>X] <.q.!.`.8.d C.k.x Z.",
"j.l.H.8.Z.`.c v   , +X1X1X1X1X1X1X>X1X%X# 1X>X&X&X$.o.;XX.X.X.X.X.X.X.;X@.oX&X>X1X1XB .X1X1X1X1X1X1X1X1X<X9   a Z.`.e.g T.A.a M.",
",.n.k 8.I.B.j.M.  % ] 1X1X1X1X1X1X#X:X&X= :X*X*X&XXX .#.X.-X;X-X-X-X;X#.[ @X&X:X1X1XB #X:X*X<X1X1X1X1X1XXXX   <.q.r.,.e.T.m.f 1.",
"e.A.f p.D.v e.{.G.  , #X1X1X1X1X$X .$X[ @ &X&X&XOXoX..[ 6 q M { { q 6 ] XX@X&X&X*X*Xn M &X..+X1X1X1X1X:X# J S {.J.x ,.C.r.8.r.p.",
"p.].~.Z r.!.c q.].g X M #X>X1X>X$X] o @ OX&X&X&X&X&X%X .. . . . . . q  .oXOX$X&X&X$XOX+ X 8 $X>X1X1X#X} X Q.c 8.].S Q.q.p G.A F.",
"C 0.~.r.j H._.n.Z.A   X ,  .%X%X#Xn F #X:X&X&X&X&X&X&X} . w.9.g N.h q OX&X&X&X&X&X$XXX> 2 , XX$X%X.X9 . K H._.w.t.A !.H.C.`.l.w.",
":.j.B.0.Q.S.!.w.C P.'.w.  , 6 8 > 7 =X1X1X,X,X>X,X&X%X6 2 C 0.w.R.x 6 $X&X&X&X&X&X:X:X+X6 X - 7 8 , 1   Q.H._.8.t.L.!.j.c w.k q.",
"e.q.,.e.].w.C.A P.^.I.j     y.D.X sX-X,X1X1X1X1X1X:XXXO   j c.F.T.  , $.&X:X1X>X1X1X1X1XOX6 r.].e.    q.].8.C.C P.^.V.A 8.j y.L.",
"d.g M.A.r.v !.c L.W.8.j.H.B.r.p.% aXgXMX=X2X2X2X>XOX7 J 1.x N.l.x j X M &X1X1X1X1X1X2X+XgXG R.H.<.p M.Z.e.u _.A L.P.A r.S.r.0.D.",
"k.H.!.w.l.l._.A C 8.c A.Z.r.9.L.J . aXnXfXNXNX=X+Xm 1   x x k.,.v Q.  < [ &X,XiXiXiXbXnXP L   s z.F.!.q.l.r._.8.9.9.8.A.C.j 8.Z.",
"Z.'.W.d S.!.l.j.r.:.j.T.,.A r.'.`.x < < 1 MXkX0 > 1   8.c 8.B.8.r.[.Z.  2 ] oXmXNXhXsXnX.     z P.].P.d F.!.l.j.A j m.G.k.,.C.].",
"p.6.u.8.k r.g l.T.:.s z.l k.8.c.3Xa K.[.J & $ 1     L.6.p.P.Y.Z [.I.u v.  2 @ aXhXfXX $ . '.>.s.p.6.p.8.A r.g e.Q.8.,.,.>.k.e.8.",
"u.9.6.L.9.C y.Y.a.>.d.u.t.`.{.f w.<.t.D -.K.3Xn.0.e.,.z.B.r.l z S c a ].H.v K X . %   C x x.I.7.u.:.6.L.6.S 9./.P.h <.v.t.R.{.C ",
"y.V.C.S.B.V.w.9.e.0.W.Q.q.B.~.f.t.8.-.-.P.'.c.f B.C.x p C V.e.l I.C.>.q.S b.`.l 8.y.6.r.j.H w.V r.B.S.S.a.v.t.w.1.r.~.T.8.B.!.m.",
"9.Z.S.q.r.r.w.c.z V 7.g.a Z 7.g.A.3X_.-.S l.-.v.^.B.l j.S.r.1.J.^.l.q.l.j.b.C.x S.y.0.S.K.A n.w.1.A.S.q.n.q.r.n.h S t.1.s Z t.<.",
"g q.k.h M.g e.Q.N.0.6.<.>.Z 9.J.s n.'.c.w.G.<.3XW.C x H.~.k g {.v.A G.R.n.8.g z.^.r.i.J.n.j.I.Z.h e.j.h b.j 8.I.m.r.9.:.,.A r.G.",
"c q.q.,.R.l.e.C.D.M.N.P.V.,.z.].Y.z <.8.n.'.b.<.Z 8.e.,.1.9.A f.A r.Q.q.f Z.q.<.a.6.<.i.A w.B.q.f q.k.,.Q.l.q.Z.S.i.m.L.P.,.k.[.",
"b.C.<.g A.F.n.g 7.s.z u.a.g.H p.3X<.c.v.;.r.D s 0.Z.q.d 9.D.c.g 9.r.m.:.b.].b.p u.1.f.z f v.c.>.Z.M.q.g A.F.j.g w.h -.v.v.>.z v.",
"I.Z.A g ,.l.w.9.0.:.:.9.r.r.q.f >.C v.3XR.;.h y.~.B.,.l.W.p.r.G.V.j 2.B.!.Q.,.x a.y.g.z 9.P.B.f.H.Z.A c 8.l.w.:.9.:.q.8.r.k.q.g ",
"t.A w.Q.q.c A ~.<.a.P.z.z t.V.z.c.D v M.3Xc.-.m.a.j h C.p.Z j G.L.r.j m.Z.j j H.a.1.g.d.P.Y.Z z l.A 9.Q.w.j 8.~.2.P.U.e.s w.v.i."
};
