/* XPM */
static char *left_player_1_png1677876650[] = {
/* columns rows colors chars-per-pixel */
"64 64 252 2 ",
"   c None",
".  c #010101",
"X  c #0A0A0A",
"o  c #0A0701",
"O  c #130C01",
"+  c #150601",
"@  c #1B1306",
"#  c #1B1B1B",
"$  c #131415",
"%  c #061408",
"&  c #2A1902",
"*  c #2D180B",
"=  c #062F05",
"-  c #3A2504",
";  c #362916",
":  c #2B2911",
">  c #2D2C2B",
",  c #232626",
"<  c #373839",
"1  c #2B302F",
"2  c #1F2823",
"3  c #4F0E00",
"4  c #771501",
"5  c #691000",
"6  c #462901",
"7  c #493407",
"8  c #593502",
"9  c #483615",
"0  c #503211",
"q  c #653903",
"w  c #783A08",
"e  c #074E06",
"r  c #126A00",
"t  c #036C1D",
"y  c #06661B",
"u  c #0E6B10",
"i  c #2C6C1E",
"p  c #307312",
"a  c #11542A",
"s  c #047825",
"d  c #15722B",
"f  c #2F772E",
"g  c #287824",
"h  c #387627",
"j  c #34772B",
"k  c #317B28",
"l  c #397B29",
"z  c #367721",
"x  c #297935",
"c  c #347E36",
"v  c #397D30",
"b  c #2C6D24",
"n  c #29521F",
"m  c #564907",
"M  c #694804",
"N  c #764907",
"B  c #75571A",
"V  c #6E520E",
"C  c #487017",
"Z  c #56492D",
"A  c #417D29",
"S  c #447826",
"D  c #407E32",
"F  c #4A7D33",
"G  c #537A34",
"H  c #71701F",
"J  c #367E40",
"K  c #374245",
"L  c gray25",
"P  c #494A4A",
"I  c #4D5454",
"U  c #547944",
"Y  c #515D61",
"T  c #58696C",
"R  c #636C70",
"E  c #6E7676",
"W  c #666153",
"Q  c #841200",
"!  c #891900",
"~  c #941700",
"^  c #A81C00",
"/  c #B51E00",
"(  c #923609",
")  c #B02D04",
"_  c #D82800",
"`  c #C82600",
"'  c #E82B00",
"]  c #F42D00",
"[  c #875606",
"{  c #925906",
"}  c #934A08",
"|  c #B14D11",
" . c #9D6207",
".. c #956505",
"X. c #966B10",
"o. c #A66A05",
"O. c #B87901",
"+. c #AC6E10",
"@. c #936F31",
"#. c #AB7725",
"$. c #9D552A",
"%. c #CB5816",
"&. c #CF7111",
"*. c #D46F21",
"=. c #8C7548",
"-. c #04832D",
";. c #0A8833",
":. c #0E923B",
">. c #11953F",
",. c #1A8A36",
"<. c #288834",
"1. c #398332",
"2. c #328438",
"3. c #398438",
"4. c #398C39",
"5. c #368834",
"6. c #3E913D",
"7. c #2D822A",
"8. c #399900",
"9. c #46AB00",
"0. c #46832A",
"q. c #558628",
"w. c #418332",
"e. c #4A8431",
"r. c #4C8A33",
"t. c #428538",
"y. c #49863B",
"u. c #428B39",
"i. c #4A8B3A",
"p. c #518539",
"a. c #518C3A",
"s. c #588C33",
"d. c #49913A",
"f. c #599338",
"g. c #629138",
"h. c #628705",
"j. c #2F8441",
"k. c #378943",
"l. c #3C8253",
"z. c #428640",
"x. c #438C40",
"c. c #4B8D41",
"v. c #418D4A",
"b. c #4B8E49",
"n. c #528E41",
"m. c #5B8C44",
"M. c #528E49",
"N. c #538742",
"B. c #4B9342",
"V. c #4B9349",
"C. c #449445",
"Z. c #539343",
"A. c #5B9442",
"S. c #53954A",
"D. c #5B964A",
"F. c #549A4C",
"G. c #5B9B4C",
"H. c #599B44",
"J. c #5C9750",
"K. c #529952",
"L. c #5C9D53",
"P. c #529E5B",
"I. c #478F54",
"U. c #639C4B",
"Y. c #669747",
"T. c #629E55",
"R. c #679852",
"E. c #6E974F",
"W. c #5BA356",
"Q. c #58A24C",
"!. c #66A24B",
"~. c #64A354",
"^. c #6AA75C",
"/. c #68A75A",
"(. c #75AA59",
"). c #77AC55",
"_. c #528C6E",
"`. c #6CA762",
"'. c #69AD64",
"]. c #78AA64",
"[. c #77B368",
"{. c #7EBA73",
"}. c #69B56B",
"|. c #6D9B69",
" X c #95950A",
".X c #B88703",
"XX c #BA8936",
"oX c #B5892F",
"OX c #8D942F",
"+X c #C88601",
"@X c #D99A02",
"#X c #D19608",
"$X c #E29F01",
"%X c #D8A602",
"&X c #E8A703",
"*X c #F5B402",
"=X c #F7BB02",
"-X c #F1AF02",
";X c #CB953B",
":X c #D08E33",
">X c #E2B527",
",X c #F8C802",
"<X c #FAD602",
"1X c #EBC605",
"2X c #FFE602",
"3X c #FAE418",
"4X c #F2C520",
"5X c #B18942",
"6X c #84A766",
"7X c #86BA74",
"8X c #A0A251",
"9X c #CC9B45",
"0X c #D7A54B",
"qX c #D9AB54",
"wX c #DCB25C",
"eX c #CFA14C",
"rX c #E3AC55",
"tX c #DCB86E",
"yX c #E7BE6A",
"uX c #E2B663",
"iX c #E8B372",
"pX c #C09C64",
"aX c #88C36D",
"sX c #ECC973",
"dX c #F1D554",
"fX c #627C84",
"gX c #70898C",
"hX c #74A286",
"jX c #899193",
"kX c #8B9CA2",
"lX c #96A7AD",
"zX c #A8B4B8",
"xX c #B2BBBE",
"cX c #A2A28F",
"vX c #EACC85",
"bX c #EED28C",
"nX c #F1DA98",
"mX c #E9D497",
"MX c #EFDDA6",
"NX c #F6E7AE",
"BX c #F4E2A5",
"VX c #E2D09B",
"CX c #BAC5C8",
"ZX c #CED6D6",
"AX c #CDD8D0",
"SX c #D6DBDC",
"DX c #CAD2CC",
"FX c #DDE1E2",
"GX c #E7E9E8",
"HX c #FEFEFE",
"JX c #F4F5F5",
"KX c #AFC0BD",
/* pixels */
"a.).!.A m.^.v D {.v L.4.k K.v J.t.j c.^.Z.v c.W.V.1.t.c y.3.S.^.3.k k.i.Z.G.h k e.1.4.2.f L.{.u.r.^.^.S m.`.c U }.F T.3.f L.D F.",
"1.r.^.a.v R.`.t.r.h ^.F.K.`.c.n.y.V.u.c.j c.y.i.Y.4.w.i.U.y.e.z x.c l z i.W.c.c./.d.d.c z.[.J.l 7.i.^.m.v T.`.N.p.v `.S.S.'.c.n.",
"3.x.Z.d.R.L.^.t.e.U.^.B.v w.D e.W.v i F.w.S.t.t.t.0.Z.A.U.D 0.0.W.3.u.i.w.w.t.b.r.1.Z.g t.Y.h n.3.x.S.i.^.R.`.w.e.D.].c.1.w.h e.",
"x.u.3.t.[.y.S.A A.(.G.1.h w.n.R.L.z u.[.1.c.F.h h l a.B.S.v a.G.L.c i.~.D.j b 3.r.0.Q.d.y.m.a.{.C.t.3.w.[.t.S.v Y.).D.l t.h a.U.",
"4.g S.V.u.i ^.D Y.U.D w.G.M.n.m.k Z.{.L.v j J.v C.5.2.c v.c v.x.v b h A.G.y.3.t.~.r.u.Q.c.m./.J.3.g V.S.t.i ^.A U.D.h i.J.i.a.A.",
"c.L.^.t.y.c.'.t.r.r.w.D.S.v w.A.h F.W.j W.t.t.S.k.4.k.k k.3.u.3.j S.c.e.A t.i.S.G.k g r.A F D.b c.J.^.3.u.B.`.y.y.r.t.F.F.l 0.Z.",
"Y.[.U.z G./.c.c.w.l B.K.z.F S.[./.c j c.[.i.t.S.l d.L.1.t.t.n.r.M.{.Y.t.n.w.3.b.c k u.w.F m.c.x Y.].U.j J.'.b.b.e.l c.K.x.4.F.[.",
"g.F s.w.l u.v z.!.1.3.k.3.  # . 7Xj S.{.Z.l D.D f.H.Y.l a.E.Y.S [.`.i y.7XW.v f 5.4.W.w.A.^.3.k.g.G a.t.v z.j b.~.w.t.3.c u.w.4.",
"g.0.S U.e.e.i./.g.2.v.  < + ! +     m.N.<.V.].m.r.t.2.y.Z.r.c c l D h [.L.b b.x.b./.s.z 3.I.L.s.r.w.z ~.A q.e.(.s.2.k.g.0.}.}.z ",
"s.f.A.Y.a.Z.r.r.w.e.  1 5 _ ~ o   * 3 3 . ].A.g a.S.k.g t.Z.z.x J.    w.t.b./.f D n.q.r.z.J z.S r.Z.A.D.n.m.p.p.t.a.U.^.3.Z.T.b.",
"w.F.S.t.a.i.i.r.2.  > 4 ' ' 3 3 4 ^ _ ^ . c.2.E.(.Z.c x.G.i.z.P o 9   c.b.M.K.y.J.i.r.G.b.3.F.a.t.Z.L.l Z.D p.c.x q.q.k.d S q.j.",
"f t.u.k Z.l w.~.z.  5 ' ] ` 4 _ ] ] _ & L   # . . t.c /.~.z j X { @.>   b.D f K.(.r.d.Q.y.c.J.J.j t.c.j S.h u.T.C.e.S 4.3.F r.P.",
"2.3.u.3./.y.r.Z.  > ^ ] ] _ _ ' ] ] ^ + + + 5 ^ X t.u.1.0.0.L @ eXeX6 d.v b.v c m.S 4.u.l a.F.c k t.2.t.L.V.t.V.Y.V.V.f.Y.k.v.[.",
"V.V.t.k S.G.y.h g.3 ' ] ] ) [ [ ) _ / _ ' ] ` + P D.c.b t.  X X.bXbX9           g.1.k.k h f.c.2.S.J.v v c.W.3.k q.2.j.s.g.2.j.s.",
"G.A.1.h v i.u.u.F 5 ] ] _ / } 9X+.) ] ] ] ' 4 > !.n.4.c.  1 0 eXNXnX@.# . ; ;   E.m.k.c L . m.k.R.D.D v c i.t.t.r.5.t.v n.r.y.h ",
"r.e.r.~.w.v t.W.< 3 ' ] ~ ` ( VXqX( ' ] ] Q o X L . . . . X w 9XsXwX:X{ O #.Z ~.g.  # . @ 8 h x c.D n.J.i.l w.W.2.s.!.k.2.S U.I.",
"k.x C.n.z f.(.L + 3 ^ ) 4 ) ( mXyX#.) ] ) Q Q Q o + o 5 . - | +.&.&.%.| 0XbXZ % + @ N ;XeX@.N.U.k.c I.S.z A.(.r.f k.z.l D.A.H.A ",
"v.x y.Z.D v a.. / _ ^ 7 r C :XBXBXeX^ / ! Q Q Q Q Q 5 # e a s s s b X.0XNXbXZ a m +.uXNXvX9   '.k.c z.S.e.w.a.F v.x l h n.a.A Z.",
"x L.'.n.w.y.  X ] ` ^ 4 9.h.iXNXNXtX0 4 Q Q Q Q Q 5 2 K a t s ;.,.X.:XyXvXuX0 d d B *.bX@.X   h c ~.'.Z.e.i.c.w.j u.^.y.h S.u.}.",
"l ^.~.1.i.L.X 5 ] _ / m 9. X:XBXMX*.7 = Q Q Q Q X , I a t -.>.>.j.%.0XuXsXeX( u :.-.B %.@ L z a.k '.^.w.n.L.b.2.i.S.D.t.t.[.b.z.",
"u.    z G.J.. 4 ] / 4 8.9.h. .:X:X{ : r = . . . I fXY a s >.>.>.,.| #XrXrX*.| y -.;.s } 8 #     t.c.h z R.D.3.c H.i.i w.n.J.c x ",
"  < ; Z Z 6 . ~ / cX[.9.9.8.V N N 7 e r r = . . fXfXgXT J s :.>.>.3.| %.| | B d s s s y y a 2   v c.n.1.i.u.t.3.l Z.w.w.t.y.M.b.",
"L 9 oXeXoX;X; : 0 JXaX X8X8XOXp e r r r r e % . fXgXzXCXlXhX_._.d :.1.S z n s ;.;.:.;.-.s s = L c F.`.~.h i.G.u.f B.z.z n.[.T.z.",
"$ #.sXnXnXbX9Xr 8.g.dXnXBXBXBXtXOXr r r r e % . I kXGXHXJXJXJXSXKX_.t u t s :.>.,.[ ..#.oXoXoX@ P j S.[.S.i.S.v 5.2.L.t.D.R.v F ",
"@ 0XnXNXNXNXvX0X0XbXNXNXNXNXNXNXnXOXr r r e % . X kXGXHXHXHXHXHXHXJXCXJ s s >.>.| %.0XBXNXbXoXa o !.h w.    v z.G.i.u.<.<.4.z U.",
"@ ;XmXNXNXNXnXBXNXNXNXNXNXNXNXNXNXvX@.r r e % . X P zXSXFXJXHXHXHXHXJXCXt s >.>.%.&.0XNXbXoXV s { W Z Z - 1 V.S.Z.l j t.L.c.h i.",
"> B vXNXNXNXNXNXNXMXnXNXNXNXNXNXNXnX;Xp r = I R . . , K R gXKXFXJXHXHXJX_.s >.>.%.*.9XvX:XV d -.*.bXwXX.- 1 n.A.y.D D T.].N.y.H.",
"  9 sXNXNXNXNXNXNXnXqXyXNXNXNXNXNXbX0X..e = R gXo q q q X X $ E zXGXHXHXCXs :.>.) %.| +. .M ;.-.*.rX$.& L   S a.d.c.U ].|.F V.L.",
"  1 @.MXNXNXNXNXBXvX=.q tXMXBXBXnXsX9Xo.= . . . O o.+XO . . X X $ lXGXHXAXd ;.>.,.| | %.) V ;.;.| o.& L z.t.h a.C.4.g U M.D v.2.",
"G   0 5XvXnXnXbX5XpXkXX 8 @.qXyXqX;X+.[ = . . . - +X- < # . K P . < zXGXFX|.s >.>.c B B H ;.-.>.s - 1   L.v D N.7.<.c z.2.v u.2.",
"Y.  < - m pXNX$.- # , . . o 5XmXqX:X[ - X E , . O.o.. Y Y . $ # o $ gXGXGXkXs ;.>.>.>.>.:.s s s s $   z./.c y.Z.i.w.G.F.1.j u.G.",
"Y.u.    < W R X . . . . o 4 5XMXnX;X6 . $ kX1 8 @XO . X % - O.%XO.- T AXZXzXx t ;.>.>.;.t s ;.>.;.= b G.V.u.2.A.E.A Z.V.3.w.e.Y.",
"m.A n.y.  > > @ ; cXX 4 ( GXVXMXBX5X& . . . o &.%X< gXX & &X=X=X-XO.& xXAXDXJ s t -.s t g o.o.7.:.e a.y.h Z.~.l i.l i.g u.d.c.B.",
"2.u.S.x.y.J.. N eXDX$.( $.VXnXNXBXX.@ . . . q &X%XZ < & +X,X,X<X=X&XN E ZXZXgXt -.t -.:.&.:X0X:XC = #   u.G.L.u.d.r.~.u.u.t.t.u.",
"3.W.V.u.V.u.. #.mXbXiXtXvXMXNXNXiXV I R . & o.*X*X@X- O.<X2X2X2X2X<X#XO ZXZXzXd -.s :.>.&.rXnXbXrX@.;   6.B.1.k B.u.H.c B.F.c.3.",
"v t.1.v x.u.. { NXNXNXNXNXNXNXBXXX+ T gXO 9XoXO.@X*Xm %X2X2X2X2X2X2X,X@ ZXZXZXd t s :.>.*.rXnXrX+.8 >   w.u.u.z.1.w.u.z i.L.J.t.",
"i.j j y.y.M.P $ 5XMXBXBXnXuXwX:X8 X . . ;XsXyX;Xo.N 8 <X2X2X2X2X2X2X2X{ # ZXZXgXy s >.>.&.oX:X .q :     y.c.R.D.z B.G.w.t.1.S.3.",
"^.i.N.J.i.N.D.P * B =.=.B q 7 # X P > . ;XyXyXyX#.6 M  X X.X1X2X2X2X2X%X# ZXZXKXt -.:.>.%.| } q | $.;   N.F n.e.1.Z.G.B.B.t.c.k ",
"Z.w.i.S.t.i.M.D   n.A l J.B.V.  2.p.  . #.yXsXqXN $ P I . O 7 m .X<X2X=X$ CXZXZX_.t -.>.B ) B } %.wX[ # P i.c.i.d.C.4.0.S.y.S.j ",
"3.1.3.t.1.1.3.3.i.m.t.h 3.g x.x.z.E.].L : yX0X+.O 1 zXlX. 2 gXR O 6 #X-X$ lXZXZXCX_.t -.;.;.s ( | qXtXX.X 1.1.1.d.Z.1.k w.f c.u.",
"f.U.y.Z.i.w.U.s.4.j u.F.v h a.y.A.i.1.C.@ #.+.;X. $ Y T . P SXlX. . - [ X Y xXAXZXDXI.a y y a = . X . . P 7.).f.x 3.v.u.w.A w.r.",
"A.r.D t.u.i.U.f.S.3.c.L.S.y.Z.L.a.t.z 4.< 9 eX5X& m 7 - . # R I . $ 1 X o ; T xXZXZXCXkXfXU U 1 # 1 4.G t.t.f.r.V.3.x.L.x.i.Z.G.",
"/.n.D.D D S.A y.i.D v S.D.t.v c.A.y.1.B.  > 9 6 #X<X1X%X..[ 7 o . 1 R X ..+X9 Y kXCXZXFXFXFXZXkXY . R.c c R.k f.S.j A L.S.3.u.u.",
"y.0.'.t.t.'.w.G.A.y.z v V.3.b 2.m.1.r.~.    $ #X2X2X2X2X2X2X<X%X8 X % o.-X*XO.@ # T kXZXZXSXZXlXT . 6Xk.3.6X7.m.D.w.j t.B.c g 3.",
"3.3.[.r.M.7XD c.^.^.0.z c.x.3.V.a.h g G.E.m.M <X2X2X2X2X2X2X2X2X&X6 O %X=X*X@X@ q O o < L L L L < . 6Xz.K.6Xk.y.^.].w.i S.u.v F.",
"y.b.L.w.D.'.v b G.R.c.v F.S.t.c.H.f.g h F.n...<X2X2X2X2X2X2X2X<X*X[ o.*X*X-X..6  .{ 8 & . . . 9 .       ~.].x.f S.'.u.j W.F.f V.",
"3.c.l 0.T.Z.z.V.c c.t.u.J.c.l w.A.^.1.g y.j N 2X2X<X<X2X2X2X2X=X@X8 o.*X*X%X6 [  . . .{ [ 8 V tXX < W > T.B.i.u.u.u.3.u.W.B.j 4.",
"z.F.h a.H.i y.}.K.x.c u.Z.i.e.G.h S.h 1.].  : %X2X,X1X2X&X2X,X{ w 7 %X*X*X{ 8  . . . . .-X#XqXMX. Z MX# A.g F }.P.c 3.S.i.w.i.g.",
"f.]./.S i.R.1.t.{.h T.v c V.t.G.y.k B.^.Z.w.X N &XO.+X&X+Xo.+XO.q N *X*X+X6 q o. . . .+X2X<XdXnX[ tXBX; @ . l t.[.F /.z.g K.v J.",
"A r.^.r.l L.`.c.D.D '.S.K.T.y.t.t.B.t.i.l i.  # 6 6 6 q q 8 6 8 M &X*X$X@XM 8 {  . . .#X2X2X<X,X>XdXsX&XN # ].t.p.D ^.K.S.'.c.y.",
"3.t.Z.r./.L.^.y.S m.].r.w.w.t.a.~.1.p K.5.S.t.  r.A Z.> o M ..$X*X*X*X*X*XO.6 N  . .O.,X2X2X2X2X2X,X-XM 1   `.w.p.U.^.y.v y.l w.",
"z.t.2.d.[.y.S.v Y.].T.A v v s.Y.L.h k.[.t.y.G.v 1.k P $ { @X<X<X<X*X*X*X*X&X7 O & } .X=X2X2X2X2X<X&XM <   w.S.D Y.(.A.D w.A a.U.",
"k.j V.F.y.i ^.v U.U.D c.G.Z.a.f.h M.{.J.v l F.j C.  , T #X,X2X2X2X2X2X2X2X<XO.+ L . . N &.%X%XO.o.X >   u.i `.v U.Y.D i.G.i.r.S.",
"x.G.'.y.c.c.^.F A t.v K.S.i.e.U.j b.L.v J.1.t.b.v.2.Y kXFXdX4X,X2X2X2X2X2X<X.XO S.k   X . . . . X   ^.t.y.B.`.D e.e.w.F.S.l 0.G.",
"H.[.!.z G.^.c.z.i.1.z.W.3.D i.[.`.v v M.[.z.t.K.h   1 DXGXFXVX3X2X2X2X2X,X@XM > c 1.C.u.l n.c.x H.[.U.z J.^.c.c.v h B.K.z.4.S.[.",
"f.S s.w.h i.j c.W.5.g v.f u.t.a.7Xj M.{.c.3.F.3.s.  L 2 < GXSX3X2X-X@XO.& @ >   c 4.W.1.Z.[.2.j.g.0.g.w.D i.l u./.t.3.3.3.x.u.w.",
"s.e.0.U.e.A a.E.g.c 3.s.r.'.}.h c.4.y.G <.K.6Xm.e.u.3.v.L . . . . . . . P b K.z.c./.q.S 3.b.T.q.a.A 0.U.r.F q.(.Y.k 4.m.p.W.}.A ",
"a.A.D.G.Z.A.y.e.4.r.~.W.w.S.~.z.p.i.<.7.Y.].n.j Z.S.c g A A.u.x T.S.2.t.D M.'.j 1.a.e.i.z.J e.S i.Z.G.G.s.m.G p.4.i.~.W.w.Z.^.B.",
"e.D.G.t.i.i.y.n.x S q.k.g S q.k.F.].`.<.F c.<.m.(.S.c t.G.i.3.P.(.c.u.c.c.M.S.c G.a.r.G.I.D N.y.u.F.G.1.c.y.i.N.k F p.4.g S p.4.",
"j t.z.k V.v u.T.x.s.0.6.k.A y.P.g N.6Xa.t.K.4.6X!.A c W.~.h j }.m.D K.W.y.v v v.(.i.d.L.c.y.T.D.k u.z.k M.v w.T.B.r.e.1.3.D i.K.",
"v t.t.c W.c.u.S.H.V.C.Y.A.3.v.[.E.g 4.t.N.[.D.<.S w.u.3.w.r.l 4.1.i.^.t.h D.z.4.g.0.4.C.D p.Z.t.j t.x.3./.c.3.F.D.B.B.U.U.3.x.{.",
"M.S.4.j F.J.c.j q.j.x g.g.k.J s.7X2.n.m.2.c.G g r.D.y.g 0.H.Z.c e.i.B.1.M.].M.g f.1.4.x h m.n.2.F.S.t.j F.J.z.j p.7.7.m.m.2.k m.",
"T.D.D v 3.c.y.r.r.1.1.w.i.n.t.l 5.v E.6XW.<.k n.~.Z.3.i.U.f.i.K.A.l 7.Z.`./.3.c Y.a.k.f e.Y.Z.k.L.D.D v w.c.y.t.r.1.t.w.i.z.3.v ",
"p.t.t.T.t.v D T.6.g.Y.v.x e.A.v.x.G b F.6XN.7.B.g.A k S.Y.S h K.U.i.k c.F.S l L.s.4.k.k.U.E.S x c.v r.~.y.l w.~.7.Y.~.u.g y.m.x."
};
