/* XPM */
static char *player_right__1_1677876651[] = {
/* columns rows colors chars-per-pixel */
"64 64 245 2 ",
"   c None",
".  c #010101",
"X  c #0A0A0B",
"o  c #0B0601",
"O  c #170902",
"+  c #1A1305",
"@  c #1C1C1C",
"#  c #161614",
"$  c #0C110E",
"%  c #281801",
"&  c #2E140A",
"*  c #073006",
"=  c #392403",
"-  c #272118",
";  c #352916",
":  c #1F2223",
">  c #2C2C2B",
",  c #242729",
"<  c #373839",
"1  c #312F2B",
"2  c #460B00",
"3  c #521203",
"4  c #721500",
"5  c #462902",
"6  c #4C3208",
"7  c #5A3805",
"8  c #4B3613",
"9  c #653A02",
"0  c #7E3A02",
"q  c #095008",
"w  c #116A00",
"e  c #036D1D",
"r  c #04651B",
"t  c #0A6910",
"y  c #2B6D1F",
"u  c #2F7210",
"i  c #0E5226",
"p  c #2A4736",
"a  c #047825",
"s  c #13732A",
"d  c #2F772E",
"f  c #277824",
"g  c #387627",
"h  c #34772B",
"j  c #317B28",
"k  c #397B29",
"l  c #357621",
"z  c #287C34",
"x  c #2C7734",
"c  c #347E35",
"v  c #397D30",
"b  c #2A6D23",
"n  c #345512",
"m  c #5B4403",
"M  c #4E5211",
"N  c #694407",
"B  c #774704",
"V  c #775512",
"C  c #4A7216",
"Z  c #54472F",
"A  c #417D29",
"S  c #447926",
"D  c #407E32",
"F  c #4A7D34",
"G  c #527E38",
"H  c #507223",
"J  c #725F21",
"K  c #3B4144",
"L  c #337A46",
"P  c #404041",
"I  c #49494A",
"U  c #4D5352",
"Y  c #527847",
"T  c #586B6F",
"R  c #606662",
"E  c #841100",
"W  c #8A1500",
"Q  c #9B1900",
"!  c #A91C00",
"~  c #943408",
"^  c #B92400",
"/  c #A83504",
"(  c #C62400",
")  c #D82700",
"_  c #E82B00",
"`  c #F52D00",
"'  c #895704",
"]  c #985A07",
"[  c #904C0F",
"{  c #AE4D13",
"}  c #9D6206",
"|  c #946601",
" . c #966B0C",
".. c #A5690A",
"X. c #B77A01",
"o. c #AC7311",
"O. c #8F6C2E",
"+. c #AD792A",
"@. c #815D22",
"#. c #C65417",
"$. c #CA760F",
"%. c #D8731D",
"&. c #99734D",
"*. c #04832D",
"=. c #098B35",
"-. c #0E913B",
";. c #11953F",
":. c #198E3B",
">. c #288632",
",. c #318532",
"<. c #398332",
"1. c #328438",
"2. c #398438",
"3. c #398C39",
"4. c #3B8A35",
"5. c #3D913C",
"6. c #2E822A",
"7. c #4AA701",
"8. c #46832A",
"9. c #548627",
"0. c #418332",
"q. c #4A8431",
"w. c #4C8A33",
"e. c #428538",
"r. c #49863B",
"t. c #428B39",
"y. c #4A8B3A",
"u. c #518539",
"i. c #518C3A",
"p. c #588C33",
"a. c #599338",
"s. c #49913A",
"d. c #629337",
"f. c #5D9808",
"g. c #2F8441",
"h. c #3A8C40",
"j. c #368844",
"k. c #3B9247",
"l. c #428641",
"z. c #438C40",
"x. c #4B8D41",
"c. c #418D4A",
"v. c #4B8E49",
"b. c #528742",
"n. c #528E41",
"m. c #5B8C44",
"M. c #528E49",
"N. c #5A8641",
"B. c #4B9342",
"V. c #4B9349",
"C. c #459545",
"Z. c #539343",
"A. c #5B9442",
"S. c #53954A",
"D. c #5B964A",
"F. c #549A4C",
"G. c #5B9B4C",
"H. c #5A9B44",
"J. c #5C9750",
"K. c #529952",
"L. c #5C9D53",
"P. c #529E5B",
"I. c #4A9654",
"U. c #639C4B",
"Y. c #669747",
"T. c #629E55",
"R. c #679853",
"E. c #6F9650",
"W. c #5BA355",
"Q. c #58A24C",
"!. c #63A45B",
"~. c #6AA75C",
"^. c #68A657",
"/. c #74AB59",
"(. c #6BA54E",
"). c #6CA762",
"_. c #69AD65",
"`. c #79A964",
"'. c #77B368",
"]. c #73B870",
"[. c #57946F",
"{. c #B08802",
"}. c #B68A34",
"|. c #A09A1E",
" X c #C98701",
".X c #D89802",
"XX c #D28E06",
"oX c #E39E01",
"OX c #D8B403",
"+X c #E7A802",
"@X c #F5B502",
"#X c #F7BA02",
"$X c #E8B306",
"%X c #CA943B",
"&X c #CA8C30",
"*X c #E7A433",
"=X c #F8C802",
"-X c #FBD802",
";X c #E7C103",
":X c #FFE602",
">X c #F3D236",
",X c #B08C4E",
"<X c #84A766",
"1X c #88B872",
"2X c #98A355",
"3X c #CD9B47",
"4X c #D8AA53",
"5X c #DEB25C",
"6X c #D3A34D",
"7X c #E5B757",
"8X c #D6B66F",
"9X c #E6BE6B",
"0X c #E4B865",
"qX c #E0BB73",
"wX c #EAC877",
"eX c #EADA5F",
"rX c #88C17A",
"tX c #657C83",
"yX c #748D8B",
"uX c #7DAA8C",
"iX c #8C9699",
"pX c #8E9DA2",
"aX c #95A7AC",
"sX c #AAB5B9",
"dX c #8FB09E",
"fX c #ACD097",
"gX c #ECCD85",
"hX c #EDD596",
"jX c #F1DA97",
"kX c #ECD189",
"lX c #EEDCA6",
"zX c #F4E2A5",
"xX c #F6E7AE",
"cX c #E4D7AA",
"vX c #B0BCC0",
"bX c #BBC5C6",
"nX c #CDD5D5",
"mX c #D2D9DA",
"MX c #C5CECC",
"NX c #DCE1E1",
"BX c #E6E7E7",
"VX c #FDFDFD",
"CX c #F5F6F6",
"ZX c #EFF1F1",
"AX c #E4DFD1",
/* pixels */
"i./.(.A m.~.v D '.v L.3.c K.k J.e.h x.~.Z.v x.T.V.<.e.c r.2.S.!.2.j z.y.Z.G.k d q.<.5.1.h L.1X3.w.~.(.S m.).c Y '.D T.2.h L.D S.",
"6.w./.i.D R.).e.w.k ~.F.K.).x.n.r.V.t.x.h x.e.x.H.t.0.y.U.r.q.S z.c k l y.L.B.r.(.B.s.z c.'.J.v <.y.~.m.D L.).x.u.v ).S.S._.x.M.",
"2.z.Z.y.R.L.~.e.q.U.~.s.v 0.v q.!.k y F.0.S.e.0.0.8.Z.A.U.D 8.8.W.2.3.y.0.e.2.v.w.<.i.f e.Y.g Z.2.z.S.y.^.R.).0.q.D.`.x.<.0.g q.",
"z.t.2.e.'.r.F.A A.`.G.<.k 0.n.R.L.l 4.'.<.x.F.k k k n.B.F.k y.G.L.c y.^.D.g y 2.w.8.Q.s.r.m.i.'.C.e.2.e.'.0.M.D Y./.D.v 0.k i.U.",
"3.f S.V.e.b ~.D Y.U.D 0.G.M.n.m.d Z.].L.v h D.v C.,.z c c.c c.z.v b g A.G.q.2.e.!.w.4.Q.n.m.!.J.1.f V.S.e.b ).D U.D.k y.L.y.i.A.",
"x.L.~.e.r.x._.e.w.w.0.D.S.D 0.A.k F.!.g !.0.e.S.h.3.C.d j.2.t.2.h S.x.q.D 0.x.S.G.j f w.A F D.f x.L.~.<.e.B._.F u.q.0.F.F.k 8.Z.",
"Y.'.U.l G.~.B.x.0.k x.K.l.D S.'.!.v h Z.'.r.e.S.k y.L.<.e.e.n.w.M.].Y.r.n.0.2.v.v c t.0.F a.b.x Y.<XY.d L._.v.v.q.v x.K.z.2.F.'.",
"d.F p.0.k t.h l.^.k 2.h.2.e.e.e.rXh S.].Z.k S.e.a.H.Y.k i.Y.E.S '.).y y.1XW.v x <.3.W.0.A.. 1   d.F u.e.k z.h v.!.0.e.2.c t.4.4.",
"p.8.8.U.q.q.y.!.d.1.h.a.9._.].g r.3.b.i.>.K.`.m.w.e.1.z.Z.w.c c D D g '.J.b v.x.V.T.p.  v 2 3 O Z   l !.A 9.q./.p.,.j.a.8._._.k ",
"p.a.A.Y.i.Z.w.q.0.q.!.L.D n.R.l.G r.>.>.U.<XA.y i.S.    e.Z.l.z D.G.v 0.r.v.W.h o 3 2 > G O ( ) & <   D.M.m.u.u.e.i.U._.<.Z.T.v.",
"e.F.S.0.i.y.y.w.1.9.p.k.c S 9.j.C./.~.1.F x.,.E./.Z.@ 8 o   t.P.~.M.e.x.v.M.K.u.O ! ( ! 4 & W ` ) 3 <   Z.A r.x.z 9.9.j.z S 9.g.",
"h e.t.j Z.k q.^.z.q.S <.2.A r.P.>.m.<Xx.e.K.3.`.U.  @ 3XB X c _.S.e.L.T.. . >   < 3 _ ` _ ( 4 _ ` ) 2   S.g t.T.B.q.S 3.,.F w.P.",
"c <.t.2.!.y.w.Z.a.C.s.Y.A.j.c.<XE.f 3.v x.`.m.>.S e.N 0X}.@   j.v M._.y.O ! 2 O O 2 ( ` ` _ ( _ ` ` 4 P L.V.e.V.H.V.B.A.A.j.c.'.",
"V.V.2.h S.G.y.g p.j.g.p.d.j.g.a.1X1.Z.N.1.        @ O.lXwXN @   k r.Z.<.P & ) ` ) ( ^ ) / [ ' ^ ` ` _ O x.W.2.k p.1.g.p.d.g.c p.",
"G.A.0.k v y.e.t.q.2.<.e.0.t.1.. I v E.<XW.  8 - . ; ,XzXlX}.; P w.k k Z.  - Q ` ` ` ` ~ +.+.~ ( ) ` ` O v x.e.e.q.<.e.v n.e.l.k ",
"w.q.w.^.e.v <.W.3.a.(.k.z 8.. B o . >   <XN.O. .o o.%X0X9X&X3 o . . . . P o O ^ ` ` ) ~ 0X8X/ ( Q ` _ O I j 0.W.<.p.(.j.<.S Y.I.",
"j.z C.n.l a.`.w.f h.l.k D.A.. 3X6X}.6 O O X <XqX3X{ #.$.$.$.{ X o 2 O o O E E E ( _ / %XqX8X/ ^ E ^ ! O O K `.w.x 2.l.k D.A.H.l ",
"k.x l.Z.D A i.q.c.h <.k n.n.@ 7 jXzX6X{ M * O.zXzX&XJ s a a a r * & 4 E W E E E E ! ~ qXxXkX+.u w 9 ( _ Q . y.F c.x k k M.i.0.A.",
"x L._.i.0.y.q.e.f t._.w.l S.  . }.9X%.H a i @.gXgX0X%.O.=.*.a r p p & 4 E E E E E 4 W hXxXxX6Xf.f.W ! ( ) $   e.c e./.r.g F.e._.",
"h ).!.0.y.L.v.2.y.D.A.0.e.'.v.P & #.H a =.n { 5X9XqX*X#.;.-.-.*.e K R + O E E E 4 * 9 3XxXgXXXf.7.m ( _ _ 3   2.y.S.F.0.e.'.x.c.",
"e.x.g g G.J.v c S.x.b 0.x.  K X 0 M a -.a n #.%.5X*X%.{ ;.-.-.-.e p T yXP . . . q q 7 ] &X+.{ 7.7.M ~ ^ ) 3 1.c F.x.    n.J.c x ",
"<.y.y.q.r.y.e.3.h V.0.0.<.  @ i e e a e a y J { { #.] >.;.-.=.a L T yXtXT . . * w w q 9 ' V C 7.7.7.fX&.! 4 . 8 Z 8 ;   0.x.v.v.",
"v V._.^.k r.J.e.c B.x.y   , q a a =.=.-.-.a a n S H :.=.s [.[.dXsXbXuXtXT . X q w w w q w C |.2X2Xf.fXCX& % M 6X&X3XO., I '.T.l.",
"K.h Z._.Z.y.D.2.1.2.!.0.P 8 }.}.}. . .[ ;.;.;.e e e r uXbXNXZXVXCXZXNXyXK . * w w w w w }.wXzXlXjXwX9Xd.u C 6XjXjXkX9X] X R.D F ",
"1XW.f b.S d j   !.h.V.c + n 3XjXxXjX%X#.[ ;.;.a a [.MXCXVXVXVXVXVXVXNXyX. . * w w w u %XxXxXxXxXxXxXxXwX3X4XhXxXxXxXwX%Xo 3.l U.",
"q.e.,.q.T.,.B.> = 8 Z U ' s V 3XlXjX%X%.#.;.;.a s mXCXVXVXVXVXZXmXnXpX< . . * q w u |.lXxXxXxXxXxXxXxXxXxXzXjXxXxXxXgX}.. B.k y.",
"g C.B.x.).h.z.> 5 +.wXwX$.=.y V %X9X&X%.{ ;.=.e yXVXVXVXCXmXsXyXT < : . @ T 1 * w C 4XzXxXxXxXxXxXxXjXzXxXxXxXxXxXxXwX6 > b.q.D.",
"G W.g.M.M.h.f   < 5 +.9X{ =.a ~ ....$.#.[ ;.=.a NXVXVXNXaXU X X $ 9 9 9 # yXp * * o.7XzXxXxXxXxXzX0X5XzXxXxXxXxXxXxX5X+   r.C.L.",
"F I.f v x.1.f u.  1 5 X.~ =.a [ / #.#./ ;.;.a s ZXVXNXiX. X X . . 5  X' . . . . q o.4X9XzXxXzXjX6XZ &.jXlXxXxXxXxXgXZ P M.F k.1.",
"u.3.z h T.c ,.m.<.  : 5 *.;.a -.J V J :.;.;.a aXBXBXiX, X U , . : , N .X% . . . * ] o.4X5X9X6X@.5 , bXO.6XkXjXjXwX+.;   c v t.1.",
"Y.3.,.b.T.c e.m.y.<.@ * a a a =.:.;.;.;.;.*.e MXBXNXU # X @ X . T K . .X] . K yX. 5 ] &X5XgXJ o . . < X 6 ,XxX,X8 ; <   <.h t.L.",
"Y.e.y U.M.,.<.Y./.l . i -.-.*.e a =.;.;.*.e L MXnXbXp 9 $..X..o $ o . + +X= I aX. . 9 5XzXjXO.4 . . . o . O pX- <     V.2.0.q.Y.",
"m.k n.e.b n.).g 0.,.. i :.G ..o.s a a a e a [.MXMXiX6  X@X#X$X.Xo > yX@ @X' o . . . 5 4XxXhXcXCXE 3 # MX+ @ @ P y.j t.f t.s.n.B.",
"2.y.S.C.r.J.W.y.z.  X n H &X6XXX+.;.a a *.s dXnXMXU ..@X=X=X=X-XX.- K m @XXX= . . . & &XxXxXjXcX~ ~ &.xX}.7 T.e.s.w.^.e.t.e.e.t.",
"2.W.V.e.V.t.f c Z.  6 }.7XjXjX3X%.-.a a *.L bXnXvX5 OX-X:X:X:X:X=XB m $X#X+X' o X tX<  .kXxXxXjXqXqXqXhXkXV 2.j B.t.H.v B.F.x.2.",
"v 4.<.v y.t.v B.v   , B o.9XkX3X%.-.;.e e I.nXnXsX9 -X:X:X:X:X:X:X|  .=XXX..%X}.$ yXK o 6XxXxXxXxXxXxXxXhXN t.t.0.0.3.l y.L.J.e.",
"y.h v r.r.M.J.L.l   P + 0 +.&Xo.$.;.;.a a pXnXmXO {.:X:X:X:X:X:X:XOX% X.o.4X9X9X+.X X X N %X5X5XlXxXzXhXO.-   G.b B.G.0.e.<.S.2.",
"~.r.b.Y.y.b.D.F   < ; +./ 0 [ #.{ ;.-.a s bXnXnX% #X:X:X:X:X;X{.{.{.= 7 &X0X9X9X+.X < I . - 7 9 @.&.&.N :   n.q.<.H.G.B.B.e.x.j ",
"n.e.y.S.r.y.M.v p ; +.0X#.V [ { D -.a e yXnXnXvX% =X:X=X..m = o X K P X ..7X0XwX .$   F.    i.D.b.e.y.S.  y.x.y.s.B.4.0.S.x.S.d ",
"2.<.2.e.<.v 2.2.% +.0X3X/ V s s *.*.e yXnXmXnXyX+ @X{.% # yXT $ $ bXpX$ % o.7X0X$ Z y.<.F.0.Z.x.j z.e.j ,.4.<.<.s.Z.<.j D j x.e.",
"a.Y.r.Z.y.0.(.p.P . . X . q i r r s yXMXnXmXsXI O B % . # sXMX# $ T U . + &X..+.X F `.z.f b.F z 9.E.,.K.i.6.<Xa.x 2.v.3.e.A 0.w.",
"A.w.D e.e.y.D.a.F.<.x.> @ < L Y tXaXMXmXnXaXI 6 . $ < X X T T X . ; 6 m = ,X3X+ I 3.J.v r.W.2.2.U.p.3.Y e.t.p.w.V.2.z.L.z.y.H.G.",
"^.n.D.D D S.A r.x.D k . T aXnXNXBXmXnXvXiXI m .XB , tX$ . O 7 |  .OX-X-X{.6 8 1 q.f z u.`.K.,.~.(.6.T.v ,.R.j p.F.l v L.F.<.e.t.",
"r.<._.e.e._.0.G.A.r.l . yXsXnXnXmXMXiXU $ ; XX@X+XB X . B OX-X-X:X:X:X:X-X| ,   !.2.c r.D.,.b M.i.,.<X2.2.<X>.m.D.0.g e.x.c f 1.",
"v 2.'.w.M.].e.x._.^.0.. P K P K Z , o O 9 6 +X@X@XX.. B #X:X:X:X:X:X:X:X:XOX= s.z.b.b.c f G.U.c 8.k.`.t.K.<X3.q.^.`.0.y F.z.v F.",
"x.v.L.0.D.`.v b         o ; . . . % N ] ' 6 X.@X@X@Xm {.#X-X:X:X:X:X-X:X:X-Xm t.f G Y.5.,.`.1XB.k V.b.x.!.).z.c F._.y.d L.F.d V.",
"2.l.l q.T.Z.z.V.  Z Z P # 6X7 9 ' ' } } } N B +X@X@X7 ' +X=X:X:X:X:X=X:X:X;X6 5.D.D.n.S.x.Z.D.y.3.n.c F T.B.e.k.<.z.2.y.W.B.g 4.",
"z.F.k i.H.b e.'.F.U cX@ @ hX3X+X+X} } } } ] =  X@X@XXX% B X.-X:X+X:X$X-X:Xo.>   u.L.,.g u.s.3.G h.N.,.i.A.f G _.W.c <.S.y.e.y.a.",
"a././.l y.R.v . + J xX6X] jX>X:X-X X} } } } = 9 .X@X@X= N $. X.. X+XX. X.X7   r.q.<.2.1.d H.'.4.a./.(.S n.!.v e.'.F !.l.d S.D D.",
"A u./.y.k L.).:  .*XeX7X*X-X-X:X-X X} } } ] = } oX+X@XoXm 6 5 7 9 7 5 5 5 >   l./.x.y.,.v.`.D.0.A i./.s.A L.).r.u.v ~.K.S._.x.y.",
"<.l.Z.y.!.L.~.  1 ' @X-X:X:X:X:X:X$X....] 9 6 .X@X@X@X@X@XXX| N o , e.Z.    v.e.u.A e.f r.m.l S.2.x.S.t.!.L.).0.u.U.~.r.k r.g 0.",
"z.e.1.t.'.r.S.D   1 | @X:X:X:X:X-X+XX.B o o ' +X@X@X@X@X-X:X;X.XB @   ^.Z.v v v q.v G.B.y.b.w.'.z.e.2.e.'.0.S.D Y./.A.D e.D i.U.",
"j.l B.F.x.y ~.v Y.  @ X X. X.X.XX.7 . . K = .X-X:X:X:X:X:X:X:X=X&XU >   U.y.v c R.q.e.Q.i.p.T.D.3.f V.S.e.b ).D Y.Y.v y.D.y.w.H.",
"z.L._.w.x.x.~.D k e.k I . . . . . @   h L.= .X:X:X:X:X:X-X=X>XeXnXpX< k y.e.e.K.D.k f w.S q.F.f z.J.~.e.r.B.).v q.q.e.F.S.k <.G.",
"H.'.R.l D.~.x.l.y.<.l.W.2.D s.'.).v v D.  ; ' +X=X:X:X:X:X>XcXNXBXaX>   A.0.e.K.<.<.C.4.v n.x.z A.'.Y.l J.~.x.x.<.k B.K.l.2.S.'.",
"a.S p.0.g y.v x.W.,.f c.c z.0.s.1Xh M.].    - + = {..X@X:XeXNXBX@ >     '.Z.1.h c 3.W.<.Z.'.2.g.a.q.d.0.D y.h y.!.0.2.2.2.s.t.0.",
"p.q.8.Y.q.A i.E.d.1.1.p.9._.].b x.3.u.G >.F.<Xm.P . . . . . . . I v h ].L.b K.l.x.^.p.S c v.T.9.y.8.8.U.q.F 9./.Y.k 3.m.u.W._.D ",
"i.A.S.G.Z.A.r.q.y.w.!.W.r.Z.^.h.w.y.>.>.Y.`.n.h Z.S.c f v A.e.x T.S.1.e.D M._.d 0.i.8.y.x.L e.S y.Z.G.G.p.m.G u.4.y.(.W.e.Z.~.B.",
"r.D.G.e.y.y.r.n.z S 9.j.x S 9.j.V.<X).>.F x.>.m./.Z.c l.G.y.4.P./.x.r.x.x.M.S.c G.i.w.G.v.D b.q.4.F.G.e.x.r.y.b.6.F r.3.f S i.3.",
"g e.l.j B.c t.!.C.w.9.3.j.A q.P.f m.`.n.r.I.3.<X(.v j W.(.k d _.m.D K.W.l.D h C./.y.s.L.l.b.T.J.j y.l.j M.v 0.T.B.w.F <.2.D y.K.",
"h e.e.2.W.x.r.S.Y.V.C.Y.A.1.c.'.E.f 3.0.b.`.M.3.S 0.e.2.0.q.k h.D y.^.e.g D.x.2.a.S 3.C.v u.M.e.h e.z.2.!.x.e.F.G.B.B.U.Y.2.z.].",
"M.F.3.g K.J.x.h 9.g.z p.d.j.L p.1X3.M.N.,.x.G f w.A.l.f q.H.Z.v q.y.B.,.M.`.M.f d.<.3.z g m.i.1.S.S.e.h F.D.l.h r.6.6.A.m.1.6.m.",
"T.D.D h <.x.r.q.w.<.<.q.y.y.e.k ,.v E.<XW.,.j x.^.Z.<.x.U.a.y.K.A.k <.Z.~.!.2.c Y.s.k.d q.Y.S.h.L.D.v v 0.x.r.<.q.<.0.0.y.z.e.h ",
"u.e.2.).e.v D ^.3.a.Y.c.z w.A.v.x.G f V.<Xb.6.B.d.A j F.H.S k K.U.y.j B.D.A h L.p.4.j.j.U.E.S z x.D q.^.r.v 0.(.,.Y.R.e.z F m.C."
};
