/* XPM */
static char *wall_tile__1_1677422552[] = {
/* columns rows colors chars-per-pixel */
"64 64 205 2 ",
"   c #1B1D0F",
".  c #1C1D1B",
"X  c #1F1C17",
"o  c #270D0C",
"O  c #241800",
"+  c #23150E",
"@  c #29160D",
"#  c #231B0C",
"$  c #2B1B0D",
"%  c #221203",
"&  c #3A1B0D",
"*  c #32170C",
"=  c #241612",
"-  c #291714",
";  c #241A15",
":  c #2B1B15",
">  c #25151E",
",  c #2A161B",
"<  c #241C1A",
"1  c #2C1B1A",
"2  c #341D15",
"3  c #3A1C14",
"4  c #30171C",
"5  c #331E1B",
"6  c #3B1D1B",
"7  c #371516",
"8  c #1F201B",
"9  c #2D2114",
"0  c #2F2816",
"q  c #26221E",
"w  c #2D221B",
"e  c #342115",
"r  c #3A2114",
"t  c #34211B",
"y  c #3B221C",
"u  c #3A250A",
"i  c #1D1D22",
"p  c #231D22",
"a  c #291B21",
"s  c #291723",
"d  c #341E23",
"f  c #3D1E21",
"g  c #361E2B",
"h  c #3E1E33",
"j  c #2D2323",
"k  c #342222",
"l  c #3C2323",
"z  c #3A2925",
"x  c #31282D",
"c  c #3D222B",
"v  c #431C1B",
"b  c #4B1D1A",
"n  c #451C16",
"m  c #58240F",
"M  c #452413",
"N  c #42221C",
"B  c #4E251B",
"V  c #54251E",
"C  c #542A1D",
"Z  c #5C2C1E",
"A  c #502213",
"S  c #57311E",
"D  c #632C1E",
"F  c #6B2E1F",
"G  c #6B311D",
"H  c #652A0A",
"J  c #421E21",
"K  c #422324",
"L  c #4C2524",
"P  c #452C24",
"I  c #4F2B2F",
"U  c #492927",
"Y  c #542622",
"T  c #5B2723",
"R  c #552A24",
"E  c #5A2C25",
"W  c #5E272B",
"Q  c #562C2A",
"!  c #5C2D2A",
"~  c #4F3129",
"^  c #553125",
"/  c #5E3225",
"(  c #553129",
")  c #5C312B",
"_  c #542A32",
"`  c #5F2E31",
"'  c #573033",
"]  c #5F3333",
"[  c #622C24",
"{  c #6B2E23",
"}  c #612D2A",
"|  c #682E2A",
" . c #722F26",
".. c #633225",
"X. c #6C3324",
"o. c #62322B",
"O. c #6C342A",
"+. c #723425",
"@. c #763926",
"#. c #73352A",
"$. c #783228",
"%. c #753A2C",
"&. c #7C3D2D",
"*. c #653630",
"=. c #693430",
"-. c #783230",
";. c #763D31",
":. c #7C3E32",
">. c #7D422D",
",. c #7E482C",
"<. c #754234",
"1. c #7C4234",
"2. c #7C4935",
"3. c #77423B",
"4. c #7C443A",
"5. c #7F493A",
"6. c #7F5139",
"7. c #7F4746",
"8. c #803F29",
"9. c #813E33",
"0. c #8C3F37",
"q. c #84442E",
"w. c #8B452D",
"e. c #84492D",
"r. c #8B492E",
"t. c #93452C",
"y. c #944C2D",
"u. c #984F2E",
"i. c #924926",
"p. c #854434",
"a. c #8A4635",
"s. c #864935",
"d. c #8B4A35",
"f. c #84453A",
"g. c #8A463A",
"h. c #86493A",
"j. c #8B4A3A",
"k. c #904333",
"l. c #924B35",
"z. c #9A4D35",
"x. c #91453B",
"c. c #924C3A",
"v. c #9A4D3B",
"b. c #8A5036",
"n. c #8E503E",
"m. c #85513B",
"M. c #915036",
"N. c #93523B",
"B. c #9A5239",
"V. c #AC5D3D",
"C. c #A55E3E",
"Z. c #BA5938",
"A. c #B35C3E",
"S. c #AC643C",
"D. c #B4623E",
"F. c #BA663F",
"G. c #854A41",
"H. c #8B4B40",
"J. c #874745",
"K. c #914640",
"L. c #914C42",
"P. c #9A4F42",
"I. c #8D5143",
"U. c #925241",
"Y. c #9B5E4F",
"T. c #9F5D45",
"R. c #A45E45",
"E. c #AB5E46",
"W. c #A65F49",
"Q. c #AA5F48",
"!. c #B45E47",
"~. c #9D634C",
"^. c #97634D",
"/. c #A56244",
"(. c #AE6544",
"). c #AC6845",
"_. c #A5634A",
"`. c #AD6449",
"'. c #A76B49",
"]. c #AC6A4C",
"[. c #B16544",
"{. c #BC6641",
"}. c #B36945",
"|. c #B96D47",
" X c #B36549",
".X c #B46A4A",
"XX c #BC664B",
"oX c #BC7144",
"OX c #B3714E",
"+X c #AA6A54",
"@X c #A96653",
"#X c #B36B53",
"$X c #BD6F54",
"%X c #BC7452",
"&X c #BB7659",
"*X c #C07651",
"=X c #C87C55",
"-X c #C2845C",
";X c #C2875A",
":X c #D1885F",
">X c #C48E64",
",X c #C68B6B",
"<X c #C68466",
"1X c #D59565",
"2X c #C98C70",
/* pixels */
"t 2 t 5 t e t e 5 e t e e t 9 t 9 e d e t > ; : < y & 9 t r $ y 5 t t 5 t t t e t e e 2 t e 2 t 2 e u i 4 y e e 5 t e t 5 t t 5 ",
"[.(.[.(.(.D.(.(.(.(.[.(.(. X(.[.[.D.[.S.;XS % < Z E..X].E.}.). X}.S.S.S.[.S.V.(.[.[.}. X[.[. X}._.].;XB Y.'.).(.[.(.[.}.(.D.S.(.",
"l.d.d.l.d.M.M.d.N.d.d.l.b.l.d.c.j.n.d.u.OX2XC 1 E c.c.j.c.c.M.j.a.c.c.c.j.c.c.j.d.j.j.d.j.d.d.d.c.B.OX& [ P.a.P.d.l.b.d.d.M.d.l.",
"e.a.a.e.a.p.a.p.p.a.a.a.a.a.q.a.G.f.4.K.v.*X>Xe } a.a.g.g.p.w.x.l.a.a.a.p.p.d.d.e.r.a.r.a.r.a.r.a.a.'.y V e.a.p.a.q.a.w.a.q.a.s.",
"j.H.j.H.H.H.j.H.j.j.j.g.g.j.j.g.t.l.j.g.0.y.S.y C s.s.s.s.s.s.b.d.w.s.j.n.s.a.p.g.h.h.g.h.g.h.g.d.c.).2 ..d.z.p.H.H.j.H.j.H.j.G.",
"a.a.a.s.a.p.a.a.a.a.a.a.d.d.d.a.d.s.6.s.h.N.}.d ! g.a.f.g.d.a.g.d.d.j.g.q.a.c.d.g.d.d.j.d.g.d.j.a.v._.5 Q j.p.j.a.p.a.a.d.a.a.a.",
"s.d.s.d.s.g.s.h.d.j.d.j.s.p.d.j.H.x.q.w.h.d.D.t ! d.l.n.j.a.r.j.j.h.3.O.[ O.f.g.a.s.s.s.s.h.s.s.d.t..Xy E k.a.j.s.d.h.s.j.s.s.d.",
"d.g.d.g.d.a.d.d.h.j.f.H.p.$.p.j.h.a.d.t.G.j.XX9 R g.a.s.h.d.s.p.1.X.X.f.h.p.d.d.d.d.d.d.d.a.d.d.s.j.(.t R g.j.2.d.g.a.d.d.a.d.g.",
"j.d.d.d.j.d.d.g.p.g.j.s.1.+.p.f.a.H.w.t.H.j. X5 R p.q.<.O./ ) *.X.:.f.s.d.a.d.s.d.s.d.s.d.s.d.s.d.j.{.t Y t.x.g.h.d.p.a.b.a.a.a.",
"g.d.g.j.p.a.a.j.n.d.p.L.h.;...! ! 4.d.c.<.l.}.w f O.F O.:.g.s.9.4.%.f.p.j.j.p.c.g.d.g.j.g.g.d.j.p.H.S.k ! j.j.h.h.p.c.d.p.d.j.d.",
"j.s.g.d.d.f.:.%.&.a.d.f.} ` y 5 l / e.&.O.y.[.t l 3.f.f.g.k.d.l.j.:.{ p.j.j.d.d.j.g.d.j.g.d.g.d.e.U.[.l W p.g.h.h.X.p.j.s.j.j.j.",
"h.d.d.d.j.h.>.+.@.p.h.! v 6 1 < t ! f.$.9.N._.t ~ j.M.m.j.d.e.g.h.g.G p.g.s.N.s.d.d.s.d.d.s.d.a.y.c.}.7 ! g.p.d.1.X.1.j.d.d.d.a.",
"s.a.a.r.a.a.a.f.3.o.) 6 t : ; ; 2 7 ) 9.J.Y Y 1 T a.t.p.a.d.g.j.a.g.a.d.p.a.a.a.d.d.a.d.d.r.d.d.p.L.~.k 3 E [ s.+.1.g.d.s.a.d.d.",
"d.g.g.a.f.g.g.g.Q K 6 k k 1 = : - 1 z o.) 5 ; > ) j.g.j.g.a.g.j.d.g.p.j.g.p.a.d.d.d.g.a.g.d.d.a.! ! N 8 < l 6 ) 1.I.g.a.d.a.j.d.",
"! ! R ! ! E ! E 6 l d f 5 1 : : ; ; = 5 3 ; ; 1 y C V ! ! / / V ! ! V ! ) R / E ! E Z E E E E E t J # X = , - t ! R E E ! E V ! ",
"1 1 : ; ; 1 6 K P K f f J l k : X 7 : k t : y : q N r t 1 e t t t 2 z - - : : t t 5 5 t t t 5 t t 6 e 2 r d 9 e t 5 y 2 y y 2 y ",
"- < < 1 1 = e _..X(.t.j.[ R l k d 6 [ _. X}.`.a.(.[.).).(.[.(.(.!.oX<XR . = a S.[.[.(. X(.(.(.}.].(..X}.}..X(.[.(.(.(.(.(.(.(.(.",
"N 6 t 6 5 a @ O.d.z.#X@X1.) v l ) } f.z.y.M.h.X.d.c.l.c.d.l.c.c.U.d.*X<X! B 9 [ z.d.l.c.x.c.l.l.c.l.a.c.c.k.c.c.l.l.c.c.l.l.l.c.",
"! E ! R J k 1 Y a.r.d.N.X.! ! ! p.p.a.k.p.p.[ 4.a.p.s.d.d.p.g.s.s.e.k.*X1X-Xz _ s.j.g.p.p.j.j.a.a.g.a.a.a.g.a.p.d.p.p.p.d.p.p.a.",
"} T o.} T k a ! p.a.j.s.;.O.h.s.X.s.d.j.j.f.{ f.s.s.d.s.d.s.d.s.d.e.d.c.%X|.5 Y s.p.h.j.j.d.s.s.d.d.d.d.s.p.d.d.s.d.d.d.d.s.d.s.",
"! T E D ! k : R j.p.g.s.X.s.p.j.s.s.d.p.4.{ f.x.d.d.a.a.d.d.r.d.k.h.m.q.c. X3 / j.j.g.p.d.s.s.j.w.d.q.j.N.p.d.d.a.d.d.d.d.d.d.d.",
"! ` ! T o.l : E g.g.j.s.s.j.j.a.j.a.s.j.f.X.>.d.g.g.d.g.g.g.g.g.d.h.j.a.y.}.2 Q p.c.p.{ { :.j.g.d.g.H.p.f.H.p.f.j.j.g.g.j.g.j.g.",
"! ` ! V ! 4 : } p.c.p.j.p.s.j.d.f.c.w.p.X.4.X.h.d.g.g.s.j.g.g.h.G.b.j.q.N.].4 Z j.d.f.f.f.:.:.H.j.s.f.[ X.:.-.g.g.j.d.g.g.g.g.j.",
"[ E ! ! ` d 5 E d.a.l.a.j.s.s.d.j.>.M.p.{ 4.| s.b.d.s.d.s.d.d.a.t.g.f.j.j.).r } d.d.s.j.s.%.+.s.s.s.X.2.h.X.1.s.d.s.d.s.d.s.d.s.",
"E ! } [ E 6 1 E p.d.j.p.j.j.s.s.h.H.1.%.f.j.f.j.g.s.d.j.j.s.s.d.d.w.-.1.d..Xe ! a.a.j.d.j.a.{ 2.f.F p.j.d.p.{ f.s.d.d.g.s.d.j.h.",
"! W W [ E k : ! a.a.j.a.g.d.g.n.a.c.a.8.d.d.p.d.d.d.j.p.a.d.d.d.g.j.1.X.j.W.t R a.c.h.j.a.g.p.O.7.X.p.j.d.j.4.{ a.d.d.d.d.a.d.a.",
"! ! W E ! 6 : ! a.d.j.a.j.a.p.g.d.d.d.d.d.d.d.d.g.d.d.d.j.a.a.g.j.a.g.2.X.c.k R a.a.d.p.g.j.f.4.F p.j.d.a.d.j.p.d.d.d.d.d.d.d.d.",
"! W ! T ! 5 : ( a.g.d.a.b.j.j.a.h.s.j.g.s.s.d.g.h.j.j.a.s.j.j.h.a.d.g.m.a.R.2 ! j.s.j.e.c.d.s.h.{ f.d.a.a.a.j.j.s.h.h.s.h.h.s.s.",
"! ! E E ! 6 : Q p.j.g.s.a.a.d.p.n.d.d.c.a.d.j.d.d.s.s.j.j.d.d.a.r.t.g.q.B.}.2 ! s.h.d.a.q.p.j.{ f.f.h.h.g.s.j.g.g.j.j.g.d.j.g.g.",
"E } ! E E J 1 y | 4.f.j.g.l.c.g.k.a.a.d.k.a.d.w.k.d.s.1.2.s.d.w.r.d.L.h.r.[.y Y [ 4.K.c.l.j.f.$.p.a.l.d.r.k.w.d.k.d.k.a.d.k.l.d.",
"Q } ! Z R K , - 6 Q *.f.f.f.g.h.s.s.s.p.h.s.h.p.p.H.<.B A <.H.p.2.H.f.4.n./.q 3 y } f.f.f.h.[ 3.p.d.q.q.j.j.q.a.g.h.g.h.g.g.g.h.",
"R W ! E ! I k @ ; 6 7 R } Z E E ! ! ! R ! E ! ! ! R l , , l Q ! ! Z [ C ! [ 8 - < 6 Y ..Z Y M R ) ! ! ) Q R ! ! E ! E E E E E E ",
"o.o.o.o.o.*.! Y 3 e 2 y 5 : z 5 k w w t N u < i w r 2 5 1 y e t e e e e r e e e 5 y t 5 l t e e 1 : $ p 6 k t 5 y t 5 t t t t t ",
".X.X|.}.}.[..X[.(.(.OX(.).i.C..XZ.D.}.]..X,XM 5 /.}.{.}.(.}.D.}. X X X.X X X X[.[.).(.}.(.(..X:XP a # t ~.}.(.F.[.}.}.}.[.[. X[.",
"d.c.d.l.c.j.j.c.d.N.j.j.+.d.N.j.P.P.j.c.z.$X,XM } j.c.H.j.c.l.H.j.j.j.d.j.j.j.c.z.l.l.c.c.k.B.%X;XE 4 : X.y.x.d.j.j.j.d.d.d.d.c.",
"d.a.b.d.r.a.s.s.H.p.9.F a.a.d.a.p.2.f.w.a.B.].3 T j.d.d.h.d.w.h.a.a.a.a.a.a.a.a.q.s.p.p.p.e.s.b.=X>Xh # W h.j.J.d.d.d.a.a.d.d.d.",
"p.g.j.a.p.g.j.j.3.O.#.5.4.h.h.h.r.l.p.M.p.d.'.k Q h.a.d.g.d.r.j.g.d.g.d.d.a.d.g.H.K.H.g.H.K.j.g.$X1X! # ! a.i.g.a.a.c.g.c.H.f.f.",
"d.h.d.j.n.j.f.1.+.p.s.q.d.l.a.d.f.g.J.a.f.c.[.t T f.a.d.j.d.d.p.a.g.a.d.d.j.g.j.d.d.a.s.s.p.d.d.i.F.;XN _ s.w.g.k.a.c.d.p.:.X.[ ",
"j.d.d.g.p.:.+.[ p.j.j.d.a.e.d.s.l.w.g.z.p.j.D.t ) G.d.j.f.f.f.O.h.s.h.j.s.g.g.j.d.d.d.j.d.d.d.d.b.c.'.y ) ,.c.a.j.1.1...( Q y 6 ",
"s.d.j.d.q.%.;.h.X.h.p.j.d.g.j.h.s.a.G.w.s.P.F.1 E g.w.d.d.j.s.[ a.a.d.g.d.j.d.d.j.d.j.g.a.a.j.g.p.v.'.3 Z f.l.f.f.#.E v 6 l d g ",
"a.d.s.;.O.1.d.a...1.h.j.s.r.d.d.a.j.d.w.h.B.D.k } f.a.d.j.h.G f.d.d.d.a.d.p.p.g.a.d.d.a.d.d.s.s.a.d.*X0 Q r.H.a.j.1.[ o.! 6 f c ",
"g.p.+.| f.g.p.d.:.1.s.a.g.a.s.g.d.p.d.d.5.q.}.t E h.d.d.s.1.X.s.j.j.d.j.j.p.&.:.j.j.j.j.j.j.a.a.p.g.Z.0 Q a.j.j.j.j.p.h.4...E E ",
"h.O.&.s.p.s.U.p.j.f.p.g.c.d.f.j.f.j.g.a.j.d.[.t T H.a.a.p.#.<.s.g.s.g.g.s.p.1.$.1.s.d.g.d.p.j.c.s.j. Xt W p.s.s.d.j.s.d.g.e.p.d.",
"O.2.j.s.n.s.p.j.d.g.d.d.d.g.g.j.j.e.s.l.H.g./.y } j.k.d.d.p.j.a.s.d.d.s.s.n.j.>.{ +.>.n.j.d.p.q.r.d.#X2 W d.p.w.p.j.p.g.d.a.d.d.",
"1.d.c.l.w.k.c.d.p.d.l.a.p.d.d.d.j.k.d.g.f.} A 1 E 1.d.a.g.g.c.t.j.a.a.d.a.a.d.j.s.&.@.&.p.d.d.d.t.v.Y.t R g.j.v.a.j.j.j.j.g.f.p.",
"j.f.p.a.p.a.g.f.a.s.d.a.a.d.g.p.c.a.G.h.o.y @ . N ) 5.s.h.f.f.a.g.a.a.a.a.a.g.g.j.f.s.s.j.j.d.p.j.f.B 9 ^ G.h.9.g.a.a.p.g.j.j.H.",
"! ! ! ! ) ! R ! ! E E E ! E E E T T ( Y B k @ X @ 6 C R ) Q ! / E ! / E E / ! R E E T T E E E ! Y ! 2 : 3 Y ! o.Z E ! C E E R E ",
"2 : 1 : : ; 1 : : t t t t 2 t y k 2 t y 6 d t 2 j t 6 3 l 1 5 2 t 5 5 t t ; + : 1 5 t t 5 y 5 5 t 6 x < 6 6 2 t k t 6 t e 5 2 y ",
"; , ; > <   , . N ^.[.}.'.G R.}.[.[.).].(. X(..X(.(.}..X(.}.(.}.[.[..X].,XH . , m ~.].(.(..X(.(.(.}.(.(.(.(.).[.(.(.(.).(.(.).(.",
"y L N v y t o $ v O.z.M.g.4.&.a.l.l.z.l.l.l.l.l.c.l.c.d.l.c.d.c.z.r.d.N.&X-Xj 6 <.N.l.l.l.c.l.l.M.c.z.c.z.c.c.c.k.M.c.c.c.z.d.z.",
"'..X+Xd.Z a k l o.3.s.a.a.f.| f.a.p.s.p.s.a.s.a.p.p.a.p.g.d.p.a.p.s.g.q.l.|.e ! h.g.p.k.a.p.p.a.a.s.p.p.s.p.p.s.j.p.g.j.p.f.j.g.",
"z.w.c.}.d.c - C p.n.h.a.a.d.4...f.s.d.g.d.s.d.s.d.d.d.g.d.j.p.d.j.j.p.p.v.V.2 T f.d.d.d.g.g.j.g.h.s.d.s.d.s.d.d.d.b.f.p.p.p.p.N.",
"p.d.c.y._.K : } d.q.d.a.r.d.&.O.d.a.h.d.g.d.g.s.d.a.a.g.>.d.a.d.s.a.H.j.l..X5 ! s.g.a.q.j.j.h.s.a.a.a.d.d.r.d.d.d.s.d.s.@.+.1.s.",
"r.p.j.r.+XL   ' k.g.d.a.j.a.O.4.d.g.a.j.j.g.d.d.j.g.g.9.%.j.j.j.j.a.j.p.a..Xw ! s.d.a.a.g.j.s.s.j.j.g.g.g.g.g.g.h.H.j.f.p.:.%.:.",
"h.J.1.m.v.R.M ! a.d.d.j.p.I.1.| d.a.d.j.d.d.j.d.d.j.p.+.:.h.g.g.a.d.j.g.B./.t E a.d.l.n.p.h.a.l.g.d.g.s.g.d.g.d.g.p.g.j.j.j.9.%.",
"r.j.c.1.z.[.r _ j.p.l.e.g.4.X.p.s.s.h.d.h.g.g.p.a.j.p.D h.g.d.d.s.j.f.g.k..Xt E g.p.d.p.{ f.j.a.a.s.s.d.d.s.s.s.d.d.d.p.d.a.f.p.",
"d.j.0.h.d. X: ( 2.n.g.O.3.E / 4.O.s.g.a.d.j.s.d.j.>.@.>.s.d.s.s.m.q.x.a.d..X: R d.d.h.1.X.1.d.d.d.d.d.d.d.d.d.d.d.d.d.d.d.d.d.d.",
"d.j.x.j.n.{.y ! d.q.p.f.| b b ) 1.g.a.a.j.g.s.j.g.a.a.d.j.d.g.j.j.d.l.s.z. Xt ) a.d.d.{ 4.#.1.g.d.j.j.g.j.d.j.g.j.j.j.g.d.j.d.j.",
"d.s.g.a.d.[.l Q d.d.N.H.3.! 6 f X.4.j.a.s.g.s.d.d.g.j.j.j.a.d.g.g.d.s.,.l.!.y R h.G.9.{ f.:.O.s.g.a.d.s.d.g.g.d.a.d.d.d.d.h.g.a.",
"j.2.c.r.d.[.t R a.d.,.s.+.4.) 6 Z 2.j.s.j.m.j.a.h.d.s.j.j.g.g.d.k.d.m.,.N..Xd t Y } X.>.f.I.4.d.g.g.j.h.d.g.d.g.g.g.g.h.g.d.g.g.",
"d.a.x.w.d..X2 ^ c.j.d.&.a.g.f.) :.&.q.a.j.a.w.d.a.d.p.a.a.a.d.a.x.d.a.w.z. X5 # N E h.g.l.p.d.a.a.d.a.d.a.a.a.a.d.a.a.d.d.a.a.a.",
"g.a.g.a.g.W.y / 9.H.s.g.c.p.#.4.j.p.f.g.g.f.a.g.d.g.g.a.p.g.g.g.g.g.f.g.x._.f # 6 Q G.f.a.p.a.a.d.g.g.g.g.f.a.g.g.g.g.p.g.g.g.d.",
"E E R ( R O.1 r ) V ! ! R n Y ! R ! / ! R ! ! E E E ! R E R R ! E E Q E ! .., ; 1 N R R ! ! E R R R R E R ! R R E E R ! R R R ! ",
"1 : < w , * i : - : 5 1 < < 1 1 1 : - : < 1 1 - 1 : - 1 1 5 1 : - : < : 9 O < ; X + t : - 1 1 ; 1 : : : : : 1 : : : : 1 : : : : "
};
